G04 #@! TF.GenerationSoftware,KiCad,Pcbnew,(2017-11-06 revision 9df4ae65e)-makepkg*
G04 #@! TF.CreationDate,2017-12-06T02:01:24-08:00*
G04 #@! TF.ProjectId,MHz_LED_Modulator,4D487A5F4C45445F4D6F64756C61746F,rev?*
G04 #@! TF.SameCoordinates,Original*
G04 #@! TF.FileFunction,Legend,Bot*
G04 #@! TF.FilePolarity,Positive*
%FSLAX46Y46*%
G04 Gerber Fmt 4.6, Leading zero omitted, Abs format (unit mm)*
G04 Created by KiCad (PCBNEW (2017-11-06 revision 9df4ae65e)-makepkg) date 12/06/17 02:01:24*
%MOMM*%
%LPD*%
G01*
G04 APERTURE LIST*
%ADD10C,0.300000*%
G04 APERTURE END LIST*
D10*
X174652000Y-120288857D02*
X174437714Y-120360285D01*
X174366285Y-120431714D01*
X174294857Y-120574571D01*
X174294857Y-120788857D01*
X174366285Y-120931714D01*
X174437714Y-121003142D01*
X174580571Y-121074571D01*
X175152000Y-121074571D01*
X175152000Y-119574571D01*
X174652000Y-119574571D01*
X174509142Y-119646000D01*
X174437714Y-119717428D01*
X174366285Y-119860285D01*
X174366285Y-120003142D01*
X174437714Y-120146000D01*
X174509142Y-120217428D01*
X174652000Y-120288857D01*
X175152000Y-120288857D01*
X173652000Y-120288857D02*
X173152000Y-120288857D01*
X172937714Y-121074571D02*
X173652000Y-121074571D01*
X173652000Y-119574571D01*
X172937714Y-119574571D01*
X172366285Y-121003142D02*
X172152000Y-121074571D01*
X171794857Y-121074571D01*
X171652000Y-121003142D01*
X171580571Y-120931714D01*
X171509142Y-120788857D01*
X171509142Y-120646000D01*
X171580571Y-120503142D01*
X171652000Y-120431714D01*
X171794857Y-120360285D01*
X172080571Y-120288857D01*
X172223428Y-120217428D01*
X172294857Y-120146000D01*
X172366285Y-120003142D01*
X172366285Y-119860285D01*
X172294857Y-119717428D01*
X172223428Y-119646000D01*
X172080571Y-119574571D01*
X171723428Y-119574571D01*
X171509142Y-119646000D01*
X170080571Y-121074571D02*
X170937714Y-121074571D01*
X170509142Y-121074571D02*
X170509142Y-119574571D01*
X170652000Y-119788857D01*
X170794857Y-119931714D01*
X170937714Y-120003142D01*
X169580571Y-119574571D02*
X168580571Y-119574571D01*
X169223428Y-121074571D01*
X167223428Y-121074571D02*
X168080571Y-121074571D01*
X167652000Y-121074571D02*
X167652000Y-119574571D01*
X167794857Y-119788857D01*
X167937714Y-119931714D01*
X168080571Y-120003142D01*
X166652000Y-119717428D02*
X166580571Y-119646000D01*
X166437714Y-119574571D01*
X166080571Y-119574571D01*
X165937714Y-119646000D01*
X165866285Y-119717428D01*
X165794857Y-119860285D01*
X165794857Y-120003142D01*
X165866285Y-120217428D01*
X166723428Y-121074571D01*
X165794857Y-121074571D01*
X164866285Y-119574571D02*
X164723428Y-119574571D01*
X164580571Y-119646000D01*
X164509142Y-119717428D01*
X164437714Y-119860285D01*
X164366285Y-120146000D01*
X164366285Y-120503142D01*
X164437714Y-120788857D01*
X164509142Y-120931714D01*
X164580571Y-121003142D01*
X164723428Y-121074571D01*
X164866285Y-121074571D01*
X165009142Y-121003142D01*
X165080571Y-120931714D01*
X165152000Y-120788857D01*
X165223428Y-120503142D01*
X165223428Y-120146000D01*
X165152000Y-119860285D01*
X165080571Y-119717428D01*
X165009142Y-119646000D01*
X164866285Y-119574571D01*
X163080571Y-119574571D02*
X163366285Y-119574571D01*
X163509142Y-119646000D01*
X163580571Y-119717428D01*
X163723428Y-119931714D01*
X163794857Y-120217428D01*
X163794857Y-120788857D01*
X163723428Y-120931714D01*
X163652000Y-121003142D01*
X163509142Y-121074571D01*
X163223428Y-121074571D01*
X163080571Y-121003142D01*
X163009142Y-120931714D01*
X162937714Y-120788857D01*
X162937714Y-120431714D01*
X163009142Y-120288857D01*
X163080571Y-120217428D01*
X163223428Y-120146000D01*
X163509142Y-120146000D01*
X163652000Y-120217428D01*
X163723428Y-120288857D01*
X163794857Y-120431714D01*
X161652000Y-121074571D02*
X161652000Y-120288857D01*
X161723428Y-120146000D01*
X161866285Y-120074571D01*
X162152000Y-120074571D01*
X162294857Y-120146000D01*
X161652000Y-121003142D02*
X161794857Y-121074571D01*
X162152000Y-121074571D01*
X162294857Y-121003142D01*
X162366285Y-120860285D01*
X162366285Y-120717428D01*
X162294857Y-120574571D01*
X162152000Y-120503142D01*
X161794857Y-120503142D01*
X161652000Y-120431714D01*
M02*
