G04 #@! TF.GenerationSoftware,KiCad,Pcbnew,(2017-11-06 revision 9df4ae65e)-makepkg*
G04 #@! TF.CreationDate,2017-12-06T02:01:24-08:00*
G04 #@! TF.ProjectId,MHz_LED_Modulator,4D487A5F4C45445F4D6F64756C61746F,rev?*
G04 #@! TF.SameCoordinates,Original*
G04 #@! TF.FileFunction,Copper,L1,Top,Signal*
G04 #@! TF.FilePolarity,Positive*
%FSLAX46Y46*%
G04 Gerber Fmt 4.6, Leading zero omitted, Abs format (unit mm)*
G04 Created by KiCad (PCBNEW (2017-11-06 revision 9df4ae65e)-makepkg) date 12/06/17 02:01:24*
%MOMM*%
%LPD*%
G01*
G04 APERTURE LIST*
%ADD10R,0.650000X0.400000*%
%ADD11R,0.400000X0.650000*%
%ADD12C,0.100000*%
%ADD13C,20.000000*%
%ADD14R,0.900000X1.700000*%
%ADD15R,1.700000X0.900000*%
%ADD16R,2.500000X1.000000*%
%ADD17R,0.450000X0.600000*%
%ADD18R,1.000000X3.200000*%
%ADD19C,2.999740*%
%ADD20R,2.999740X2.999740*%
%ADD21C,2.400000*%
%ADD22R,2.400000X2.400000*%
%ADD23R,1.219200X0.500000*%
%ADD24R,0.800000X0.900000*%
%ADD25R,0.770000X0.390000*%
%ADD26R,1.960000X2.700000*%
%ADD27R,0.560000X0.390000*%
%ADD28R,4.000500X4.000500*%
%ADD29C,1.500000*%
%ADD30C,4.000500*%
%ADD31O,1.727200X2.032000*%
%ADD32C,1.000000*%
%ADD33C,0.800000*%
%ADD34C,0.700000*%
%ADD35C,2.000000*%
%ADD36C,0.500000*%
%ADD37C,1.000000*%
%ADD38C,0.350000*%
%ADD39C,0.800000*%
%ADD40C,0.400000*%
%ADD41C,0.600000*%
%ADD42C,0.254000*%
G04 APERTURE END LIST*
D10*
X154091600Y-80152000D03*
X154091600Y-78852000D03*
X155991600Y-79502000D03*
X154091600Y-79502000D03*
X155991600Y-78852000D03*
X155991600Y-80152000D03*
D11*
X151145000Y-80604400D03*
X149845000Y-80604400D03*
X150495000Y-78704400D03*
X149845000Y-78704400D03*
X151145000Y-78704400D03*
D12*
G36*
X141233069Y-81492261D02*
X141621361Y-81549859D01*
X142002139Y-81645239D01*
X142371734Y-81777482D01*
X142726587Y-81945315D01*
X143063281Y-82147122D01*
X143378573Y-82380958D01*
X143669427Y-82644573D01*
X143933042Y-82935427D01*
X144166878Y-83250719D01*
X144368685Y-83587413D01*
X144536518Y-83942266D01*
X144668761Y-84311861D01*
X144764141Y-84692639D01*
X144821739Y-85080931D01*
X144841000Y-85473000D01*
X144841000Y-117473000D01*
X144821739Y-117865069D01*
X144764141Y-118253361D01*
X144668761Y-118634139D01*
X144536518Y-119003734D01*
X144368685Y-119358587D01*
X144166878Y-119695281D01*
X143933042Y-120010573D01*
X143669427Y-120301427D01*
X143378573Y-120565042D01*
X143063281Y-120798878D01*
X142726587Y-121000685D01*
X142371734Y-121168518D01*
X142002139Y-121300761D01*
X141621361Y-121396141D01*
X141233069Y-121453739D01*
X140841000Y-121473000D01*
X128841000Y-121473000D01*
X128448931Y-121453739D01*
X128060639Y-121396141D01*
X127679861Y-121300761D01*
X127310266Y-121168518D01*
X126955413Y-121000685D01*
X126618719Y-120798878D01*
X126303427Y-120565042D01*
X126012573Y-120301427D01*
X125748958Y-120010573D01*
X125515122Y-119695281D01*
X125313315Y-119358587D01*
X125145482Y-119003734D01*
X125013239Y-118634139D01*
X124917859Y-118253361D01*
X124860261Y-117865069D01*
X124841000Y-117473000D01*
X124841000Y-85473000D01*
X124860261Y-85080931D01*
X124917859Y-84692639D01*
X125013239Y-84311861D01*
X125145482Y-83942266D01*
X125313315Y-83587413D01*
X125515122Y-83250719D01*
X125748958Y-82935427D01*
X126012573Y-82644573D01*
X126303427Y-82380958D01*
X126618719Y-82147122D01*
X126955413Y-81945315D01*
X127310266Y-81777482D01*
X127679861Y-81645239D01*
X128060639Y-81549859D01*
X128448931Y-81492261D01*
X128841000Y-81473000D01*
X140841000Y-81473000D01*
X141233069Y-81492261D01*
X141233069Y-81492261D01*
G37*
D13*
X134841000Y-101473000D03*
D14*
X132636600Y-123164600D03*
X135536600Y-123164600D03*
X128653200Y-123139200D03*
X125753200Y-123139200D03*
D15*
X150037800Y-86489200D03*
X150037800Y-83589200D03*
D16*
X152933400Y-83539200D03*
X152933400Y-86539200D03*
X147129500Y-83526500D03*
X147129500Y-86526500D03*
X149263100Y-113447700D03*
X149263100Y-116447700D03*
X158343600Y-116384200D03*
X158343600Y-113384200D03*
X153771600Y-113384200D03*
X153771600Y-116384200D03*
X156184600Y-86539200D03*
X156184600Y-83539200D03*
D17*
X176022000Y-121319000D03*
X176022000Y-119219000D03*
X171958000Y-119219000D03*
X171958000Y-121319000D03*
X167894000Y-121319000D03*
X167894000Y-119219000D03*
X171665900Y-89145400D03*
X171665900Y-91245400D03*
D18*
X116280000Y-77216000D03*
X122480000Y-77216000D03*
D19*
X162636200Y-82613500D03*
D20*
X162636200Y-78803500D03*
D21*
X162483800Y-93312600D03*
D22*
X162483800Y-100812600D03*
D23*
X147334600Y-80452001D03*
X147334600Y-79502000D03*
X147334600Y-78551999D03*
X144714600Y-78551999D03*
X144714600Y-79502000D03*
X144714600Y-80452001D03*
D19*
X175641000Y-91719400D03*
D20*
X175641000Y-95529400D03*
D19*
X149250400Y-95123000D03*
D20*
X149250400Y-98933000D03*
D24*
X175183800Y-88845900D03*
X174233800Y-86845900D03*
X176133800Y-86845900D03*
D25*
X139734800Y-78222200D03*
D26*
X141639800Y-79197200D03*
D27*
X142899800Y-78222200D03*
X142899800Y-78872200D03*
X142899800Y-79522200D03*
X142899800Y-80172200D03*
D25*
X139734800Y-78872200D03*
X139734800Y-79522200D03*
X139734800Y-80172200D03*
D19*
X166446200Y-82600800D03*
D20*
X166446200Y-78790800D03*
D28*
X159029400Y-108966000D03*
D29*
X137236200Y-80340200D03*
D30*
X152755600Y-120370600D03*
D20*
X167894000Y-116332000D03*
D19*
X167894000Y-112522000D03*
X171958000Y-112522000D03*
D20*
X171958000Y-116332000D03*
D19*
X174066200Y-82600800D03*
D20*
X174066200Y-78790800D03*
D19*
X170256200Y-82600800D03*
D20*
X170256200Y-78790800D03*
D19*
X176022000Y-112522000D03*
D20*
X176022000Y-116332000D03*
D31*
X138938000Y-123825000D03*
X141478000Y-123825000D03*
X144018000Y-123825000D03*
X146558000Y-123825000D03*
X149098000Y-123825000D03*
X151638000Y-123825000D03*
X154178000Y-123825000D03*
X156718000Y-123825000D03*
X161798000Y-123825000D03*
X164338000Y-123825000D03*
X166878000Y-123825000D03*
X169418000Y-123825000D03*
X171958000Y-123825000D03*
X174498000Y-123825000D03*
X129794000Y-75565000D03*
X132334000Y-75565000D03*
X134874000Y-75565000D03*
X137414000Y-75565000D03*
X139954000Y-75565000D03*
X142494000Y-75565000D03*
X145034000Y-75565000D03*
X147574000Y-75565000D03*
X150114000Y-75565000D03*
X152654000Y-75565000D03*
X156718000Y-75565000D03*
X159258000Y-75565000D03*
X161798000Y-75565000D03*
X164338000Y-75565000D03*
X166878000Y-75565000D03*
X169418000Y-75565000D03*
X171958000Y-75565000D03*
X174498000Y-75565000D03*
D32*
X115000000Y-80000000D03*
X117000000Y-83000000D03*
X114000000Y-86000000D03*
X117000000Y-89000000D03*
X114000000Y-92000000D03*
X117000000Y-95000000D03*
X114000000Y-98000000D03*
X117000000Y-101000000D03*
X114000000Y-104000000D03*
X117000000Y-107000000D03*
X114000000Y-110000000D03*
X117000000Y-113000000D03*
X114000000Y-116000000D03*
X117000000Y-119000000D03*
X114000000Y-122000000D03*
X117000000Y-125000000D03*
X120000000Y-122000000D03*
X123000000Y-125000000D03*
D33*
X142875000Y-95681800D03*
D34*
X149860000Y-79679800D03*
X149860000Y-79679800D03*
D33*
X153543000Y-81051400D03*
X152693000Y-79097477D03*
X149072600Y-78145030D03*
X146024600Y-79044800D03*
X153085800Y-78130400D03*
D32*
X114960400Y-74523600D03*
X113000000Y-77000000D03*
D33*
X174218600Y-85318600D03*
X151511000Y-116967000D03*
X158343600Y-114947700D03*
X156083000Y-116903500D03*
X144272000Y-95681800D03*
X146151600Y-80441800D03*
X151892000Y-88900000D03*
X142875000Y-94411800D03*
X144272000Y-94411800D03*
X156972000Y-88900000D03*
X154432000Y-88900000D03*
X149352000Y-88900000D03*
X146812000Y-88900000D03*
X149275800Y-114935000D03*
X153771600Y-114947700D03*
X138684000Y-80187800D03*
D35*
X149098000Y-121007293D02*
X149098000Y-123825000D01*
X146189700Y-110680500D02*
X146189700Y-91046300D01*
X146189700Y-91046300D02*
X146304000Y-90932000D01*
D36*
X142611066Y-121996200D02*
X137655000Y-121996200D01*
X137655000Y-121996200D02*
X136486600Y-123164600D01*
X136486600Y-123164600D02*
X135536600Y-123164600D01*
X146304000Y-120932787D02*
X143674479Y-120932787D01*
X143674479Y-120932787D02*
X142611066Y-121996200D01*
X145285400Y-81432400D02*
X144703800Y-80850800D01*
D37*
X147129500Y-83026500D02*
X146879500Y-83026500D01*
X146879500Y-83026500D02*
X145285400Y-81432400D01*
D36*
X144703800Y-80850800D02*
X144703800Y-80462801D01*
X144703800Y-80462801D02*
X144714600Y-80452001D01*
D38*
X123000000Y-125000000D02*
X120000000Y-122000000D01*
D36*
X117000000Y-83000000D02*
X114000000Y-86000000D01*
X117000000Y-89000000D02*
X114000000Y-92000000D01*
X117000000Y-95000000D02*
X114000000Y-98000000D01*
X117000000Y-101000000D02*
X114000000Y-104000000D01*
X117000000Y-107000000D02*
X114000000Y-110000000D01*
X117000000Y-113000000D02*
X114000000Y-116000000D01*
X117000000Y-119000000D02*
X114000000Y-122000000D01*
D38*
X117000000Y-125000000D02*
X120000000Y-122000000D01*
X116280000Y-77216000D02*
X115430000Y-77216000D01*
D36*
X115430000Y-77216000D02*
X115000000Y-80000000D01*
D38*
X125753200Y-123139200D02*
X125753200Y-121939200D01*
X125753200Y-121939200D02*
X125403800Y-121589800D01*
X123287600Y-124845000D02*
X123240800Y-124798200D01*
X123240800Y-124798200D02*
X123240800Y-123139200D01*
X125247400Y-124845000D02*
X123287600Y-124845000D01*
X125753200Y-123139200D02*
X125753200Y-124339200D01*
X125753200Y-124339200D02*
X125247400Y-124845000D01*
X149072600Y-78145030D02*
X149537230Y-78145030D01*
X149537230Y-78145030D02*
X149845000Y-78452800D01*
X156184600Y-88900000D02*
X154432000Y-88900000D01*
X156184600Y-87039200D02*
X156184600Y-88900000D01*
X156184600Y-88900000D02*
X156972000Y-88900000D01*
X150037800Y-87039200D02*
X150037800Y-88823800D01*
X150037800Y-88823800D02*
X150114000Y-88900000D01*
X147129500Y-87026500D02*
X147129500Y-88582500D01*
X147129500Y-88582500D02*
X146812000Y-88900000D01*
X162000000Y-112066000D02*
X168560750Y-105505250D01*
X161810700Y-112255300D02*
X162000000Y-112066000D01*
D39*
X159029400Y-109029400D02*
X162000000Y-112000000D01*
X162000000Y-112000000D02*
X162000000Y-112066000D01*
X159029400Y-108966000D02*
X159029400Y-109029400D01*
D40*
X156000000Y-111887000D02*
X158267400Y-111887000D01*
X153771600Y-111887000D02*
X156000000Y-111887000D01*
D39*
X159029400Y-108970600D02*
X156113000Y-111887000D01*
X156113000Y-111887000D02*
X156000000Y-111887000D01*
X159029400Y-108966000D02*
X159029400Y-108970600D01*
X158966000Y-108966000D02*
X155000000Y-105000000D01*
X159029400Y-108966000D02*
X158966000Y-108966000D01*
X159034000Y-108966000D02*
X163000000Y-105000000D01*
X159029400Y-108966000D02*
X159034000Y-108966000D01*
D40*
X161810700Y-112255300D02*
X158267400Y-111887000D01*
X159029400Y-108966000D02*
X159029400Y-111366250D01*
X159029400Y-111366250D02*
X158508650Y-111887000D01*
X158508650Y-111887000D02*
X158267400Y-111887000D01*
X149263100Y-112547700D02*
X149263100Y-111925100D01*
X149263100Y-111925100D02*
X149250400Y-111912400D01*
X149250400Y-111912400D02*
X153746200Y-111912400D01*
X153746200Y-111912400D02*
X153771600Y-111887000D01*
X149263100Y-113447700D02*
X149263100Y-112547700D01*
X149263100Y-112547700D02*
X149250400Y-112535000D01*
D36*
X158343600Y-111963200D02*
X158343600Y-112884200D01*
D40*
X153771600Y-113384200D02*
X153771600Y-111887000D01*
X158267400Y-111887000D02*
X158343600Y-111963200D01*
D38*
X154339190Y-76656591D02*
X155991600Y-78309000D01*
X154339190Y-74214890D02*
X154339190Y-76656591D01*
X155991600Y-78309000D02*
X155991600Y-78852000D01*
X154298290Y-74173990D02*
X154339190Y-74214890D01*
X145059010Y-74173990D02*
X154298290Y-74173990D01*
X145034000Y-75565000D02*
X145034000Y-74199000D01*
X145034000Y-74199000D02*
X145059010Y-74173990D01*
D40*
X134841000Y-101473000D02*
X134112000Y-121843800D01*
D36*
X132636600Y-123164600D02*
X132092700Y-123177300D01*
X128653200Y-123139200D02*
X131826000Y-123139200D01*
X160434400Y-123825000D02*
X158758000Y-125501400D01*
X160434400Y-123825000D02*
X161798000Y-123825000D01*
X158758000Y-125501400D02*
X134416800Y-125501400D01*
X132092700Y-123177300D02*
X134416800Y-125501400D01*
X132086600Y-123171200D02*
X132092700Y-123177300D01*
X131826000Y-123139200D02*
X132086600Y-123171200D01*
D40*
X123330000Y-77216000D02*
X122480000Y-77216000D01*
D38*
X125730000Y-77216000D02*
X126427198Y-77913198D01*
X123330000Y-77216000D02*
X125730000Y-77216000D01*
X126427198Y-77913198D02*
X126427198Y-78675198D01*
X126427198Y-78675198D02*
X137236200Y-78675198D01*
D40*
X156184600Y-83539200D02*
X155130500Y-80987730D01*
D36*
X155130500Y-80987730D02*
X154919779Y-80777009D01*
X154919779Y-80777009D02*
X154813713Y-80777009D01*
X155130500Y-80987730D02*
X155104930Y-80987730D01*
X154813713Y-80777009D02*
X154734567Y-80697863D01*
D38*
X154294769Y-80151999D02*
X154734567Y-80697863D01*
X153142200Y-80177010D02*
X153142200Y-80151999D01*
D41*
X152463608Y-80177010D02*
X153142200Y-80177010D01*
D38*
X154076400Y-80151999D02*
X153142200Y-80177010D01*
X153131799Y-80162400D02*
X153142200Y-80151999D01*
D41*
X151839398Y-79552800D02*
X152463608Y-80177010D01*
X151343800Y-79552800D02*
X151839398Y-79552800D01*
D38*
X151145000Y-79354000D02*
X151343800Y-79552800D01*
X151145000Y-78679000D02*
X151145000Y-79354000D01*
X151170400Y-78829400D02*
X151170400Y-78704400D01*
D39*
X150037800Y-82448400D02*
X150037800Y-83589200D01*
D38*
X150495000Y-77495400D02*
X150495000Y-78452800D01*
D41*
X150244630Y-77245030D02*
X150495000Y-77495400D01*
X149838230Y-77245030D02*
X148406182Y-77245030D01*
X149838230Y-77245030D02*
X150244630Y-77245030D01*
D40*
X147977182Y-78318032D02*
X147977182Y-77674030D01*
D38*
X148102182Y-77734030D02*
X147977182Y-77734030D01*
D41*
X148406182Y-77245030D02*
X147977182Y-77674030D01*
X147977182Y-77674030D02*
X147977182Y-77734030D01*
D40*
X148137149Y-78551999D02*
X148137149Y-78477999D01*
X148137149Y-78477999D02*
X147977182Y-78318032D01*
D36*
X148691427Y-79106277D02*
X148137149Y-78551999D01*
X148137149Y-78551999D02*
X147334600Y-78551999D01*
X148742400Y-79106277D02*
X148691427Y-79106277D01*
D39*
X148742400Y-81153000D02*
X148742400Y-79106277D01*
X150037800Y-82448400D02*
X148742400Y-81153000D01*
D36*
X153085800Y-78130400D02*
X152685801Y-77730401D01*
X149098000Y-123825000D02*
X149496272Y-122402600D01*
X149496272Y-122402600D02*
X149602952Y-122021600D01*
X149487805Y-122394133D02*
X149496272Y-122402600D01*
X149602952Y-122021600D02*
X149809200Y-121285000D01*
X152247600Y-82016600D02*
X152933400Y-82016600D01*
X151917400Y-81686400D02*
X152247600Y-82016600D01*
X152908000Y-81686400D02*
X151917400Y-81686400D01*
X153143001Y-81921401D02*
X152908000Y-81686400D01*
X153543000Y-81051400D02*
X153143001Y-81451399D01*
X153143001Y-81451399D02*
X153143001Y-81921401D01*
X152933400Y-82016600D02*
X152933400Y-83039200D01*
X153543000Y-81051400D02*
X153543000Y-82429600D01*
X153543000Y-82429600D02*
X152933400Y-83039200D01*
D38*
X152977315Y-81407000D02*
X151282400Y-81407000D01*
X153358315Y-81026000D02*
X152977315Y-81407000D01*
X153543000Y-81051400D02*
X153358315Y-81026000D01*
X151145000Y-81269600D02*
X151145000Y-80579000D01*
X151282400Y-81407000D02*
X151145000Y-81269600D01*
X152914600Y-83039200D02*
X151282400Y-81407000D01*
X152933400Y-83039200D02*
X152914600Y-83039200D01*
D37*
X153009600Y-84988400D02*
X155600400Y-84988400D01*
X147193000Y-84988400D02*
X153009600Y-84988400D01*
X152933400Y-83039200D02*
X152933400Y-84912200D01*
X152933400Y-84912200D02*
X153009600Y-84988400D01*
D36*
X152933400Y-83039200D02*
X152889200Y-83039200D01*
X152889200Y-83039200D02*
X152889200Y-82448200D01*
D38*
X153009600Y-79502000D02*
X152755600Y-79248000D01*
X154076400Y-79502000D02*
X153009600Y-79502000D01*
D36*
X146329400Y-79502000D02*
X146126200Y-79298800D01*
X147334600Y-79502000D02*
X146329400Y-79502000D01*
D38*
X178358800Y-88392000D02*
X178358800Y-91414600D01*
X177876200Y-87909400D02*
X178358800Y-88392000D01*
X177622200Y-87909400D02*
X177876200Y-87909400D01*
X170230800Y-87909400D02*
X172796200Y-87909400D01*
X172796200Y-87909400D02*
X173253400Y-87909400D01*
X172796200Y-87909400D02*
X177622200Y-87909400D01*
X173253400Y-87909400D02*
X174142400Y-88798400D01*
X169418000Y-88722200D02*
X170230800Y-87909400D01*
X169418000Y-91135200D02*
X169418000Y-88722200D01*
X169697400Y-91414600D02*
X169418000Y-91135200D01*
X170785100Y-91414600D02*
X169697400Y-91414600D01*
X171665900Y-91445400D02*
X170815900Y-91445400D01*
X170815900Y-91445400D02*
X170785100Y-91414600D01*
D36*
X152933400Y-83039200D02*
X152933400Y-83007200D01*
D38*
X153857199Y-78105000D02*
X153831799Y-78130400D01*
X153831799Y-78130400D02*
X153085800Y-78130400D01*
X154076400Y-78852001D02*
X154076400Y-78324201D01*
X154076400Y-78324201D02*
X153857199Y-78105000D01*
D36*
X152933400Y-83039200D02*
X152683400Y-83039200D01*
X152683400Y-83039200D02*
X152044400Y-82400200D01*
X149809200Y-121285000D02*
X149098000Y-121007293D01*
X146431401Y-120936184D02*
X146304000Y-120650000D01*
X146304000Y-120650000D02*
X146304000Y-120932787D01*
D35*
X149098000Y-121007293D02*
X146304000Y-120932787D01*
X146304000Y-120932787D02*
X146431401Y-120936184D01*
X146177000Y-120929400D02*
X146431401Y-120936184D01*
X146189700Y-110680500D02*
X146177000Y-120929400D01*
X146203499Y-91032501D02*
X146304000Y-90932000D01*
X146304000Y-90932000D02*
X158496000Y-90932000D01*
D38*
X147129500Y-83026500D02*
X147313400Y-83026500D01*
X149936200Y-88900000D02*
X150114000Y-88900000D01*
X149352000Y-88900000D02*
X149936200Y-88900000D01*
X161391600Y-85115400D02*
X161848800Y-85572600D01*
X161391600Y-84277200D02*
X161391600Y-85115400D01*
X162636200Y-83032600D02*
X161391600Y-84277200D01*
X162636200Y-82613500D02*
X162636200Y-83032600D01*
X167614600Y-85039200D02*
X171893291Y-85039200D01*
D36*
X174218600Y-85318600D02*
X172364400Y-84568091D01*
D38*
X164007800Y-86106000D02*
X166547800Y-86106000D01*
D36*
X172364400Y-84568091D02*
X172085000Y-84455000D01*
D38*
X161848800Y-85572600D02*
X163474400Y-85572600D01*
X163474400Y-85572600D02*
X164007800Y-86106000D01*
X166547800Y-86106000D02*
X167614600Y-85039200D01*
X171893291Y-85039200D02*
X172364400Y-84568091D01*
D36*
X115000000Y-80000000D02*
X114000000Y-80000000D01*
X113000000Y-79000000D02*
X113000000Y-77000000D01*
X114000000Y-80000000D02*
X113000000Y-79000000D01*
X149263100Y-116947700D02*
X149275800Y-114935000D01*
X174218600Y-85318600D02*
X175323500Y-84582000D01*
X175514000Y-84010500D02*
X174066200Y-82600800D01*
X175323500Y-84582000D02*
X175514000Y-84010500D01*
X174233800Y-86845900D02*
X174218600Y-85318600D01*
X172085000Y-84455000D02*
X170256200Y-82600800D01*
X151168100Y-118122700D02*
X150104165Y-119232893D01*
X151511000Y-116967000D02*
X151168100Y-118122700D01*
X153771600Y-116884200D02*
X152755600Y-120370600D01*
X149263100Y-116947700D02*
X149263100Y-118872000D01*
X149263100Y-118872000D02*
X150104165Y-119232893D01*
X150104165Y-119232893D02*
X152755600Y-120370600D01*
D38*
X158343600Y-116566700D02*
X158343600Y-114947700D01*
X156083000Y-116586000D02*
X156057600Y-115201700D01*
X156057600Y-115201700D02*
X156311600Y-114947700D01*
X156311600Y-114947700D02*
X158343600Y-114947700D01*
D36*
X149250400Y-98933000D02*
X151815800Y-101396800D01*
X159054800Y-106400600D02*
X159029400Y-104597200D01*
X159054800Y-106400600D02*
X159029400Y-108966000D01*
X151815800Y-101396800D02*
X159029400Y-104597200D01*
X175641000Y-95529400D02*
X171649044Y-95529400D01*
X171649044Y-95529400D02*
X171649044Y-95529396D01*
X166786635Y-101402343D02*
X169926000Y-97917000D01*
X169926000Y-97917000D02*
X171640500Y-98048885D01*
X166814500Y-101409500D02*
X166786635Y-101402343D01*
X166786635Y-101402343D02*
X164490400Y-100812600D01*
X168560750Y-105505250D02*
X166814500Y-101409500D01*
X164490400Y-100812600D02*
X161594800Y-100863400D01*
D38*
X149860000Y-79659002D02*
X149860000Y-80718800D01*
X149860000Y-80718800D02*
X149849800Y-80729000D01*
X144272000Y-95681800D02*
X144272000Y-94411800D01*
D36*
X147334600Y-80452001D02*
X146161801Y-80452001D01*
X146161801Y-80452001D02*
X146151600Y-80441800D01*
D39*
X150037800Y-83039200D02*
X150037800Y-82448400D01*
D38*
X150037800Y-82889200D02*
X150037800Y-83039200D01*
X149849800Y-82851200D02*
X150037800Y-83039200D01*
X154076400Y-80151999D02*
X154294769Y-80151999D01*
X162636200Y-78803500D02*
X160786330Y-78803500D01*
X160786330Y-78803500D02*
X160336330Y-78803500D01*
D39*
X159197301Y-78803500D02*
X160336330Y-78803500D01*
D38*
X154076400Y-80151999D02*
X153670000Y-80151999D01*
D41*
X139135401Y-77247199D02*
X144231600Y-77247199D01*
D39*
X138654000Y-77728600D02*
X139135401Y-77247199D01*
X138654000Y-77876400D02*
X138654000Y-77728600D01*
D38*
X144754600Y-77770199D02*
X144456600Y-77472199D01*
X144932400Y-77947999D02*
X144754600Y-77770199D01*
D39*
X144231600Y-77247199D02*
X144754600Y-77770199D01*
X144231600Y-77247199D02*
X144456600Y-77472199D01*
D38*
X153771600Y-114947700D02*
X153771600Y-116566700D01*
X152654000Y-88900000D02*
X152704800Y-88849200D01*
X152704800Y-88849200D02*
X152704800Y-87013800D01*
X151892000Y-88900000D02*
X152654000Y-88900000D01*
X150114000Y-88900000D02*
X151892000Y-88900000D01*
D36*
X171665900Y-91445400D02*
X171649044Y-95529396D01*
X171649044Y-95529396D02*
X171640500Y-97599500D01*
X171640500Y-97599500D02*
X171640500Y-98048885D01*
D38*
X161798000Y-112268000D02*
X161810700Y-112255300D01*
X161798000Y-112890631D02*
X161798000Y-112268000D01*
X168560750Y-105505250D02*
X168605200Y-105460800D01*
X156718000Y-123825000D02*
X161798000Y-118872000D01*
X161798000Y-118872000D02*
X161798000Y-112890631D01*
X154876500Y-73621900D02*
X154889200Y-73634600D01*
X154363091Y-73621900D02*
X154876500Y-73621900D01*
X154361011Y-73623980D02*
X154363091Y-73621900D01*
X140529020Y-73623980D02*
X154361011Y-73623980D01*
X139954000Y-74199000D02*
X140529020Y-73623980D01*
X139954000Y-75565000D02*
X139954000Y-74199000D01*
X154889200Y-73634600D02*
X154889200Y-76428770D01*
X154889200Y-76428770D02*
X156565430Y-78105000D01*
X156941000Y-79502000D02*
X156006800Y-79502000D01*
X156565430Y-78105000D02*
X156984700Y-78105000D01*
X156984700Y-78105000D02*
X157149800Y-78270100D01*
X157149800Y-79293200D02*
X156941000Y-79502000D01*
X157149800Y-78270100D02*
X157149800Y-79293200D01*
X139954000Y-75565000D02*
X140589941Y-75565000D01*
X155991801Y-78867000D02*
X156006800Y-78852001D01*
X143560800Y-80162400D02*
X143560800Y-81188560D01*
X143560800Y-81188560D02*
X134841000Y-101473000D01*
X142899800Y-78872200D02*
X143560800Y-78865087D01*
X142899800Y-79522200D02*
X143560800Y-79529313D01*
X142899800Y-78222200D02*
X143560800Y-78232000D01*
X143560800Y-78232000D02*
X143560800Y-78865087D01*
X143560800Y-80162400D02*
X142899800Y-80172200D01*
X143560800Y-78865087D02*
X143560800Y-79529313D01*
X143560800Y-79529313D02*
X143560800Y-80162400D01*
X142875000Y-83845400D02*
X141639800Y-82610200D01*
X141639800Y-82610200D02*
X141639800Y-79197200D01*
X142875000Y-94411800D02*
X142875000Y-85293200D01*
X142899800Y-78872200D02*
X141964800Y-78872200D01*
X141964800Y-78872200D02*
X141639800Y-79197200D01*
D37*
X155600400Y-84988400D02*
X157926600Y-84988400D01*
D35*
X158952000Y-90272800D02*
X158952000Y-86013800D01*
X158496000Y-90932000D02*
X158496000Y-90728800D01*
X158496000Y-90728800D02*
X158952000Y-90272800D01*
D37*
X157926600Y-84988400D02*
X158952000Y-86013800D01*
X147040600Y-84836000D02*
X147193000Y-84988400D01*
X147129500Y-83026500D02*
X147040600Y-84836000D01*
D35*
X158496000Y-90932000D02*
X159004000Y-90932000D01*
D38*
X161798000Y-75565000D02*
X161798000Y-75412600D01*
X161798000Y-75412600D02*
X163586618Y-73623982D01*
X176133800Y-86045900D02*
X176133800Y-86845900D01*
X163586618Y-73623982D02*
X175238871Y-73623982D01*
X176286620Y-74671730D02*
X176286620Y-85893080D01*
X175238871Y-73623982D02*
X176286620Y-74671730D01*
X176286620Y-85893080D02*
X176133800Y-86045900D01*
X166446200Y-78790800D02*
X166446200Y-77825600D01*
X166446200Y-77825600D02*
X164338000Y-75717400D01*
X164338000Y-75717400D02*
X164338000Y-75565000D01*
X170256200Y-78651100D02*
X167170100Y-75565000D01*
X170256200Y-78790800D02*
X170256200Y-78651100D01*
X167170100Y-75565000D02*
X166878000Y-75565000D01*
X166878000Y-75717400D02*
X166878000Y-75565000D01*
X169418000Y-75565000D02*
X170053941Y-75565000D01*
X170053941Y-75565000D02*
X171444951Y-74173990D01*
X171444951Y-74173990D02*
X175011049Y-74173990D01*
X175011049Y-74173990D02*
X175736610Y-74899551D01*
X175736610Y-74899551D02*
X175736610Y-77120390D01*
X175736610Y-77120390D02*
X174066200Y-78790800D01*
X162655000Y-78899000D02*
X162814000Y-78740000D01*
X137973801Y-79412799D02*
X137236200Y-78675198D01*
X138689200Y-78872200D02*
X137433202Y-78872200D01*
X137433202Y-78872200D02*
X137236200Y-78675198D01*
X138654000Y-77876400D02*
X138654000Y-78837000D01*
X138654000Y-78837000D02*
X138689200Y-78872200D01*
X145677999Y-77202999D02*
X145677698Y-77203300D01*
X138654000Y-77876400D02*
X138999800Y-78222200D01*
X144932400Y-78551999D02*
X144932400Y-77947999D01*
X139734800Y-78222200D02*
X138999800Y-78222200D01*
D39*
X156718000Y-75565000D02*
X156718000Y-75717400D01*
X147129500Y-83026500D02*
X147859500Y-83026500D01*
D36*
X146651299Y-83026500D02*
X147129500Y-83026500D01*
D38*
X125203200Y-123139200D02*
X123240800Y-123139200D01*
X149199600Y-114947700D02*
X153771600Y-114947700D01*
X149098000Y-123825000D02*
X148844000Y-123825000D01*
X149098000Y-123825000D02*
X149352000Y-123825000D01*
X151638000Y-123825000D02*
X151638000Y-123761500D01*
X152755600Y-120370600D02*
X152971500Y-120154700D01*
D36*
X154178000Y-123825000D02*
X154178000Y-123761500D01*
D38*
X153860500Y-123825000D02*
X154178000Y-123825000D01*
D36*
X152755600Y-123825000D02*
X152654000Y-123825000D01*
X153238200Y-123825000D02*
X154178000Y-123825000D01*
X154178000Y-123825000D02*
X154330400Y-123672600D01*
X154330400Y-123672600D02*
X154330400Y-122783600D01*
X154330400Y-122783600D02*
X154787600Y-122326400D01*
X152755600Y-120370600D02*
X152755600Y-120396000D01*
X152755600Y-120396000D02*
X150926800Y-122224800D01*
X150926800Y-123113800D02*
X151638000Y-123825000D01*
X150926800Y-122224800D02*
X150926800Y-123113800D01*
X151638000Y-123825000D02*
X152654000Y-123825000D01*
X152654000Y-123825000D02*
X153238200Y-123825000D01*
X153238200Y-123825000D02*
X153289000Y-123825000D01*
X154787600Y-122326400D02*
X154711400Y-122326400D01*
X154711400Y-122326400D02*
X152755600Y-120370600D01*
D38*
X156718000Y-123825000D02*
X157378400Y-123825000D01*
D36*
X167894000Y-121519000D02*
X167894000Y-122301000D01*
X167894000Y-122301000D02*
X169418000Y-123825000D01*
D38*
X139954000Y-75946000D02*
X139954000Y-75565000D01*
X139954000Y-75717400D02*
X139954000Y-75565000D01*
X139954000Y-75565000D02*
X139979400Y-75565000D01*
X145034000Y-75565000D02*
X145669941Y-75565000D01*
X145034000Y-75565000D02*
X145034000Y-75412600D01*
X156006800Y-80151999D02*
X155072600Y-80151999D01*
X155072600Y-80151999D02*
X155035601Y-80115000D01*
X155035601Y-80115000D02*
X155035601Y-78374200D01*
X155035601Y-78374200D02*
X153617411Y-76956010D01*
X153617411Y-76956010D02*
X151352610Y-76956010D01*
X151352610Y-76956010D02*
X150114000Y-75717400D01*
X150114000Y-75717400D02*
X150114000Y-75565000D01*
X152654000Y-75565000D02*
X152654000Y-75692000D01*
D36*
X171958000Y-121519000D02*
X171958000Y-123825000D01*
X172212000Y-123571000D02*
X171958000Y-123825000D01*
X176022000Y-116332000D02*
X176022000Y-119019000D01*
X176022000Y-121519000D02*
X176022000Y-122301000D01*
X176022000Y-122301000D02*
X174498000Y-123825000D01*
X171958000Y-116332000D02*
X171958000Y-119019000D01*
X167894000Y-116332000D02*
X167894000Y-119019000D01*
D38*
X138684000Y-80187800D02*
X137388600Y-80187800D01*
X137388600Y-80187800D02*
X137236200Y-80340200D01*
X139734800Y-79522200D02*
X139165402Y-79522200D01*
X139165402Y-79522200D02*
X139056001Y-79412799D01*
X139056001Y-79412799D02*
X137973801Y-79412799D01*
X138689200Y-78872200D02*
X138684000Y-78867000D01*
X139734800Y-78872200D02*
X138689200Y-78872200D01*
X139734800Y-80172200D02*
X138699600Y-80172200D01*
X138699600Y-80172200D02*
X138684000Y-80187800D01*
D36*
X175183800Y-91732100D02*
X173037500Y-88963500D01*
X173037500Y-88963500D02*
X171665900Y-88945400D01*
X175183800Y-91732100D02*
X175183800Y-88845900D01*
D42*
G36*
X151765000Y-123698000D02*
X154051000Y-123698000D01*
X154051000Y-123678000D01*
X154305000Y-123678000D01*
X154305000Y-123698000D01*
X154325000Y-123698000D01*
X154325000Y-123952000D01*
X154305000Y-123952000D01*
X154305000Y-123972000D01*
X154051000Y-123972000D01*
X154051000Y-123952000D01*
X151765000Y-123952000D01*
X151765000Y-123972000D01*
X151511000Y-123972000D01*
X151511000Y-123952000D01*
X151491000Y-123952000D01*
X151491000Y-123698000D01*
X151511000Y-123698000D01*
X151511000Y-123678000D01*
X151765000Y-123678000D01*
X151765000Y-123698000D01*
X151765000Y-123698000D01*
G37*
X151765000Y-123698000D02*
X154051000Y-123698000D01*
X154051000Y-123678000D01*
X154305000Y-123678000D01*
X154305000Y-123698000D01*
X154325000Y-123698000D01*
X154325000Y-123952000D01*
X154305000Y-123952000D01*
X154305000Y-123972000D01*
X154051000Y-123972000D01*
X154051000Y-123952000D01*
X151765000Y-123952000D01*
X151765000Y-123972000D01*
X151511000Y-123972000D01*
X151511000Y-123952000D01*
X151491000Y-123952000D01*
X151491000Y-123698000D01*
X151511000Y-123698000D01*
X151511000Y-123678000D01*
X151765000Y-123678000D01*
X151765000Y-123698000D01*
G36*
X152521600Y-114531640D02*
X155021600Y-114531640D01*
X155228427Y-114490500D01*
X156886773Y-114490500D01*
X157093600Y-114531640D01*
X159593600Y-114531640D01*
X159702500Y-114509979D01*
X159702500Y-115249200D01*
X158629350Y-115249200D01*
X158470600Y-115407950D01*
X158470600Y-116257200D01*
X158490600Y-116257200D01*
X158490600Y-116511200D01*
X158470600Y-116511200D01*
X158470600Y-117360450D01*
X158629350Y-117519200D01*
X159702500Y-117519200D01*
X159702500Y-119188721D01*
X155672296Y-119164102D01*
X155623637Y-119173473D01*
X155582268Y-119200751D01*
X155554486Y-119241783D01*
X155544521Y-119291504D01*
X155555469Y-122734528D01*
X155451539Y-122890069D01*
X155080036Y-122474268D01*
X154552791Y-122220291D01*
X154537026Y-122217642D01*
X154436805Y-122269967D01*
X154451197Y-122245802D01*
X152755600Y-120550205D01*
X151060003Y-122245802D01*
X151093497Y-122302042D01*
X150735964Y-122474268D01*
X150733000Y-122477585D01*
X150733000Y-121978413D01*
X150880398Y-122066197D01*
X152575995Y-120370600D01*
X152935205Y-120370600D01*
X154630802Y-122066197D01*
X155001549Y-121845397D01*
X155394967Y-120873647D01*
X155386565Y-119825313D01*
X155001549Y-118895803D01*
X154630802Y-118675003D01*
X152935205Y-120370600D01*
X152575995Y-120370600D01*
X150880398Y-118675003D01*
X150509651Y-118895803D01*
X150150811Y-119782144D01*
X150006678Y-119685838D01*
X149763731Y-119513966D01*
X149742117Y-119509064D01*
X149723687Y-119496750D01*
X149431804Y-119438691D01*
X149141584Y-119372874D01*
X147813974Y-119337471D01*
X147815017Y-118495398D01*
X151060003Y-118495398D01*
X152755600Y-120190995D01*
X154451197Y-118495398D01*
X154230397Y-118124651D01*
X153258647Y-117731233D01*
X152210313Y-117739635D01*
X151280803Y-118124651D01*
X151060003Y-118495398D01*
X147815017Y-118495398D01*
X147816185Y-117553454D01*
X147886790Y-117582700D01*
X148977350Y-117582700D01*
X149136100Y-117423950D01*
X149136100Y-116574700D01*
X149390100Y-116574700D01*
X149390100Y-117423950D01*
X149548850Y-117582700D01*
X150639410Y-117582700D01*
X150872799Y-117486027D01*
X151051427Y-117307398D01*
X151148100Y-117074009D01*
X151148100Y-116733450D01*
X151084600Y-116669950D01*
X151886600Y-116669950D01*
X151886600Y-117010509D01*
X151983273Y-117243898D01*
X152161901Y-117422527D01*
X152395290Y-117519200D01*
X153485850Y-117519200D01*
X153644600Y-117360450D01*
X153644600Y-116511200D01*
X153898600Y-116511200D01*
X153898600Y-117360450D01*
X154057350Y-117519200D01*
X155147910Y-117519200D01*
X155381299Y-117422527D01*
X155559927Y-117243898D01*
X155656600Y-117010509D01*
X155656600Y-116669950D01*
X156458600Y-116669950D01*
X156458600Y-117010509D01*
X156555273Y-117243898D01*
X156733901Y-117422527D01*
X156967290Y-117519200D01*
X158057850Y-117519200D01*
X158216600Y-117360450D01*
X158216600Y-116511200D01*
X156617350Y-116511200D01*
X156458600Y-116669950D01*
X155656600Y-116669950D01*
X155497850Y-116511200D01*
X153898600Y-116511200D01*
X153644600Y-116511200D01*
X152045350Y-116511200D01*
X151886600Y-116669950D01*
X151084600Y-116669950D01*
X150989350Y-116574700D01*
X149390100Y-116574700D01*
X149136100Y-116574700D01*
X149116100Y-116574700D01*
X149116100Y-116320700D01*
X149136100Y-116320700D01*
X149136100Y-115471450D01*
X149390100Y-115471450D01*
X149390100Y-116320700D01*
X150989350Y-116320700D01*
X151148100Y-116161950D01*
X151148100Y-115821391D01*
X151121798Y-115757891D01*
X151886600Y-115757891D01*
X151886600Y-116098450D01*
X152045350Y-116257200D01*
X153644600Y-116257200D01*
X153644600Y-115407950D01*
X153898600Y-115407950D01*
X153898600Y-116257200D01*
X155497850Y-116257200D01*
X155656600Y-116098450D01*
X155656600Y-115757891D01*
X156458600Y-115757891D01*
X156458600Y-116098450D01*
X156617350Y-116257200D01*
X158216600Y-116257200D01*
X158216600Y-115407950D01*
X158057850Y-115249200D01*
X156967290Y-115249200D01*
X156733901Y-115345873D01*
X156555273Y-115524502D01*
X156458600Y-115757891D01*
X155656600Y-115757891D01*
X155559927Y-115524502D01*
X155381299Y-115345873D01*
X155147910Y-115249200D01*
X154057350Y-115249200D01*
X153898600Y-115407950D01*
X153644600Y-115407950D01*
X153485850Y-115249200D01*
X152395290Y-115249200D01*
X152161901Y-115345873D01*
X151983273Y-115524502D01*
X151886600Y-115757891D01*
X151121798Y-115757891D01*
X151051427Y-115588002D01*
X150872799Y-115409373D01*
X150639410Y-115312700D01*
X149548850Y-115312700D01*
X149390100Y-115471450D01*
X149136100Y-115471450D01*
X148977350Y-115312700D01*
X147886790Y-115312700D01*
X147818927Y-115340810D01*
X147819898Y-114556710D01*
X148013100Y-114595140D01*
X150513100Y-114595140D01*
X150760865Y-114545857D01*
X150843712Y-114490500D01*
X152314773Y-114490500D01*
X152521600Y-114531640D01*
X152521600Y-114531640D01*
G37*
X152521600Y-114531640D02*
X155021600Y-114531640D01*
X155228427Y-114490500D01*
X156886773Y-114490500D01*
X157093600Y-114531640D01*
X159593600Y-114531640D01*
X159702500Y-114509979D01*
X159702500Y-115249200D01*
X158629350Y-115249200D01*
X158470600Y-115407950D01*
X158470600Y-116257200D01*
X158490600Y-116257200D01*
X158490600Y-116511200D01*
X158470600Y-116511200D01*
X158470600Y-117360450D01*
X158629350Y-117519200D01*
X159702500Y-117519200D01*
X159702500Y-119188721D01*
X155672296Y-119164102D01*
X155623637Y-119173473D01*
X155582268Y-119200751D01*
X155554486Y-119241783D01*
X155544521Y-119291504D01*
X155555469Y-122734528D01*
X155451539Y-122890069D01*
X155080036Y-122474268D01*
X154552791Y-122220291D01*
X154537026Y-122217642D01*
X154436805Y-122269967D01*
X154451197Y-122245802D01*
X152755600Y-120550205D01*
X151060003Y-122245802D01*
X151093497Y-122302042D01*
X150735964Y-122474268D01*
X150733000Y-122477585D01*
X150733000Y-121978413D01*
X150880398Y-122066197D01*
X152575995Y-120370600D01*
X152935205Y-120370600D01*
X154630802Y-122066197D01*
X155001549Y-121845397D01*
X155394967Y-120873647D01*
X155386565Y-119825313D01*
X155001549Y-118895803D01*
X154630802Y-118675003D01*
X152935205Y-120370600D01*
X152575995Y-120370600D01*
X150880398Y-118675003D01*
X150509651Y-118895803D01*
X150150811Y-119782144D01*
X150006678Y-119685838D01*
X149763731Y-119513966D01*
X149742117Y-119509064D01*
X149723687Y-119496750D01*
X149431804Y-119438691D01*
X149141584Y-119372874D01*
X147813974Y-119337471D01*
X147815017Y-118495398D01*
X151060003Y-118495398D01*
X152755600Y-120190995D01*
X154451197Y-118495398D01*
X154230397Y-118124651D01*
X153258647Y-117731233D01*
X152210313Y-117739635D01*
X151280803Y-118124651D01*
X151060003Y-118495398D01*
X147815017Y-118495398D01*
X147816185Y-117553454D01*
X147886790Y-117582700D01*
X148977350Y-117582700D01*
X149136100Y-117423950D01*
X149136100Y-116574700D01*
X149390100Y-116574700D01*
X149390100Y-117423950D01*
X149548850Y-117582700D01*
X150639410Y-117582700D01*
X150872799Y-117486027D01*
X151051427Y-117307398D01*
X151148100Y-117074009D01*
X151148100Y-116733450D01*
X151084600Y-116669950D01*
X151886600Y-116669950D01*
X151886600Y-117010509D01*
X151983273Y-117243898D01*
X152161901Y-117422527D01*
X152395290Y-117519200D01*
X153485850Y-117519200D01*
X153644600Y-117360450D01*
X153644600Y-116511200D01*
X153898600Y-116511200D01*
X153898600Y-117360450D01*
X154057350Y-117519200D01*
X155147910Y-117519200D01*
X155381299Y-117422527D01*
X155559927Y-117243898D01*
X155656600Y-117010509D01*
X155656600Y-116669950D01*
X156458600Y-116669950D01*
X156458600Y-117010509D01*
X156555273Y-117243898D01*
X156733901Y-117422527D01*
X156967290Y-117519200D01*
X158057850Y-117519200D01*
X158216600Y-117360450D01*
X158216600Y-116511200D01*
X156617350Y-116511200D01*
X156458600Y-116669950D01*
X155656600Y-116669950D01*
X155497850Y-116511200D01*
X153898600Y-116511200D01*
X153644600Y-116511200D01*
X152045350Y-116511200D01*
X151886600Y-116669950D01*
X151084600Y-116669950D01*
X150989350Y-116574700D01*
X149390100Y-116574700D01*
X149136100Y-116574700D01*
X149116100Y-116574700D01*
X149116100Y-116320700D01*
X149136100Y-116320700D01*
X149136100Y-115471450D01*
X149390100Y-115471450D01*
X149390100Y-116320700D01*
X150989350Y-116320700D01*
X151148100Y-116161950D01*
X151148100Y-115821391D01*
X151121798Y-115757891D01*
X151886600Y-115757891D01*
X151886600Y-116098450D01*
X152045350Y-116257200D01*
X153644600Y-116257200D01*
X153644600Y-115407950D01*
X153898600Y-115407950D01*
X153898600Y-116257200D01*
X155497850Y-116257200D01*
X155656600Y-116098450D01*
X155656600Y-115757891D01*
X156458600Y-115757891D01*
X156458600Y-116098450D01*
X156617350Y-116257200D01*
X158216600Y-116257200D01*
X158216600Y-115407950D01*
X158057850Y-115249200D01*
X156967290Y-115249200D01*
X156733901Y-115345873D01*
X156555273Y-115524502D01*
X156458600Y-115757891D01*
X155656600Y-115757891D01*
X155559927Y-115524502D01*
X155381299Y-115345873D01*
X155147910Y-115249200D01*
X154057350Y-115249200D01*
X153898600Y-115407950D01*
X153644600Y-115407950D01*
X153485850Y-115249200D01*
X152395290Y-115249200D01*
X152161901Y-115345873D01*
X151983273Y-115524502D01*
X151886600Y-115757891D01*
X151121798Y-115757891D01*
X151051427Y-115588002D01*
X150872799Y-115409373D01*
X150639410Y-115312700D01*
X149548850Y-115312700D01*
X149390100Y-115471450D01*
X149136100Y-115471450D01*
X148977350Y-115312700D01*
X147886790Y-115312700D01*
X147818927Y-115340810D01*
X147819898Y-114556710D01*
X148013100Y-114595140D01*
X150513100Y-114595140D01*
X150760865Y-114545857D01*
X150843712Y-114490500D01*
X152314773Y-114490500D01*
X152521600Y-114531640D01*
G36*
X118999000Y-119913400D02*
X119047336Y-120156404D01*
X119184987Y-120362413D01*
X119390996Y-120500064D01*
X119634000Y-120548400D01*
X125356057Y-120548400D01*
X125368361Y-121654200D01*
X125176891Y-121654200D01*
X124943502Y-121750873D01*
X124764873Y-121929501D01*
X124668200Y-122162890D01*
X124668200Y-122853450D01*
X124826950Y-123012200D01*
X125383471Y-123012200D01*
X125386297Y-123266200D01*
X124826950Y-123266200D01*
X124668200Y-123424950D01*
X124668200Y-124115510D01*
X124764873Y-124348899D01*
X124943502Y-124527527D01*
X125176891Y-124624200D01*
X125401406Y-124624200D01*
X125412875Y-125655000D01*
X111708000Y-125655000D01*
X111708000Y-73735000D01*
X118999000Y-73735000D01*
X118999000Y-119913400D01*
X118999000Y-119913400D01*
G37*
X118999000Y-119913400D02*
X119047336Y-120156404D01*
X119184987Y-120362413D01*
X119390996Y-120500064D01*
X119634000Y-120548400D01*
X125356057Y-120548400D01*
X125368361Y-121654200D01*
X125176891Y-121654200D01*
X124943502Y-121750873D01*
X124764873Y-121929501D01*
X124668200Y-122162890D01*
X124668200Y-122853450D01*
X124826950Y-123012200D01*
X125383471Y-123012200D01*
X125386297Y-123266200D01*
X124826950Y-123266200D01*
X124668200Y-123424950D01*
X124668200Y-124115510D01*
X124764873Y-124348899D01*
X124943502Y-124527527D01*
X125176891Y-124624200D01*
X125401406Y-124624200D01*
X125412875Y-125655000D01*
X111708000Y-125655000D01*
X111708000Y-73735000D01*
X118999000Y-73735000D01*
X118999000Y-119913400D01*
G36*
X142063078Y-80027425D02*
X142112339Y-80308111D01*
X142251501Y-80513102D01*
X142458516Y-80649234D01*
X142701869Y-80695783D01*
X143457560Y-80690226D01*
X143457560Y-80702001D01*
X143506843Y-80949766D01*
X143647191Y-81159810D01*
X143857235Y-81300158D01*
X143975893Y-81323760D01*
X144035788Y-81413400D01*
X144078010Y-81476590D01*
X144179347Y-81577927D01*
X144236797Y-81866745D01*
X144482834Y-82234966D01*
X145008350Y-82760482D01*
X145008225Y-84081746D01*
X145056098Y-84323687D01*
X145193354Y-84529959D01*
X145352923Y-84637021D01*
X145346987Y-84640987D01*
X145209336Y-84846996D01*
X145161000Y-85090000D01*
X145161000Y-89408000D01*
X145209336Y-89651004D01*
X145248052Y-89708947D01*
X145147880Y-89775880D01*
X145033580Y-89890180D01*
X144679157Y-90420612D01*
X144554699Y-91046300D01*
X144554700Y-91046305D01*
X144554700Y-110679281D01*
X144543091Y-120047787D01*
X143674484Y-120047787D01*
X143674479Y-120047786D01*
X143335804Y-120115154D01*
X143048689Y-120306997D01*
X143048687Y-120307000D01*
X142244486Y-121111200D01*
X137655005Y-121111200D01*
X137655000Y-121111199D01*
X137316325Y-121178567D01*
X137029210Y-121370410D01*
X137029208Y-121370413D01*
X136483831Y-121915790D01*
X136444409Y-121856791D01*
X136234365Y-121716443D01*
X135986600Y-121667160D01*
X135086600Y-121667160D01*
X134838835Y-121716443D01*
X134628791Y-121856791D01*
X134488443Y-122066835D01*
X134439160Y-122314600D01*
X134439160Y-124014600D01*
X134488443Y-124262365D01*
X134607451Y-124440472D01*
X133734040Y-123567060D01*
X133734040Y-122314600D01*
X133684757Y-122066835D01*
X133544409Y-121856791D01*
X133334365Y-121716443D01*
X133086600Y-121667160D01*
X132186600Y-121667160D01*
X131938835Y-121716443D01*
X131728791Y-121856791D01*
X131588443Y-122066835D01*
X131551174Y-122254200D01*
X129743678Y-122254200D01*
X129701357Y-122041435D01*
X129561009Y-121831391D01*
X129350965Y-121691043D01*
X129103200Y-121641760D01*
X128203200Y-121641760D01*
X127955435Y-121691043D01*
X127745391Y-121831391D01*
X127605043Y-122041435D01*
X127555760Y-122289200D01*
X127555760Y-123989200D01*
X127605043Y-124236965D01*
X127745391Y-124447009D01*
X127955435Y-124587357D01*
X128203200Y-124636640D01*
X129103200Y-124636640D01*
X129350965Y-124587357D01*
X129561009Y-124447009D01*
X129701357Y-124236965D01*
X129743678Y-124024200D01*
X131541070Y-124024200D01*
X131588443Y-124262365D01*
X131728791Y-124472409D01*
X131938835Y-124612757D01*
X132186600Y-124662040D01*
X132325860Y-124662040D01*
X133318821Y-125655000D01*
X126174922Y-125655000D01*
X126168408Y-125069505D01*
X126325956Y-124911957D01*
X126418641Y-124773244D01*
X126501542Y-124649174D01*
X126523476Y-124538907D01*
X126661009Y-124447009D01*
X126801357Y-124236965D01*
X126850640Y-123989200D01*
X126850640Y-122289200D01*
X126801357Y-122041435D01*
X126661009Y-121831391D01*
X126523476Y-121739493D01*
X126501542Y-121629226D01*
X126376040Y-121441400D01*
X126325956Y-121366443D01*
X126124970Y-121165458D01*
X126110961Y-119906335D01*
X126085161Y-119777455D01*
X125960680Y-81561836D01*
X136665045Y-81602691D01*
X136959498Y-81724959D01*
X137510485Y-81725440D01*
X137797103Y-81607012D01*
X139341868Y-81612908D01*
X139582690Y-81566463D01*
X139789771Y-81430432D01*
X139929033Y-81225508D01*
X139972698Y-81014640D01*
X140119800Y-81014640D01*
X140367565Y-80965357D01*
X140577609Y-80825009D01*
X140717957Y-80614965D01*
X140767240Y-80367200D01*
X140767240Y-79977200D01*
X140741382Y-79847200D01*
X140767240Y-79717200D01*
X140767240Y-79327200D01*
X140741382Y-79197200D01*
X140767240Y-79067200D01*
X140767240Y-78677200D01*
X140741382Y-78547200D01*
X140767240Y-78417200D01*
X140767240Y-78328329D01*
X142154114Y-78297736D01*
X142063078Y-80027425D01*
X142063078Y-80027425D01*
G37*
X142063078Y-80027425D02*
X142112339Y-80308111D01*
X142251501Y-80513102D01*
X142458516Y-80649234D01*
X142701869Y-80695783D01*
X143457560Y-80690226D01*
X143457560Y-80702001D01*
X143506843Y-80949766D01*
X143647191Y-81159810D01*
X143857235Y-81300158D01*
X143975893Y-81323760D01*
X144035788Y-81413400D01*
X144078010Y-81476590D01*
X144179347Y-81577927D01*
X144236797Y-81866745D01*
X144482834Y-82234966D01*
X145008350Y-82760482D01*
X145008225Y-84081746D01*
X145056098Y-84323687D01*
X145193354Y-84529959D01*
X145352923Y-84637021D01*
X145346987Y-84640987D01*
X145209336Y-84846996D01*
X145161000Y-85090000D01*
X145161000Y-89408000D01*
X145209336Y-89651004D01*
X145248052Y-89708947D01*
X145147880Y-89775880D01*
X145033580Y-89890180D01*
X144679157Y-90420612D01*
X144554699Y-91046300D01*
X144554700Y-91046305D01*
X144554700Y-110679281D01*
X144543091Y-120047787D01*
X143674484Y-120047787D01*
X143674479Y-120047786D01*
X143335804Y-120115154D01*
X143048689Y-120306997D01*
X143048687Y-120307000D01*
X142244486Y-121111200D01*
X137655005Y-121111200D01*
X137655000Y-121111199D01*
X137316325Y-121178567D01*
X137029210Y-121370410D01*
X137029208Y-121370413D01*
X136483831Y-121915790D01*
X136444409Y-121856791D01*
X136234365Y-121716443D01*
X135986600Y-121667160D01*
X135086600Y-121667160D01*
X134838835Y-121716443D01*
X134628791Y-121856791D01*
X134488443Y-122066835D01*
X134439160Y-122314600D01*
X134439160Y-124014600D01*
X134488443Y-124262365D01*
X134607451Y-124440472D01*
X133734040Y-123567060D01*
X133734040Y-122314600D01*
X133684757Y-122066835D01*
X133544409Y-121856791D01*
X133334365Y-121716443D01*
X133086600Y-121667160D01*
X132186600Y-121667160D01*
X131938835Y-121716443D01*
X131728791Y-121856791D01*
X131588443Y-122066835D01*
X131551174Y-122254200D01*
X129743678Y-122254200D01*
X129701357Y-122041435D01*
X129561009Y-121831391D01*
X129350965Y-121691043D01*
X129103200Y-121641760D01*
X128203200Y-121641760D01*
X127955435Y-121691043D01*
X127745391Y-121831391D01*
X127605043Y-122041435D01*
X127555760Y-122289200D01*
X127555760Y-123989200D01*
X127605043Y-124236965D01*
X127745391Y-124447009D01*
X127955435Y-124587357D01*
X128203200Y-124636640D01*
X129103200Y-124636640D01*
X129350965Y-124587357D01*
X129561009Y-124447009D01*
X129701357Y-124236965D01*
X129743678Y-124024200D01*
X131541070Y-124024200D01*
X131588443Y-124262365D01*
X131728791Y-124472409D01*
X131938835Y-124612757D01*
X132186600Y-124662040D01*
X132325860Y-124662040D01*
X133318821Y-125655000D01*
X126174922Y-125655000D01*
X126168408Y-125069505D01*
X126325956Y-124911957D01*
X126418641Y-124773244D01*
X126501542Y-124649174D01*
X126523476Y-124538907D01*
X126661009Y-124447009D01*
X126801357Y-124236965D01*
X126850640Y-123989200D01*
X126850640Y-122289200D01*
X126801357Y-122041435D01*
X126661009Y-121831391D01*
X126523476Y-121739493D01*
X126501542Y-121629226D01*
X126376040Y-121441400D01*
X126325956Y-121366443D01*
X126124970Y-121165458D01*
X126110961Y-119906335D01*
X126085161Y-119777455D01*
X125960680Y-81561836D01*
X136665045Y-81602691D01*
X136959498Y-81724959D01*
X137510485Y-81725440D01*
X137797103Y-81607012D01*
X139341868Y-81612908D01*
X139582690Y-81566463D01*
X139789771Y-81430432D01*
X139929033Y-81225508D01*
X139972698Y-81014640D01*
X140119800Y-81014640D01*
X140367565Y-80965357D01*
X140577609Y-80825009D01*
X140717957Y-80614965D01*
X140767240Y-80367200D01*
X140767240Y-79977200D01*
X140741382Y-79847200D01*
X140767240Y-79717200D01*
X140767240Y-79327200D01*
X140741382Y-79197200D01*
X140767240Y-79067200D01*
X140767240Y-78677200D01*
X140741382Y-78547200D01*
X140767240Y-78417200D01*
X140767240Y-78328329D01*
X142154114Y-78297736D01*
X142063078Y-80027425D01*
G36*
X145971947Y-85218367D02*
X145986481Y-85242616D01*
X145991997Y-85270345D01*
X146099834Y-85431734D01*
X146199619Y-85598217D01*
X146222327Y-85615058D01*
X146238034Y-85638566D01*
X146390434Y-85790966D01*
X146758654Y-86037003D01*
X147193000Y-86123400D01*
X157317000Y-86123400D01*
X157317000Y-89281000D01*
X145923000Y-89281000D01*
X145923000Y-85217000D01*
X145971744Y-85217000D01*
X145971947Y-85218367D01*
X145971947Y-85218367D01*
G37*
X145971947Y-85218367D02*
X145986481Y-85242616D01*
X145991997Y-85270345D01*
X146099834Y-85431734D01*
X146199619Y-85598217D01*
X146222327Y-85615058D01*
X146238034Y-85638566D01*
X146390434Y-85790966D01*
X146758654Y-86037003D01*
X147193000Y-86123400D01*
X157317000Y-86123400D01*
X157317000Y-89281000D01*
X145923000Y-89281000D01*
X145923000Y-85217000D01*
X145971744Y-85217000D01*
X145971947Y-85218367D01*
G36*
X159410400Y-84281488D02*
X159410400Y-84378800D01*
X159410406Y-84381597D01*
X159414246Y-85253227D01*
X154965400Y-85267395D01*
X154965400Y-84686640D01*
X157434600Y-84686640D01*
X157682365Y-84637357D01*
X157892409Y-84497009D01*
X158032757Y-84286965D01*
X158082040Y-84039200D01*
X158082040Y-83616548D01*
X159391149Y-82856941D01*
X159410400Y-84281488D01*
X159410400Y-84281488D01*
G37*
X159410400Y-84281488D02*
X159410400Y-84378800D01*
X159410406Y-84381597D01*
X159414246Y-85253227D01*
X154965400Y-85267395D01*
X154965400Y-84686640D01*
X157434600Y-84686640D01*
X157682365Y-84637357D01*
X157892409Y-84497009D01*
X158032757Y-84286965D01*
X158082040Y-84039200D01*
X158082040Y-83616548D01*
X159391149Y-82856941D01*
X159410400Y-84281488D01*
G36*
X151802463Y-80838155D02*
X152105799Y-81040837D01*
X152463608Y-81112010D01*
X153142200Y-81112010D01*
X153406609Y-81059415D01*
X153282402Y-81558423D01*
X153277124Y-81842155D01*
X153374316Y-82070061D01*
X154287160Y-83405930D01*
X154287160Y-83971345D01*
X151535240Y-83966079D01*
X151535240Y-83139200D01*
X151485957Y-82891435D01*
X151345609Y-82681391D01*
X151135565Y-82541043D01*
X151072800Y-82528558D01*
X151072800Y-82448405D01*
X151072801Y-82448400D01*
X150994015Y-82052322D01*
X150882118Y-81884856D01*
X150769656Y-81716544D01*
X150769653Y-81716542D01*
X150465350Y-81412239D01*
X150502809Y-81387209D01*
X150643157Y-81177165D01*
X150650208Y-81141717D01*
X150657067Y-81176201D01*
X150684597Y-81217403D01*
X150725799Y-81244933D01*
X150774400Y-81254600D01*
X151536400Y-81254600D01*
X151585001Y-81244933D01*
X151626203Y-81217403D01*
X151653733Y-81176201D01*
X151663400Y-81127600D01*
X151663400Y-80699092D01*
X151802463Y-80838155D01*
X151802463Y-80838155D01*
G37*
X151802463Y-80838155D02*
X152105799Y-81040837D01*
X152463608Y-81112010D01*
X153142200Y-81112010D01*
X153406609Y-81059415D01*
X153282402Y-81558423D01*
X153277124Y-81842155D01*
X153374316Y-82070061D01*
X154287160Y-83405930D01*
X154287160Y-83971345D01*
X151535240Y-83966079D01*
X151535240Y-83139200D01*
X151485957Y-82891435D01*
X151345609Y-82681391D01*
X151135565Y-82541043D01*
X151072800Y-82528558D01*
X151072800Y-82448405D01*
X151072801Y-82448400D01*
X150994015Y-82052322D01*
X150882118Y-81884856D01*
X150769656Y-81716544D01*
X150769653Y-81716542D01*
X150465350Y-81412239D01*
X150502809Y-81387209D01*
X150643157Y-81177165D01*
X150650208Y-81141717D01*
X150657067Y-81176201D01*
X150684597Y-81217403D01*
X150725799Y-81244933D01*
X150774400Y-81254600D01*
X151536400Y-81254600D01*
X151585001Y-81244933D01*
X151626203Y-81217403D01*
X151653733Y-81176201D01*
X151663400Y-81127600D01*
X151663400Y-80699092D01*
X151802463Y-80838155D01*
G36*
X146725000Y-81349441D02*
X147746474Y-81349441D01*
X147786185Y-81549077D01*
X148010544Y-81884856D01*
X148776202Y-82650513D01*
X148729991Y-82681391D01*
X148589643Y-82891435D01*
X148540360Y-83139200D01*
X148540360Y-83960349D01*
X145770237Y-83955049D01*
X145770478Y-81404226D01*
X145944823Y-81476620D01*
X146356571Y-81476979D01*
X146684658Y-81341417D01*
X146725000Y-81349441D01*
X146725000Y-81349441D01*
G37*
X146725000Y-81349441D02*
X147746474Y-81349441D01*
X147786185Y-81549077D01*
X148010544Y-81884856D01*
X148776202Y-82650513D01*
X148729991Y-82681391D01*
X148589643Y-82891435D01*
X148540360Y-83139200D01*
X148540360Y-83960349D01*
X145770237Y-83955049D01*
X145770478Y-81404226D01*
X145944823Y-81476620D01*
X146356571Y-81476979D01*
X146684658Y-81341417D01*
X146725000Y-81349441D01*
G36*
X153874989Y-78359101D02*
X153568442Y-78359000D01*
X153519838Y-78368651D01*
X153478627Y-78396168D01*
X153469290Y-78410132D01*
X153280046Y-78220558D01*
X152899777Y-78062657D01*
X152488029Y-78062298D01*
X152107485Y-78219535D01*
X151984969Y-78341838D01*
X151943157Y-78131635D01*
X151802809Y-77921591D01*
X151592765Y-77781243D01*
X151516183Y-77766010D01*
X153281899Y-77766010D01*
X153874989Y-78359101D01*
X153874989Y-78359101D01*
G37*
X153874989Y-78359101D02*
X153568442Y-78359000D01*
X153519838Y-78368651D01*
X153478627Y-78396168D01*
X153469290Y-78410132D01*
X153280046Y-78220558D01*
X152899777Y-78062657D01*
X152488029Y-78062298D01*
X152107485Y-78219535D01*
X151984969Y-78341838D01*
X151943157Y-78131635D01*
X151802809Y-77921591D01*
X151592765Y-77781243D01*
X151516183Y-77766010D01*
X153281899Y-77766010D01*
X153874989Y-78359101D01*
G36*
X160678521Y-80761179D02*
X160888565Y-80901527D01*
X161136330Y-80950810D01*
X161376516Y-80950810D01*
X161301928Y-81099623D01*
X162636200Y-82433895D01*
X163970472Y-81099623D01*
X163895884Y-80950810D01*
X164136070Y-80950810D01*
X164383835Y-80901527D01*
X164550703Y-80790028D01*
X164698565Y-80888827D01*
X164946330Y-80938110D01*
X165186516Y-80938110D01*
X165111928Y-81086923D01*
X166446200Y-82421195D01*
X167780472Y-81086923D01*
X167705884Y-80938110D01*
X167946070Y-80938110D01*
X168193835Y-80888827D01*
X168351200Y-80783678D01*
X168508565Y-80888827D01*
X168756330Y-80938110D01*
X168996516Y-80938110D01*
X168921928Y-81086923D01*
X170256200Y-82421195D01*
X171590472Y-81086923D01*
X171515884Y-80938110D01*
X171756070Y-80938110D01*
X172003835Y-80888827D01*
X172161200Y-80783678D01*
X172318565Y-80888827D01*
X172566330Y-80938110D01*
X172806516Y-80938110D01*
X172731928Y-81086923D01*
X174066200Y-82421195D01*
X174080343Y-82407053D01*
X174259948Y-82586658D01*
X174245805Y-82600800D01*
X174259948Y-82614943D01*
X174080343Y-82794548D01*
X174066200Y-82780405D01*
X172731928Y-84114677D01*
X172891695Y-84433432D01*
X173682417Y-84743395D01*
X174531566Y-84727167D01*
X175240705Y-84433432D01*
X175400471Y-84114679D01*
X175476620Y-84190828D01*
X175476620Y-85599493D01*
X175385458Y-85735926D01*
X175355860Y-85884724D01*
X175275991Y-85938091D01*
X175186787Y-86071594D01*
X175172127Y-86036202D01*
X174993499Y-85857573D01*
X174760110Y-85760900D01*
X174519550Y-85760900D01*
X174360800Y-85919650D01*
X174360800Y-86718900D01*
X174380800Y-86718900D01*
X174380800Y-86972900D01*
X174360800Y-86972900D01*
X174360800Y-86992900D01*
X174106800Y-86992900D01*
X174106800Y-86972900D01*
X173357550Y-86972900D01*
X173231050Y-87099400D01*
X170230800Y-87099400D01*
X170165510Y-87112387D01*
X160587000Y-87133532D01*
X160587000Y-86269591D01*
X173198800Y-86269591D01*
X173198800Y-86560150D01*
X173357550Y-86718900D01*
X174106800Y-86718900D01*
X174106800Y-85919650D01*
X173948050Y-85760900D01*
X173707490Y-85760900D01*
X173474101Y-85857573D01*
X173295473Y-86036202D01*
X173198800Y-86269591D01*
X160587000Y-86269591D01*
X160587000Y-86013800D01*
X160462543Y-85388113D01*
X160174952Y-84957701D01*
X160172400Y-84378468D01*
X160172400Y-84277200D01*
X160172388Y-84275484D01*
X160170387Y-84127377D01*
X161301928Y-84127377D01*
X161461695Y-84446132D01*
X162252417Y-84756095D01*
X163101566Y-84739867D01*
X163810705Y-84446132D01*
X163970472Y-84127377D01*
X163957772Y-84114677D01*
X165111928Y-84114677D01*
X165271695Y-84433432D01*
X166062417Y-84743395D01*
X166911566Y-84727167D01*
X167620705Y-84433432D01*
X167780472Y-84114677D01*
X168921928Y-84114677D01*
X169081695Y-84433432D01*
X169872417Y-84743395D01*
X170721566Y-84727167D01*
X171430705Y-84433432D01*
X171590472Y-84114677D01*
X170256200Y-82780405D01*
X168921928Y-84114677D01*
X167780472Y-84114677D01*
X166446200Y-82780405D01*
X165111928Y-84114677D01*
X163957772Y-84114677D01*
X162636200Y-82793105D01*
X161301928Y-84127377D01*
X160170387Y-84127377D01*
X160144743Y-82229717D01*
X160493605Y-82229717D01*
X160509833Y-83078866D01*
X160803568Y-83788005D01*
X161122323Y-83947772D01*
X162456595Y-82613500D01*
X162815805Y-82613500D01*
X164150077Y-83947772D01*
X164468832Y-83788005D01*
X164541764Y-83601954D01*
X164613568Y-83775305D01*
X164932323Y-83935072D01*
X166266595Y-82600800D01*
X166625805Y-82600800D01*
X167960077Y-83935072D01*
X168278832Y-83775305D01*
X168349206Y-83595779D01*
X168423568Y-83775305D01*
X168742323Y-83935072D01*
X170076595Y-82600800D01*
X170435805Y-82600800D01*
X171770077Y-83935072D01*
X172088832Y-83775305D01*
X172159206Y-83595779D01*
X172233568Y-83775305D01*
X172552323Y-83935072D01*
X173886595Y-82600800D01*
X172552323Y-81266528D01*
X172233568Y-81426295D01*
X172163194Y-81605821D01*
X172088832Y-81426295D01*
X171770077Y-81266528D01*
X170435805Y-82600800D01*
X170076595Y-82600800D01*
X168742323Y-81266528D01*
X168423568Y-81426295D01*
X168353194Y-81605821D01*
X168278832Y-81426295D01*
X167960077Y-81266528D01*
X166625805Y-82600800D01*
X166266595Y-82600800D01*
X164932323Y-81266528D01*
X164613568Y-81426295D01*
X164540636Y-81612346D01*
X164468832Y-81438995D01*
X164150077Y-81279228D01*
X162815805Y-82613500D01*
X162456595Y-82613500D01*
X161122323Y-81279228D01*
X160803568Y-81438995D01*
X160493605Y-82229717D01*
X160144743Y-82229717D01*
X160123326Y-80644904D01*
X160600589Y-80644548D01*
X160678521Y-80761179D01*
X160678521Y-80761179D01*
G37*
X160678521Y-80761179D02*
X160888565Y-80901527D01*
X161136330Y-80950810D01*
X161376516Y-80950810D01*
X161301928Y-81099623D01*
X162636200Y-82433895D01*
X163970472Y-81099623D01*
X163895884Y-80950810D01*
X164136070Y-80950810D01*
X164383835Y-80901527D01*
X164550703Y-80790028D01*
X164698565Y-80888827D01*
X164946330Y-80938110D01*
X165186516Y-80938110D01*
X165111928Y-81086923D01*
X166446200Y-82421195D01*
X167780472Y-81086923D01*
X167705884Y-80938110D01*
X167946070Y-80938110D01*
X168193835Y-80888827D01*
X168351200Y-80783678D01*
X168508565Y-80888827D01*
X168756330Y-80938110D01*
X168996516Y-80938110D01*
X168921928Y-81086923D01*
X170256200Y-82421195D01*
X171590472Y-81086923D01*
X171515884Y-80938110D01*
X171756070Y-80938110D01*
X172003835Y-80888827D01*
X172161200Y-80783678D01*
X172318565Y-80888827D01*
X172566330Y-80938110D01*
X172806516Y-80938110D01*
X172731928Y-81086923D01*
X174066200Y-82421195D01*
X174080343Y-82407053D01*
X174259948Y-82586658D01*
X174245805Y-82600800D01*
X174259948Y-82614943D01*
X174080343Y-82794548D01*
X174066200Y-82780405D01*
X172731928Y-84114677D01*
X172891695Y-84433432D01*
X173682417Y-84743395D01*
X174531566Y-84727167D01*
X175240705Y-84433432D01*
X175400471Y-84114679D01*
X175476620Y-84190828D01*
X175476620Y-85599493D01*
X175385458Y-85735926D01*
X175355860Y-85884724D01*
X175275991Y-85938091D01*
X175186787Y-86071594D01*
X175172127Y-86036202D01*
X174993499Y-85857573D01*
X174760110Y-85760900D01*
X174519550Y-85760900D01*
X174360800Y-85919650D01*
X174360800Y-86718900D01*
X174380800Y-86718900D01*
X174380800Y-86972900D01*
X174360800Y-86972900D01*
X174360800Y-86992900D01*
X174106800Y-86992900D01*
X174106800Y-86972900D01*
X173357550Y-86972900D01*
X173231050Y-87099400D01*
X170230800Y-87099400D01*
X170165510Y-87112387D01*
X160587000Y-87133532D01*
X160587000Y-86269591D01*
X173198800Y-86269591D01*
X173198800Y-86560150D01*
X173357550Y-86718900D01*
X174106800Y-86718900D01*
X174106800Y-85919650D01*
X173948050Y-85760900D01*
X173707490Y-85760900D01*
X173474101Y-85857573D01*
X173295473Y-86036202D01*
X173198800Y-86269591D01*
X160587000Y-86269591D01*
X160587000Y-86013800D01*
X160462543Y-85388113D01*
X160174952Y-84957701D01*
X160172400Y-84378468D01*
X160172400Y-84277200D01*
X160172388Y-84275484D01*
X160170387Y-84127377D01*
X161301928Y-84127377D01*
X161461695Y-84446132D01*
X162252417Y-84756095D01*
X163101566Y-84739867D01*
X163810705Y-84446132D01*
X163970472Y-84127377D01*
X163957772Y-84114677D01*
X165111928Y-84114677D01*
X165271695Y-84433432D01*
X166062417Y-84743395D01*
X166911566Y-84727167D01*
X167620705Y-84433432D01*
X167780472Y-84114677D01*
X168921928Y-84114677D01*
X169081695Y-84433432D01*
X169872417Y-84743395D01*
X170721566Y-84727167D01*
X171430705Y-84433432D01*
X171590472Y-84114677D01*
X170256200Y-82780405D01*
X168921928Y-84114677D01*
X167780472Y-84114677D01*
X166446200Y-82780405D01*
X165111928Y-84114677D01*
X163957772Y-84114677D01*
X162636200Y-82793105D01*
X161301928Y-84127377D01*
X160170387Y-84127377D01*
X160144743Y-82229717D01*
X160493605Y-82229717D01*
X160509833Y-83078866D01*
X160803568Y-83788005D01*
X161122323Y-83947772D01*
X162456595Y-82613500D01*
X162815805Y-82613500D01*
X164150077Y-83947772D01*
X164468832Y-83788005D01*
X164541764Y-83601954D01*
X164613568Y-83775305D01*
X164932323Y-83935072D01*
X166266595Y-82600800D01*
X166625805Y-82600800D01*
X167960077Y-83935072D01*
X168278832Y-83775305D01*
X168349206Y-83595779D01*
X168423568Y-83775305D01*
X168742323Y-83935072D01*
X170076595Y-82600800D01*
X170435805Y-82600800D01*
X171770077Y-83935072D01*
X172088832Y-83775305D01*
X172159206Y-83595779D01*
X172233568Y-83775305D01*
X172552323Y-83935072D01*
X173886595Y-82600800D01*
X172552323Y-81266528D01*
X172233568Y-81426295D01*
X172163194Y-81605821D01*
X172088832Y-81426295D01*
X171770077Y-81266528D01*
X170435805Y-82600800D01*
X170076595Y-82600800D01*
X168742323Y-81266528D01*
X168423568Y-81426295D01*
X168353194Y-81605821D01*
X168278832Y-81426295D01*
X167960077Y-81266528D01*
X166625805Y-82600800D01*
X166266595Y-82600800D01*
X164932323Y-81266528D01*
X164613568Y-81426295D01*
X164540636Y-81612346D01*
X164468832Y-81438995D01*
X164150077Y-81279228D01*
X162815805Y-82613500D01*
X162456595Y-82613500D01*
X161122323Y-81279228D01*
X160803568Y-81438995D01*
X160493605Y-82229717D01*
X160144743Y-82229717D01*
X160123326Y-80644904D01*
X160600589Y-80644548D01*
X160678521Y-80761179D01*
G36*
X139205658Y-73889026D02*
X139154378Y-74146826D01*
X138894330Y-74320585D01*
X138684000Y-74635366D01*
X138473670Y-74320585D01*
X137987489Y-73995729D01*
X137414000Y-73881655D01*
X136840511Y-73995729D01*
X136354330Y-74320585D01*
X136144000Y-74635366D01*
X135933670Y-74320585D01*
X135447489Y-73995729D01*
X134874000Y-73881655D01*
X134300511Y-73995729D01*
X133814330Y-74320585D01*
X133604000Y-74635366D01*
X133393670Y-74320585D01*
X132907489Y-73995729D01*
X132334000Y-73881655D01*
X131760511Y-73995729D01*
X131274330Y-74320585D01*
X131064000Y-74635366D01*
X130853670Y-74320585D01*
X130367489Y-73995729D01*
X129794000Y-73881655D01*
X129220511Y-73995729D01*
X128734330Y-74320585D01*
X128409474Y-74806766D01*
X128295400Y-75380255D01*
X128295400Y-75749745D01*
X128409474Y-76323234D01*
X128734330Y-76809415D01*
X129220511Y-77134271D01*
X129794000Y-77248345D01*
X130367489Y-77134271D01*
X130853670Y-76809415D01*
X131064000Y-76494634D01*
X131274330Y-76809415D01*
X131760511Y-77134271D01*
X132334000Y-77248345D01*
X132907489Y-77134271D01*
X133393670Y-76809415D01*
X133604000Y-76494634D01*
X133814330Y-76809415D01*
X134300511Y-77134271D01*
X134874000Y-77248345D01*
X135447489Y-77134271D01*
X135933670Y-76809415D01*
X136144000Y-76494634D01*
X136354330Y-76809415D01*
X136840511Y-77134271D01*
X137414000Y-77248345D01*
X137987489Y-77134271D01*
X138473670Y-76809415D01*
X138684000Y-76494634D01*
X138894330Y-76809415D01*
X139380511Y-77134271D01*
X139954000Y-77248345D01*
X140527489Y-77134271D01*
X141013670Y-76809415D01*
X141224000Y-76494634D01*
X141434330Y-76809415D01*
X141920511Y-77134271D01*
X142249747Y-77199760D01*
X140659800Y-77199760D01*
X140412035Y-77249043D01*
X140201991Y-77389391D01*
X140200114Y-77392200D01*
X140020550Y-77392200D01*
X139861800Y-77550950D01*
X139861800Y-77586116D01*
X139607800Y-77591719D01*
X139607800Y-77550950D01*
X139449050Y-77392200D01*
X139223490Y-77392200D01*
X138990101Y-77488873D01*
X138811473Y-77667502D01*
X138714800Y-77900891D01*
X138714800Y-77965950D01*
X138873550Y-78124700D01*
X139024318Y-78124700D01*
X138990101Y-78138873D01*
X138811473Y-78317502D01*
X138766024Y-78427226D01*
X138714800Y-78478450D01*
X138714800Y-78543509D01*
X138716329Y-78547200D01*
X138714800Y-78550891D01*
X138714800Y-78615950D01*
X138766024Y-78667174D01*
X138811473Y-78776898D01*
X138906774Y-78872200D01*
X138811473Y-78967502D01*
X138766024Y-79077226D01*
X138714800Y-79128450D01*
X138714800Y-79152827D01*
X138479029Y-79152621D01*
X138145317Y-79290507D01*
X138021764Y-79166739D01*
X137512902Y-78955441D01*
X136961915Y-78954960D01*
X136452685Y-79165369D01*
X136062739Y-79554636D01*
X135851441Y-80063498D01*
X135850960Y-80614485D01*
X135938174Y-80825560D01*
X132701925Y-80825560D01*
X125324085Y-80797401D01*
X125275447Y-80806883D01*
X125234141Y-80834255D01*
X125206454Y-80875352D01*
X125196601Y-80924814D01*
X125202429Y-82714070D01*
X124547325Y-83694502D01*
X124193560Y-85473000D01*
X124193560Y-117473000D01*
X124547325Y-119251498D01*
X124904735Y-119786400D01*
X119761000Y-119786400D01*
X119761000Y-77501750D01*
X121345000Y-77501750D01*
X121345000Y-78942310D01*
X121441673Y-79175699D01*
X121620302Y-79354327D01*
X121853691Y-79451000D01*
X122194250Y-79451000D01*
X122353000Y-79292250D01*
X122353000Y-77343000D01*
X122607000Y-77343000D01*
X122607000Y-79292250D01*
X122765750Y-79451000D01*
X123106309Y-79451000D01*
X123339698Y-79354327D01*
X123518327Y-79175699D01*
X123615000Y-78942310D01*
X123615000Y-77501750D01*
X123456250Y-77343000D01*
X122607000Y-77343000D01*
X122353000Y-77343000D01*
X121503750Y-77343000D01*
X121345000Y-77501750D01*
X119761000Y-77501750D01*
X119761000Y-75489690D01*
X121345000Y-75489690D01*
X121345000Y-76930250D01*
X121503750Y-77089000D01*
X122353000Y-77089000D01*
X122353000Y-75139750D01*
X122607000Y-75139750D01*
X122607000Y-77089000D01*
X123456250Y-77089000D01*
X123615000Y-76930250D01*
X123615000Y-75489690D01*
X123518327Y-75256301D01*
X123339698Y-75077673D01*
X123106309Y-74981000D01*
X122765750Y-74981000D01*
X122607000Y-75139750D01*
X122353000Y-75139750D01*
X122194250Y-74981000D01*
X121853691Y-74981000D01*
X121620302Y-75077673D01*
X121441673Y-75256301D01*
X121345000Y-75489690D01*
X119761000Y-75489690D01*
X119761000Y-73735000D01*
X139308575Y-73735000D01*
X139205658Y-73889026D01*
X139205658Y-73889026D01*
G37*
X139205658Y-73889026D02*
X139154378Y-74146826D01*
X138894330Y-74320585D01*
X138684000Y-74635366D01*
X138473670Y-74320585D01*
X137987489Y-73995729D01*
X137414000Y-73881655D01*
X136840511Y-73995729D01*
X136354330Y-74320585D01*
X136144000Y-74635366D01*
X135933670Y-74320585D01*
X135447489Y-73995729D01*
X134874000Y-73881655D01*
X134300511Y-73995729D01*
X133814330Y-74320585D01*
X133604000Y-74635366D01*
X133393670Y-74320585D01*
X132907489Y-73995729D01*
X132334000Y-73881655D01*
X131760511Y-73995729D01*
X131274330Y-74320585D01*
X131064000Y-74635366D01*
X130853670Y-74320585D01*
X130367489Y-73995729D01*
X129794000Y-73881655D01*
X129220511Y-73995729D01*
X128734330Y-74320585D01*
X128409474Y-74806766D01*
X128295400Y-75380255D01*
X128295400Y-75749745D01*
X128409474Y-76323234D01*
X128734330Y-76809415D01*
X129220511Y-77134271D01*
X129794000Y-77248345D01*
X130367489Y-77134271D01*
X130853670Y-76809415D01*
X131064000Y-76494634D01*
X131274330Y-76809415D01*
X131760511Y-77134271D01*
X132334000Y-77248345D01*
X132907489Y-77134271D01*
X133393670Y-76809415D01*
X133604000Y-76494634D01*
X133814330Y-76809415D01*
X134300511Y-77134271D01*
X134874000Y-77248345D01*
X135447489Y-77134271D01*
X135933670Y-76809415D01*
X136144000Y-76494634D01*
X136354330Y-76809415D01*
X136840511Y-77134271D01*
X137414000Y-77248345D01*
X137987489Y-77134271D01*
X138473670Y-76809415D01*
X138684000Y-76494634D01*
X138894330Y-76809415D01*
X139380511Y-77134271D01*
X139954000Y-77248345D01*
X140527489Y-77134271D01*
X141013670Y-76809415D01*
X141224000Y-76494634D01*
X141434330Y-76809415D01*
X141920511Y-77134271D01*
X142249747Y-77199760D01*
X140659800Y-77199760D01*
X140412035Y-77249043D01*
X140201991Y-77389391D01*
X140200114Y-77392200D01*
X140020550Y-77392200D01*
X139861800Y-77550950D01*
X139861800Y-77586116D01*
X139607800Y-77591719D01*
X139607800Y-77550950D01*
X139449050Y-77392200D01*
X139223490Y-77392200D01*
X138990101Y-77488873D01*
X138811473Y-77667502D01*
X138714800Y-77900891D01*
X138714800Y-77965950D01*
X138873550Y-78124700D01*
X139024318Y-78124700D01*
X138990101Y-78138873D01*
X138811473Y-78317502D01*
X138766024Y-78427226D01*
X138714800Y-78478450D01*
X138714800Y-78543509D01*
X138716329Y-78547200D01*
X138714800Y-78550891D01*
X138714800Y-78615950D01*
X138766024Y-78667174D01*
X138811473Y-78776898D01*
X138906774Y-78872200D01*
X138811473Y-78967502D01*
X138766024Y-79077226D01*
X138714800Y-79128450D01*
X138714800Y-79152827D01*
X138479029Y-79152621D01*
X138145317Y-79290507D01*
X138021764Y-79166739D01*
X137512902Y-78955441D01*
X136961915Y-78954960D01*
X136452685Y-79165369D01*
X136062739Y-79554636D01*
X135851441Y-80063498D01*
X135850960Y-80614485D01*
X135938174Y-80825560D01*
X132701925Y-80825560D01*
X125324085Y-80797401D01*
X125275447Y-80806883D01*
X125234141Y-80834255D01*
X125206454Y-80875352D01*
X125196601Y-80924814D01*
X125202429Y-82714070D01*
X124547325Y-83694502D01*
X124193560Y-85473000D01*
X124193560Y-117473000D01*
X124547325Y-119251498D01*
X124904735Y-119786400D01*
X119761000Y-119786400D01*
X119761000Y-77501750D01*
X121345000Y-77501750D01*
X121345000Y-78942310D01*
X121441673Y-79175699D01*
X121620302Y-79354327D01*
X121853691Y-79451000D01*
X122194250Y-79451000D01*
X122353000Y-79292250D01*
X122353000Y-77343000D01*
X122607000Y-77343000D01*
X122607000Y-79292250D01*
X122765750Y-79451000D01*
X123106309Y-79451000D01*
X123339698Y-79354327D01*
X123518327Y-79175699D01*
X123615000Y-78942310D01*
X123615000Y-77501750D01*
X123456250Y-77343000D01*
X122607000Y-77343000D01*
X122353000Y-77343000D01*
X121503750Y-77343000D01*
X121345000Y-77501750D01*
X119761000Y-77501750D01*
X119761000Y-75489690D01*
X121345000Y-75489690D01*
X121345000Y-76930250D01*
X121503750Y-77089000D01*
X122353000Y-77089000D01*
X122353000Y-75139750D01*
X122607000Y-75139750D01*
X122607000Y-77089000D01*
X123456250Y-77089000D01*
X123615000Y-76930250D01*
X123615000Y-75489690D01*
X123518327Y-75256301D01*
X123339698Y-75077673D01*
X123106309Y-74981000D01*
X122765750Y-74981000D01*
X122607000Y-75139750D01*
X122353000Y-75139750D01*
X122194250Y-74981000D01*
X121853691Y-74981000D01*
X121620302Y-75077673D01*
X121441673Y-75256301D01*
X121345000Y-75489690D01*
X119761000Y-75489690D01*
X119761000Y-73735000D01*
X139308575Y-73735000D01*
X139205658Y-73889026D01*
G36*
X146514330Y-76809415D02*
X147000511Y-77134271D01*
X147207429Y-77175429D01*
X147113355Y-77316221D01*
X147046055Y-77654559D01*
X146725000Y-77654559D01*
X146477235Y-77703842D01*
X146267191Y-77844190D01*
X146156456Y-78009915D01*
X145890438Y-78009683D01*
X145862527Y-77942300D01*
X145683898Y-77763672D01*
X145450509Y-77666999D01*
X145000350Y-77666999D01*
X144841600Y-77825749D01*
X144841600Y-78426999D01*
X144861600Y-78426999D01*
X144861600Y-78604560D01*
X144567600Y-78604560D01*
X144567600Y-78426999D01*
X144587600Y-78426999D01*
X144587600Y-77825749D01*
X144428850Y-77666999D01*
X144140826Y-77666999D01*
X144136952Y-77664327D01*
X144133556Y-77659244D01*
X144007074Y-77574731D01*
X143881834Y-77488335D01*
X143875856Y-77487053D01*
X143870774Y-77483658D01*
X143721580Y-77453981D01*
X143572808Y-77422089D01*
X143378091Y-77419202D01*
X143179800Y-77379760D01*
X143063195Y-77379760D01*
X142867565Y-77249043D01*
X142679027Y-77211541D01*
X143067489Y-77134271D01*
X143553670Y-76809415D01*
X143764000Y-76494634D01*
X143974330Y-76809415D01*
X144460511Y-77134271D01*
X145034000Y-77248345D01*
X145607489Y-77134271D01*
X146093670Y-76809415D01*
X146304000Y-76494634D01*
X146514330Y-76809415D01*
X146514330Y-76809415D01*
G37*
X146514330Y-76809415D02*
X147000511Y-77134271D01*
X147207429Y-77175429D01*
X147113355Y-77316221D01*
X147046055Y-77654559D01*
X146725000Y-77654559D01*
X146477235Y-77703842D01*
X146267191Y-77844190D01*
X146156456Y-78009915D01*
X145890438Y-78009683D01*
X145862527Y-77942300D01*
X145683898Y-77763672D01*
X145450509Y-77666999D01*
X145000350Y-77666999D01*
X144841600Y-77825749D01*
X144841600Y-78426999D01*
X144861600Y-78426999D01*
X144861600Y-78604560D01*
X144567600Y-78604560D01*
X144567600Y-78426999D01*
X144587600Y-78426999D01*
X144587600Y-77825749D01*
X144428850Y-77666999D01*
X144140826Y-77666999D01*
X144136952Y-77664327D01*
X144133556Y-77659244D01*
X144007074Y-77574731D01*
X143881834Y-77488335D01*
X143875856Y-77487053D01*
X143870774Y-77483658D01*
X143721580Y-77453981D01*
X143572808Y-77422089D01*
X143378091Y-77419202D01*
X143179800Y-77379760D01*
X143063195Y-77379760D01*
X142867565Y-77249043D01*
X142679027Y-77211541D01*
X143067489Y-77134271D01*
X143553670Y-76809415D01*
X143764000Y-76494634D01*
X143974330Y-76809415D01*
X144460511Y-77134271D01*
X145034000Y-77248345D01*
X145607489Y-77134271D01*
X146093670Y-76809415D01*
X146304000Y-76494634D01*
X146514330Y-76809415D01*
G36*
X160736003Y-76805932D02*
X160598003Y-76943932D01*
X160501330Y-77177321D01*
X160501330Y-78517750D01*
X160660080Y-78676500D01*
X161906731Y-78676500D01*
X161900250Y-78930500D01*
X160660080Y-78930500D01*
X160501330Y-79089250D01*
X160501330Y-79878962D01*
X159486095Y-79883001D01*
X159437533Y-79892862D01*
X159396441Y-79920555D01*
X159369075Y-79961866D01*
X159359600Y-80010000D01*
X159359600Y-81994261D01*
X157395625Y-83133851D01*
X155007502Y-83109483D01*
X154428000Y-82261431D01*
X154428000Y-81618985D01*
X154577820Y-81258177D01*
X154578069Y-80972436D01*
X154758606Y-80897655D01*
X154762626Y-80900341D01*
X155072600Y-80961999D01*
X155478369Y-80961999D01*
X155666600Y-80999440D01*
X156316600Y-80999440D01*
X156564365Y-80950157D01*
X156774409Y-80809809D01*
X156914757Y-80599765D01*
X156964040Y-80352000D01*
X156964040Y-80307417D01*
X157250974Y-80250342D01*
X157513756Y-80074756D01*
X157722557Y-79865956D01*
X157898143Y-79603173D01*
X157930648Y-79439756D01*
X157959800Y-79293200D01*
X157959800Y-78270100D01*
X157898143Y-77960127D01*
X157722557Y-77697344D01*
X157557456Y-77532244D01*
X157507703Y-77499000D01*
X157294674Y-77356658D01*
X156984700Y-77295000D01*
X156900943Y-77295000D01*
X156831676Y-77225733D01*
X157291489Y-77134271D01*
X157777670Y-76809415D01*
X157988000Y-76494634D01*
X158198330Y-76809415D01*
X158684511Y-77134271D01*
X159258000Y-77248345D01*
X159831489Y-77134271D01*
X160317670Y-76809415D01*
X160528000Y-76494634D01*
X160736003Y-76805932D01*
X160736003Y-76805932D01*
G37*
X160736003Y-76805932D02*
X160598003Y-76943932D01*
X160501330Y-77177321D01*
X160501330Y-78517750D01*
X160660080Y-78676500D01*
X161906731Y-78676500D01*
X161900250Y-78930500D01*
X160660080Y-78930500D01*
X160501330Y-79089250D01*
X160501330Y-79878962D01*
X159486095Y-79883001D01*
X159437533Y-79892862D01*
X159396441Y-79920555D01*
X159369075Y-79961866D01*
X159359600Y-80010000D01*
X159359600Y-81994261D01*
X157395625Y-83133851D01*
X155007502Y-83109483D01*
X154428000Y-82261431D01*
X154428000Y-81618985D01*
X154577820Y-81258177D01*
X154578069Y-80972436D01*
X154758606Y-80897655D01*
X154762626Y-80900341D01*
X155072600Y-80961999D01*
X155478369Y-80961999D01*
X155666600Y-80999440D01*
X156316600Y-80999440D01*
X156564365Y-80950157D01*
X156774409Y-80809809D01*
X156914757Y-80599765D01*
X156964040Y-80352000D01*
X156964040Y-80307417D01*
X157250974Y-80250342D01*
X157513756Y-80074756D01*
X157722557Y-79865956D01*
X157898143Y-79603173D01*
X157930648Y-79439756D01*
X157959800Y-79293200D01*
X157959800Y-78270100D01*
X157898143Y-77960127D01*
X157722557Y-77697344D01*
X157557456Y-77532244D01*
X157507703Y-77499000D01*
X157294674Y-77356658D01*
X156984700Y-77295000D01*
X156900943Y-77295000D01*
X156831676Y-77225733D01*
X157291489Y-77134271D01*
X157777670Y-76809415D01*
X157988000Y-76494634D01*
X158198330Y-76809415D01*
X158684511Y-77134271D01*
X159258000Y-77248345D01*
X159831489Y-77134271D01*
X160317670Y-76809415D01*
X160528000Y-76494634D01*
X160736003Y-76805932D01*
G36*
X178868000Y-88813091D02*
X178868000Y-120990909D01*
X176535954Y-123322954D01*
X176382046Y-123553295D01*
X176328000Y-123825000D01*
X176328000Y-125655000D01*
X159855980Y-125655000D01*
X160619462Y-124891517D01*
X160738330Y-125069415D01*
X161224511Y-125394271D01*
X161798000Y-125508345D01*
X162371489Y-125394271D01*
X162857670Y-125069415D01*
X163068000Y-124754634D01*
X163278330Y-125069415D01*
X163764511Y-125394271D01*
X164338000Y-125508345D01*
X164911489Y-125394271D01*
X165397670Y-125069415D01*
X165608000Y-124754634D01*
X165818330Y-125069415D01*
X166304511Y-125394271D01*
X166878000Y-125508345D01*
X167451489Y-125394271D01*
X167937670Y-125069415D01*
X168148000Y-124754634D01*
X168358330Y-125069415D01*
X168844511Y-125394271D01*
X169418000Y-125508345D01*
X169991489Y-125394271D01*
X170477670Y-125069415D01*
X170688000Y-124754634D01*
X170898330Y-125069415D01*
X171384511Y-125394271D01*
X171958000Y-125508345D01*
X172531489Y-125394271D01*
X173017670Y-125069415D01*
X173228000Y-124754634D01*
X173438330Y-125069415D01*
X173924511Y-125394271D01*
X174498000Y-125508345D01*
X175071489Y-125394271D01*
X175557670Y-125069415D01*
X175882526Y-124583234D01*
X175996600Y-124009745D01*
X175996600Y-123640255D01*
X175986268Y-123588312D01*
X176647787Y-122926792D01*
X176647790Y-122926790D01*
X176839633Y-122639675D01*
X176907000Y-122301000D01*
X176907000Y-121519000D01*
X176894440Y-121455857D01*
X176894440Y-121019000D01*
X176845157Y-120771235D01*
X176704809Y-120561191D01*
X176494765Y-120420843D01*
X176247000Y-120371560D01*
X175797000Y-120371560D01*
X175549235Y-120420843D01*
X175339191Y-120561191D01*
X175198843Y-120771235D01*
X175149560Y-121019000D01*
X175149560Y-121455857D01*
X175137000Y-121519000D01*
X175137000Y-121934421D01*
X174858131Y-122213290D01*
X174498000Y-122141655D01*
X173924511Y-122255729D01*
X173438330Y-122580585D01*
X173228000Y-122895366D01*
X173017670Y-122580585D01*
X172843000Y-122463874D01*
X172843000Y-121519000D01*
X172830440Y-121455857D01*
X172830440Y-121019000D01*
X172781157Y-120771235D01*
X172640809Y-120561191D01*
X172430765Y-120420843D01*
X172183000Y-120371560D01*
X171733000Y-120371560D01*
X171485235Y-120420843D01*
X171275191Y-120561191D01*
X171134843Y-120771235D01*
X171085560Y-121019000D01*
X171085560Y-121455857D01*
X171073000Y-121519000D01*
X171073000Y-122463874D01*
X170898330Y-122580585D01*
X170688000Y-122895366D01*
X170477670Y-122580585D01*
X169991489Y-122255729D01*
X169418000Y-122141655D01*
X169057869Y-122213289D01*
X168779000Y-121934420D01*
X168779000Y-121519000D01*
X168766440Y-121455857D01*
X168766440Y-121019000D01*
X168717157Y-120771235D01*
X168576809Y-120561191D01*
X168366765Y-120420843D01*
X168119000Y-120371560D01*
X167669000Y-120371560D01*
X167421235Y-120420843D01*
X167211191Y-120561191D01*
X167070843Y-120771235D01*
X167021560Y-121019000D01*
X167021560Y-121455857D01*
X167009000Y-121519000D01*
X167009000Y-122167713D01*
X166878000Y-122141655D01*
X166304511Y-122255729D01*
X165818330Y-122580585D01*
X165608000Y-122895366D01*
X165397670Y-122580585D01*
X164911489Y-122255729D01*
X164338000Y-122141655D01*
X163764511Y-122255729D01*
X163278330Y-122580585D01*
X163068000Y-122895366D01*
X162857670Y-122580585D01*
X162371489Y-122255729D01*
X161798000Y-122141655D01*
X161224511Y-122255729D01*
X160738330Y-122580585D01*
X160498176Y-122940000D01*
X160434405Y-122940000D01*
X160434400Y-122939999D01*
X160151916Y-122996190D01*
X160095725Y-123007367D01*
X159808610Y-123199210D01*
X159808608Y-123199213D01*
X158391420Y-124616400D01*
X158052951Y-124616400D01*
X158203184Y-124186913D01*
X158058924Y-123952000D01*
X156845000Y-123952000D01*
X156845000Y-123972000D01*
X156591000Y-123972000D01*
X156591000Y-123952000D01*
X156571000Y-123952000D01*
X156571000Y-123698000D01*
X156591000Y-123698000D01*
X156591000Y-122338783D01*
X156845000Y-122338783D01*
X156845000Y-123698000D01*
X158058924Y-123698000D01*
X158203184Y-123463087D01*
X158009954Y-122910680D01*
X157620036Y-122474268D01*
X157092791Y-122220291D01*
X157077026Y-122217642D01*
X156845000Y-122338783D01*
X156591000Y-122338783D01*
X156358974Y-122217642D01*
X156343209Y-122220291D01*
X156315879Y-122233456D01*
X156308555Y-119930003D01*
X159825621Y-119951488D01*
X160072504Y-119903164D01*
X160278513Y-119765513D01*
X160416164Y-119559504D01*
X160464500Y-119316500D01*
X160464500Y-114832130D01*
X165746690Y-114832130D01*
X165746690Y-117831870D01*
X165795973Y-118079635D01*
X165936321Y-118289679D01*
X166146365Y-118430027D01*
X166394130Y-118479310D01*
X167009000Y-118479310D01*
X167009000Y-119019000D01*
X167021560Y-119082143D01*
X167021560Y-119519000D01*
X167070843Y-119766765D01*
X167211191Y-119976809D01*
X167421235Y-120117157D01*
X167669000Y-120166440D01*
X168119000Y-120166440D01*
X168366765Y-120117157D01*
X168576809Y-119976809D01*
X168717157Y-119766765D01*
X168766440Y-119519000D01*
X168766440Y-119082143D01*
X168779000Y-119019000D01*
X168779000Y-118479310D01*
X169393870Y-118479310D01*
X169641635Y-118430027D01*
X169851679Y-118289679D01*
X169926000Y-118178451D01*
X170000321Y-118289679D01*
X170210365Y-118430027D01*
X170458130Y-118479310D01*
X171073000Y-118479310D01*
X171073000Y-119019000D01*
X171085560Y-119082143D01*
X171085560Y-119519000D01*
X171134843Y-119766765D01*
X171275191Y-119976809D01*
X171485235Y-120117157D01*
X171733000Y-120166440D01*
X172183000Y-120166440D01*
X172430765Y-120117157D01*
X172640809Y-119976809D01*
X172781157Y-119766765D01*
X172830440Y-119519000D01*
X172830440Y-119082143D01*
X172843000Y-119019000D01*
X172843000Y-118479310D01*
X173457870Y-118479310D01*
X173705635Y-118430027D01*
X173915679Y-118289679D01*
X173990000Y-118178451D01*
X174064321Y-118289679D01*
X174274365Y-118430027D01*
X174522130Y-118479310D01*
X175137000Y-118479310D01*
X175137000Y-119019000D01*
X175149560Y-119082143D01*
X175149560Y-119519000D01*
X175198843Y-119766765D01*
X175339191Y-119976809D01*
X175549235Y-120117157D01*
X175797000Y-120166440D01*
X176247000Y-120166440D01*
X176494765Y-120117157D01*
X176704809Y-119976809D01*
X176845157Y-119766765D01*
X176894440Y-119519000D01*
X176894440Y-119082143D01*
X176907000Y-119019000D01*
X176907000Y-118479310D01*
X177521870Y-118479310D01*
X177769635Y-118430027D01*
X177979679Y-118289679D01*
X178120027Y-118079635D01*
X178169310Y-117831870D01*
X178169310Y-114832130D01*
X178120027Y-114584365D01*
X177979679Y-114374321D01*
X177769635Y-114233973D01*
X177521870Y-114184690D01*
X177378206Y-114184690D01*
X177830800Y-113732886D01*
X178156499Y-112948515D01*
X178157240Y-112099211D01*
X177832910Y-111314273D01*
X177232886Y-110713200D01*
X176448515Y-110387501D01*
X175599211Y-110386760D01*
X174814273Y-110711090D01*
X174213200Y-111311114D01*
X173989853Y-111848995D01*
X173768910Y-111314273D01*
X173168886Y-110713200D01*
X172384515Y-110387501D01*
X171535211Y-110386760D01*
X170750273Y-110711090D01*
X170149200Y-111311114D01*
X169925853Y-111848995D01*
X169704910Y-111314273D01*
X169104886Y-110713200D01*
X168320515Y-110387501D01*
X167471211Y-110386760D01*
X166686273Y-110711090D01*
X166085200Y-111311114D01*
X165759501Y-112095485D01*
X165758760Y-112944789D01*
X166083090Y-113729727D01*
X166537259Y-114184690D01*
X166394130Y-114184690D01*
X166146365Y-114233973D01*
X165936321Y-114374321D01*
X165795973Y-114584365D01*
X165746690Y-114832130D01*
X160464500Y-114832130D01*
X160464500Y-114363500D01*
X160416164Y-114120496D01*
X160278513Y-113914487D01*
X160228600Y-113881136D01*
X160228600Y-113669950D01*
X160069850Y-113511200D01*
X158470600Y-113511200D01*
X158470600Y-113531200D01*
X158216600Y-113531200D01*
X158216600Y-113511200D01*
X156617350Y-113511200D01*
X156458600Y-113669950D01*
X156458600Y-113728500D01*
X155656600Y-113728500D01*
X155656600Y-113669950D01*
X155497850Y-113511200D01*
X153898600Y-113511200D01*
X153898600Y-113531200D01*
X153644600Y-113531200D01*
X153644600Y-113511200D01*
X152045350Y-113511200D01*
X151886600Y-113669950D01*
X151886600Y-113728500D01*
X151143150Y-113728500D01*
X150989350Y-113574700D01*
X149390100Y-113574700D01*
X149390100Y-113594700D01*
X149136100Y-113594700D01*
X149136100Y-113574700D01*
X149116100Y-113574700D01*
X149116100Y-113320700D01*
X149136100Y-113320700D01*
X149136100Y-112471450D01*
X149390100Y-112471450D01*
X149390100Y-113320700D01*
X150989350Y-113320700D01*
X151148100Y-113161950D01*
X151148100Y-112821391D01*
X151121798Y-112757891D01*
X151886600Y-112757891D01*
X151886600Y-113098450D01*
X152045350Y-113257200D01*
X153644600Y-113257200D01*
X153644600Y-112407950D01*
X153898600Y-112407950D01*
X153898600Y-113257200D01*
X155497850Y-113257200D01*
X155656600Y-113098450D01*
X155656600Y-112757891D01*
X156458600Y-112757891D01*
X156458600Y-113098450D01*
X156617350Y-113257200D01*
X158216600Y-113257200D01*
X158216600Y-112407950D01*
X158470600Y-112407950D01*
X158470600Y-113257200D01*
X160069850Y-113257200D01*
X160228600Y-113098450D01*
X160228600Y-112757891D01*
X160131927Y-112524502D01*
X159953299Y-112345873D01*
X159719910Y-112249200D01*
X158629350Y-112249200D01*
X158470600Y-112407950D01*
X158216600Y-112407950D01*
X158057850Y-112249200D01*
X156967290Y-112249200D01*
X156733901Y-112345873D01*
X156555273Y-112524502D01*
X156458600Y-112757891D01*
X155656600Y-112757891D01*
X155559927Y-112524502D01*
X155381299Y-112345873D01*
X155147910Y-112249200D01*
X154057350Y-112249200D01*
X153898600Y-112407950D01*
X153644600Y-112407950D01*
X153485850Y-112249200D01*
X152395290Y-112249200D01*
X152161901Y-112345873D01*
X151983273Y-112524502D01*
X151886600Y-112757891D01*
X151121798Y-112757891D01*
X151051427Y-112588002D01*
X150872799Y-112409373D01*
X150639410Y-112312700D01*
X149548850Y-112312700D01*
X149390100Y-112471450D01*
X149136100Y-112471450D01*
X148977350Y-112312700D01*
X147886790Y-112312700D01*
X147822646Y-112339269D01*
X147824699Y-110682526D01*
X147824499Y-110681512D01*
X147824700Y-110680500D01*
X147824700Y-109251750D01*
X156394150Y-109251750D01*
X156394150Y-111092560D01*
X156490823Y-111325949D01*
X156669452Y-111504577D01*
X156902841Y-111601250D01*
X158743650Y-111601250D01*
X158902400Y-111442500D01*
X158902400Y-109093000D01*
X159156400Y-109093000D01*
X159156400Y-111442500D01*
X159315150Y-111601250D01*
X161155959Y-111601250D01*
X161389348Y-111504577D01*
X161567977Y-111325949D01*
X161664650Y-111092560D01*
X161664650Y-109251750D01*
X161505900Y-109093000D01*
X159156400Y-109093000D01*
X158902400Y-109093000D01*
X156552900Y-109093000D01*
X156394150Y-109251750D01*
X147824700Y-109251750D01*
X147824700Y-106839440D01*
X156394150Y-106839440D01*
X156394150Y-108680250D01*
X156552900Y-108839000D01*
X158902400Y-108839000D01*
X158902400Y-106489500D01*
X159156400Y-106489500D01*
X159156400Y-108839000D01*
X161505900Y-108839000D01*
X161664650Y-108680250D01*
X161664650Y-106839440D01*
X161567977Y-106606051D01*
X161389348Y-106427423D01*
X161155959Y-106330750D01*
X159315150Y-106330750D01*
X159156400Y-106489500D01*
X158902400Y-106489500D01*
X158743650Y-106330750D01*
X156902841Y-106330750D01*
X156669452Y-106427423D01*
X156490823Y-106606051D01*
X156394150Y-106839440D01*
X147824700Y-106839440D01*
X147824700Y-101098350D01*
X160648800Y-101098350D01*
X160648800Y-102138909D01*
X160745473Y-102372298D01*
X160924101Y-102550927D01*
X161157490Y-102647600D01*
X162198050Y-102647600D01*
X162356800Y-102488850D01*
X162356800Y-100939600D01*
X162610800Y-100939600D01*
X162610800Y-102488850D01*
X162769550Y-102647600D01*
X163810110Y-102647600D01*
X164043499Y-102550927D01*
X164222127Y-102372298D01*
X164318800Y-102138909D01*
X164318800Y-101098350D01*
X164160050Y-100939600D01*
X162610800Y-100939600D01*
X162356800Y-100939600D01*
X160807550Y-100939600D01*
X160648800Y-101098350D01*
X147824700Y-101098350D01*
X147824700Y-101067870D01*
X148964650Y-101067870D01*
X149123400Y-100909120D01*
X149123400Y-99060000D01*
X149377400Y-99060000D01*
X149377400Y-100909120D01*
X149536150Y-101067870D01*
X150876580Y-101067870D01*
X151109969Y-100971197D01*
X151288597Y-100792568D01*
X151385270Y-100559179D01*
X151385270Y-99486291D01*
X160648800Y-99486291D01*
X160648800Y-100526850D01*
X160807550Y-100685600D01*
X162356800Y-100685600D01*
X162356800Y-99136350D01*
X162610800Y-99136350D01*
X162610800Y-100685600D01*
X164160050Y-100685600D01*
X164318800Y-100526850D01*
X164318800Y-99486291D01*
X164222127Y-99252902D01*
X164043499Y-99074273D01*
X163810110Y-98977600D01*
X162769550Y-98977600D01*
X162610800Y-99136350D01*
X162356800Y-99136350D01*
X162198050Y-98977600D01*
X161157490Y-98977600D01*
X160924101Y-99074273D01*
X160745473Y-99252902D01*
X160648800Y-99486291D01*
X151385270Y-99486291D01*
X151385270Y-99218750D01*
X151226520Y-99060000D01*
X149377400Y-99060000D01*
X149123400Y-99060000D01*
X149103400Y-99060000D01*
X149103400Y-98806000D01*
X149123400Y-98806000D01*
X149123400Y-98786000D01*
X149377400Y-98786000D01*
X149377400Y-98806000D01*
X151226520Y-98806000D01*
X151385270Y-98647250D01*
X151385270Y-97306821D01*
X151288597Y-97073432D01*
X151109969Y-96894803D01*
X150876580Y-96798130D01*
X150594144Y-96798130D01*
X151059200Y-96333886D01*
X151274597Y-95815150D01*
X173506130Y-95815150D01*
X173506130Y-97155579D01*
X173602803Y-97388968D01*
X173781431Y-97567597D01*
X174014820Y-97664270D01*
X175355250Y-97664270D01*
X175514000Y-97505520D01*
X175514000Y-95656400D01*
X175768000Y-95656400D01*
X175768000Y-97505520D01*
X175926750Y-97664270D01*
X177267180Y-97664270D01*
X177500569Y-97567597D01*
X177679197Y-97388968D01*
X177775870Y-97155579D01*
X177775870Y-95815150D01*
X177617120Y-95656400D01*
X175768000Y-95656400D01*
X175514000Y-95656400D01*
X173664880Y-95656400D01*
X173506130Y-95815150D01*
X151274597Y-95815150D01*
X151384899Y-95549515D01*
X151385640Y-94700211D01*
X151061310Y-93915273D01*
X150822458Y-93676003D01*
X160648482Y-93676003D01*
X160927255Y-94350686D01*
X161442999Y-94867330D01*
X162117195Y-95147281D01*
X162847203Y-95147918D01*
X163521886Y-94869145D01*
X164038530Y-94353401D01*
X164318481Y-93679205D01*
X164319118Y-92949197D01*
X164040345Y-92274514D01*
X163524601Y-91757870D01*
X162978600Y-91531150D01*
X170805900Y-91531150D01*
X170805900Y-91671709D01*
X170902573Y-91905098D01*
X171081201Y-92083727D01*
X171314590Y-92180400D01*
X171394650Y-92180400D01*
X171553400Y-92021650D01*
X171553400Y-91372400D01*
X171778400Y-91372400D01*
X171778400Y-92021650D01*
X171937150Y-92180400D01*
X172017210Y-92180400D01*
X172250599Y-92083727D01*
X172429227Y-91905098D01*
X172525900Y-91671709D01*
X172525900Y-91531150D01*
X172367150Y-91372400D01*
X171778400Y-91372400D01*
X171553400Y-91372400D01*
X170964650Y-91372400D01*
X170805900Y-91531150D01*
X162978600Y-91531150D01*
X162850405Y-91477919D01*
X162120397Y-91477282D01*
X161445714Y-91756055D01*
X160929070Y-92271799D01*
X160649119Y-92945995D01*
X160648482Y-93676003D01*
X150822458Y-93676003D01*
X150461286Y-93314200D01*
X149676915Y-92988501D01*
X148827611Y-92987760D01*
X148042673Y-93312090D01*
X147824700Y-93529683D01*
X147824700Y-92567000D01*
X159004000Y-92567000D01*
X159629687Y-92442543D01*
X160160120Y-92088120D01*
X160514543Y-91557687D01*
X160639000Y-90932000D01*
X160616541Y-90819091D01*
X170805900Y-90819091D01*
X170805900Y-90959650D01*
X170964650Y-91118400D01*
X171553400Y-91118400D01*
X171553400Y-90469150D01*
X171778400Y-90469150D01*
X171778400Y-91118400D01*
X172367150Y-91118400D01*
X172525900Y-90959650D01*
X172525900Y-90819091D01*
X172429227Y-90585702D01*
X172250599Y-90407073D01*
X172017210Y-90310400D01*
X171937150Y-90310400D01*
X171778400Y-90469150D01*
X171553400Y-90469150D01*
X171394650Y-90310400D01*
X171314590Y-90310400D01*
X171081201Y-90407073D01*
X170902573Y-90585702D01*
X170805900Y-90819091D01*
X160616541Y-90819091D01*
X160547438Y-90471689D01*
X160587000Y-90272800D01*
X160587000Y-87895534D01*
X173545433Y-87866928D01*
X173586035Y-87894057D01*
X173833800Y-87943340D01*
X174322484Y-87943340D01*
X174185643Y-88148135D01*
X174136360Y-88395900D01*
X174136360Y-88936502D01*
X173736940Y-88421274D01*
X173698914Y-88388258D01*
X173671492Y-88346022D01*
X173569579Y-88275963D01*
X173476197Y-88194885D01*
X173428432Y-88178934D01*
X173386934Y-88150407D01*
X173265974Y-88124683D01*
X173148667Y-88085509D01*
X173098431Y-88089052D01*
X173049177Y-88078577D01*
X171677578Y-88060477D01*
X171338043Y-88123369D01*
X171048422Y-88311407D01*
X171007061Y-88371575D01*
X170983091Y-88387591D01*
X170842743Y-88597635D01*
X170793460Y-88845400D01*
X170793460Y-88875025D01*
X170780977Y-88933722D01*
X170793460Y-89001114D01*
X170793460Y-89445400D01*
X170842743Y-89693165D01*
X170983091Y-89903209D01*
X171193135Y-90043557D01*
X171440900Y-90092840D01*
X171890900Y-90092840D01*
X172138665Y-90043557D01*
X172348709Y-89903209D01*
X172390914Y-89840045D01*
X172599366Y-89842795D01*
X173582197Y-91110588D01*
X173506501Y-91292885D01*
X173505760Y-92142189D01*
X173830090Y-92927127D01*
X174296677Y-93394530D01*
X174014820Y-93394530D01*
X173781431Y-93491203D01*
X173602803Y-93669832D01*
X173506130Y-93903221D01*
X173506130Y-95243650D01*
X173664880Y-95402400D01*
X175514000Y-95402400D01*
X175514000Y-95382400D01*
X175768000Y-95382400D01*
X175768000Y-95402400D01*
X177617120Y-95402400D01*
X177775870Y-95243650D01*
X177775870Y-93903221D01*
X177679197Y-93669832D01*
X177500569Y-93491203D01*
X177267180Y-93394530D01*
X176984744Y-93394530D01*
X177449800Y-92930286D01*
X177775499Y-92145915D01*
X177776240Y-91296611D01*
X177451910Y-90511673D01*
X176851886Y-89910600D01*
X176135532Y-89613144D01*
X176181957Y-89543665D01*
X176231240Y-89295900D01*
X176231240Y-88395900D01*
X176181957Y-88148135D01*
X176045116Y-87943340D01*
X176533800Y-87943340D01*
X176781565Y-87894057D01*
X176833028Y-87859670D01*
X177318802Y-87858598D01*
X177587827Y-87798138D01*
X177740360Y-87685452D01*
X178868000Y-88813091D01*
X178868000Y-88813091D01*
G37*
X178868000Y-88813091D02*
X178868000Y-120990909D01*
X176535954Y-123322954D01*
X176382046Y-123553295D01*
X176328000Y-123825000D01*
X176328000Y-125655000D01*
X159855980Y-125655000D01*
X160619462Y-124891517D01*
X160738330Y-125069415D01*
X161224511Y-125394271D01*
X161798000Y-125508345D01*
X162371489Y-125394271D01*
X162857670Y-125069415D01*
X163068000Y-124754634D01*
X163278330Y-125069415D01*
X163764511Y-125394271D01*
X164338000Y-125508345D01*
X164911489Y-125394271D01*
X165397670Y-125069415D01*
X165608000Y-124754634D01*
X165818330Y-125069415D01*
X166304511Y-125394271D01*
X166878000Y-125508345D01*
X167451489Y-125394271D01*
X167937670Y-125069415D01*
X168148000Y-124754634D01*
X168358330Y-125069415D01*
X168844511Y-125394271D01*
X169418000Y-125508345D01*
X169991489Y-125394271D01*
X170477670Y-125069415D01*
X170688000Y-124754634D01*
X170898330Y-125069415D01*
X171384511Y-125394271D01*
X171958000Y-125508345D01*
X172531489Y-125394271D01*
X173017670Y-125069415D01*
X173228000Y-124754634D01*
X173438330Y-125069415D01*
X173924511Y-125394271D01*
X174498000Y-125508345D01*
X175071489Y-125394271D01*
X175557670Y-125069415D01*
X175882526Y-124583234D01*
X175996600Y-124009745D01*
X175996600Y-123640255D01*
X175986268Y-123588312D01*
X176647787Y-122926792D01*
X176647790Y-122926790D01*
X176839633Y-122639675D01*
X176907000Y-122301000D01*
X176907000Y-121519000D01*
X176894440Y-121455857D01*
X176894440Y-121019000D01*
X176845157Y-120771235D01*
X176704809Y-120561191D01*
X176494765Y-120420843D01*
X176247000Y-120371560D01*
X175797000Y-120371560D01*
X175549235Y-120420843D01*
X175339191Y-120561191D01*
X175198843Y-120771235D01*
X175149560Y-121019000D01*
X175149560Y-121455857D01*
X175137000Y-121519000D01*
X175137000Y-121934421D01*
X174858131Y-122213290D01*
X174498000Y-122141655D01*
X173924511Y-122255729D01*
X173438330Y-122580585D01*
X173228000Y-122895366D01*
X173017670Y-122580585D01*
X172843000Y-122463874D01*
X172843000Y-121519000D01*
X172830440Y-121455857D01*
X172830440Y-121019000D01*
X172781157Y-120771235D01*
X172640809Y-120561191D01*
X172430765Y-120420843D01*
X172183000Y-120371560D01*
X171733000Y-120371560D01*
X171485235Y-120420843D01*
X171275191Y-120561191D01*
X171134843Y-120771235D01*
X171085560Y-121019000D01*
X171085560Y-121455857D01*
X171073000Y-121519000D01*
X171073000Y-122463874D01*
X170898330Y-122580585D01*
X170688000Y-122895366D01*
X170477670Y-122580585D01*
X169991489Y-122255729D01*
X169418000Y-122141655D01*
X169057869Y-122213289D01*
X168779000Y-121934420D01*
X168779000Y-121519000D01*
X168766440Y-121455857D01*
X168766440Y-121019000D01*
X168717157Y-120771235D01*
X168576809Y-120561191D01*
X168366765Y-120420843D01*
X168119000Y-120371560D01*
X167669000Y-120371560D01*
X167421235Y-120420843D01*
X167211191Y-120561191D01*
X167070843Y-120771235D01*
X167021560Y-121019000D01*
X167021560Y-121455857D01*
X167009000Y-121519000D01*
X167009000Y-122167713D01*
X166878000Y-122141655D01*
X166304511Y-122255729D01*
X165818330Y-122580585D01*
X165608000Y-122895366D01*
X165397670Y-122580585D01*
X164911489Y-122255729D01*
X164338000Y-122141655D01*
X163764511Y-122255729D01*
X163278330Y-122580585D01*
X163068000Y-122895366D01*
X162857670Y-122580585D01*
X162371489Y-122255729D01*
X161798000Y-122141655D01*
X161224511Y-122255729D01*
X160738330Y-122580585D01*
X160498176Y-122940000D01*
X160434405Y-122940000D01*
X160434400Y-122939999D01*
X160151916Y-122996190D01*
X160095725Y-123007367D01*
X159808610Y-123199210D01*
X159808608Y-123199213D01*
X158391420Y-124616400D01*
X158052951Y-124616400D01*
X158203184Y-124186913D01*
X158058924Y-123952000D01*
X156845000Y-123952000D01*
X156845000Y-123972000D01*
X156591000Y-123972000D01*
X156591000Y-123952000D01*
X156571000Y-123952000D01*
X156571000Y-123698000D01*
X156591000Y-123698000D01*
X156591000Y-122338783D01*
X156845000Y-122338783D01*
X156845000Y-123698000D01*
X158058924Y-123698000D01*
X158203184Y-123463087D01*
X158009954Y-122910680D01*
X157620036Y-122474268D01*
X157092791Y-122220291D01*
X157077026Y-122217642D01*
X156845000Y-122338783D01*
X156591000Y-122338783D01*
X156358974Y-122217642D01*
X156343209Y-122220291D01*
X156315879Y-122233456D01*
X156308555Y-119930003D01*
X159825621Y-119951488D01*
X160072504Y-119903164D01*
X160278513Y-119765513D01*
X160416164Y-119559504D01*
X160464500Y-119316500D01*
X160464500Y-114832130D01*
X165746690Y-114832130D01*
X165746690Y-117831870D01*
X165795973Y-118079635D01*
X165936321Y-118289679D01*
X166146365Y-118430027D01*
X166394130Y-118479310D01*
X167009000Y-118479310D01*
X167009000Y-119019000D01*
X167021560Y-119082143D01*
X167021560Y-119519000D01*
X167070843Y-119766765D01*
X167211191Y-119976809D01*
X167421235Y-120117157D01*
X167669000Y-120166440D01*
X168119000Y-120166440D01*
X168366765Y-120117157D01*
X168576809Y-119976809D01*
X168717157Y-119766765D01*
X168766440Y-119519000D01*
X168766440Y-119082143D01*
X168779000Y-119019000D01*
X168779000Y-118479310D01*
X169393870Y-118479310D01*
X169641635Y-118430027D01*
X169851679Y-118289679D01*
X169926000Y-118178451D01*
X170000321Y-118289679D01*
X170210365Y-118430027D01*
X170458130Y-118479310D01*
X171073000Y-118479310D01*
X171073000Y-119019000D01*
X171085560Y-119082143D01*
X171085560Y-119519000D01*
X171134843Y-119766765D01*
X171275191Y-119976809D01*
X171485235Y-120117157D01*
X171733000Y-120166440D01*
X172183000Y-120166440D01*
X172430765Y-120117157D01*
X172640809Y-119976809D01*
X172781157Y-119766765D01*
X172830440Y-119519000D01*
X172830440Y-119082143D01*
X172843000Y-119019000D01*
X172843000Y-118479310D01*
X173457870Y-118479310D01*
X173705635Y-118430027D01*
X173915679Y-118289679D01*
X173990000Y-118178451D01*
X174064321Y-118289679D01*
X174274365Y-118430027D01*
X174522130Y-118479310D01*
X175137000Y-118479310D01*
X175137000Y-119019000D01*
X175149560Y-119082143D01*
X175149560Y-119519000D01*
X175198843Y-119766765D01*
X175339191Y-119976809D01*
X175549235Y-120117157D01*
X175797000Y-120166440D01*
X176247000Y-120166440D01*
X176494765Y-120117157D01*
X176704809Y-119976809D01*
X176845157Y-119766765D01*
X176894440Y-119519000D01*
X176894440Y-119082143D01*
X176907000Y-119019000D01*
X176907000Y-118479310D01*
X177521870Y-118479310D01*
X177769635Y-118430027D01*
X177979679Y-118289679D01*
X178120027Y-118079635D01*
X178169310Y-117831870D01*
X178169310Y-114832130D01*
X178120027Y-114584365D01*
X177979679Y-114374321D01*
X177769635Y-114233973D01*
X177521870Y-114184690D01*
X177378206Y-114184690D01*
X177830800Y-113732886D01*
X178156499Y-112948515D01*
X178157240Y-112099211D01*
X177832910Y-111314273D01*
X177232886Y-110713200D01*
X176448515Y-110387501D01*
X175599211Y-110386760D01*
X174814273Y-110711090D01*
X174213200Y-111311114D01*
X173989853Y-111848995D01*
X173768910Y-111314273D01*
X173168886Y-110713200D01*
X172384515Y-110387501D01*
X171535211Y-110386760D01*
X170750273Y-110711090D01*
X170149200Y-111311114D01*
X169925853Y-111848995D01*
X169704910Y-111314273D01*
X169104886Y-110713200D01*
X168320515Y-110387501D01*
X167471211Y-110386760D01*
X166686273Y-110711090D01*
X166085200Y-111311114D01*
X165759501Y-112095485D01*
X165758760Y-112944789D01*
X166083090Y-113729727D01*
X166537259Y-114184690D01*
X166394130Y-114184690D01*
X166146365Y-114233973D01*
X165936321Y-114374321D01*
X165795973Y-114584365D01*
X165746690Y-114832130D01*
X160464500Y-114832130D01*
X160464500Y-114363500D01*
X160416164Y-114120496D01*
X160278513Y-113914487D01*
X160228600Y-113881136D01*
X160228600Y-113669950D01*
X160069850Y-113511200D01*
X158470600Y-113511200D01*
X158470600Y-113531200D01*
X158216600Y-113531200D01*
X158216600Y-113511200D01*
X156617350Y-113511200D01*
X156458600Y-113669950D01*
X156458600Y-113728500D01*
X155656600Y-113728500D01*
X155656600Y-113669950D01*
X155497850Y-113511200D01*
X153898600Y-113511200D01*
X153898600Y-113531200D01*
X153644600Y-113531200D01*
X153644600Y-113511200D01*
X152045350Y-113511200D01*
X151886600Y-113669950D01*
X151886600Y-113728500D01*
X151143150Y-113728500D01*
X150989350Y-113574700D01*
X149390100Y-113574700D01*
X149390100Y-113594700D01*
X149136100Y-113594700D01*
X149136100Y-113574700D01*
X149116100Y-113574700D01*
X149116100Y-113320700D01*
X149136100Y-113320700D01*
X149136100Y-112471450D01*
X149390100Y-112471450D01*
X149390100Y-113320700D01*
X150989350Y-113320700D01*
X151148100Y-113161950D01*
X151148100Y-112821391D01*
X151121798Y-112757891D01*
X151886600Y-112757891D01*
X151886600Y-113098450D01*
X152045350Y-113257200D01*
X153644600Y-113257200D01*
X153644600Y-112407950D01*
X153898600Y-112407950D01*
X153898600Y-113257200D01*
X155497850Y-113257200D01*
X155656600Y-113098450D01*
X155656600Y-112757891D01*
X156458600Y-112757891D01*
X156458600Y-113098450D01*
X156617350Y-113257200D01*
X158216600Y-113257200D01*
X158216600Y-112407950D01*
X158470600Y-112407950D01*
X158470600Y-113257200D01*
X160069850Y-113257200D01*
X160228600Y-113098450D01*
X160228600Y-112757891D01*
X160131927Y-112524502D01*
X159953299Y-112345873D01*
X159719910Y-112249200D01*
X158629350Y-112249200D01*
X158470600Y-112407950D01*
X158216600Y-112407950D01*
X158057850Y-112249200D01*
X156967290Y-112249200D01*
X156733901Y-112345873D01*
X156555273Y-112524502D01*
X156458600Y-112757891D01*
X155656600Y-112757891D01*
X155559927Y-112524502D01*
X155381299Y-112345873D01*
X155147910Y-112249200D01*
X154057350Y-112249200D01*
X153898600Y-112407950D01*
X153644600Y-112407950D01*
X153485850Y-112249200D01*
X152395290Y-112249200D01*
X152161901Y-112345873D01*
X151983273Y-112524502D01*
X151886600Y-112757891D01*
X151121798Y-112757891D01*
X151051427Y-112588002D01*
X150872799Y-112409373D01*
X150639410Y-112312700D01*
X149548850Y-112312700D01*
X149390100Y-112471450D01*
X149136100Y-112471450D01*
X148977350Y-112312700D01*
X147886790Y-112312700D01*
X147822646Y-112339269D01*
X147824699Y-110682526D01*
X147824499Y-110681512D01*
X147824700Y-110680500D01*
X147824700Y-109251750D01*
X156394150Y-109251750D01*
X156394150Y-111092560D01*
X156490823Y-111325949D01*
X156669452Y-111504577D01*
X156902841Y-111601250D01*
X158743650Y-111601250D01*
X158902400Y-111442500D01*
X158902400Y-109093000D01*
X159156400Y-109093000D01*
X159156400Y-111442500D01*
X159315150Y-111601250D01*
X161155959Y-111601250D01*
X161389348Y-111504577D01*
X161567977Y-111325949D01*
X161664650Y-111092560D01*
X161664650Y-109251750D01*
X161505900Y-109093000D01*
X159156400Y-109093000D01*
X158902400Y-109093000D01*
X156552900Y-109093000D01*
X156394150Y-109251750D01*
X147824700Y-109251750D01*
X147824700Y-106839440D01*
X156394150Y-106839440D01*
X156394150Y-108680250D01*
X156552900Y-108839000D01*
X158902400Y-108839000D01*
X158902400Y-106489500D01*
X159156400Y-106489500D01*
X159156400Y-108839000D01*
X161505900Y-108839000D01*
X161664650Y-108680250D01*
X161664650Y-106839440D01*
X161567977Y-106606051D01*
X161389348Y-106427423D01*
X161155959Y-106330750D01*
X159315150Y-106330750D01*
X159156400Y-106489500D01*
X158902400Y-106489500D01*
X158743650Y-106330750D01*
X156902841Y-106330750D01*
X156669452Y-106427423D01*
X156490823Y-106606051D01*
X156394150Y-106839440D01*
X147824700Y-106839440D01*
X147824700Y-101098350D01*
X160648800Y-101098350D01*
X160648800Y-102138909D01*
X160745473Y-102372298D01*
X160924101Y-102550927D01*
X161157490Y-102647600D01*
X162198050Y-102647600D01*
X162356800Y-102488850D01*
X162356800Y-100939600D01*
X162610800Y-100939600D01*
X162610800Y-102488850D01*
X162769550Y-102647600D01*
X163810110Y-102647600D01*
X164043499Y-102550927D01*
X164222127Y-102372298D01*
X164318800Y-102138909D01*
X164318800Y-101098350D01*
X164160050Y-100939600D01*
X162610800Y-100939600D01*
X162356800Y-100939600D01*
X160807550Y-100939600D01*
X160648800Y-101098350D01*
X147824700Y-101098350D01*
X147824700Y-101067870D01*
X148964650Y-101067870D01*
X149123400Y-100909120D01*
X149123400Y-99060000D01*
X149377400Y-99060000D01*
X149377400Y-100909120D01*
X149536150Y-101067870D01*
X150876580Y-101067870D01*
X151109969Y-100971197D01*
X151288597Y-100792568D01*
X151385270Y-100559179D01*
X151385270Y-99486291D01*
X160648800Y-99486291D01*
X160648800Y-100526850D01*
X160807550Y-100685600D01*
X162356800Y-100685600D01*
X162356800Y-99136350D01*
X162610800Y-99136350D01*
X162610800Y-100685600D01*
X164160050Y-100685600D01*
X164318800Y-100526850D01*
X164318800Y-99486291D01*
X164222127Y-99252902D01*
X164043499Y-99074273D01*
X163810110Y-98977600D01*
X162769550Y-98977600D01*
X162610800Y-99136350D01*
X162356800Y-99136350D01*
X162198050Y-98977600D01*
X161157490Y-98977600D01*
X160924101Y-99074273D01*
X160745473Y-99252902D01*
X160648800Y-99486291D01*
X151385270Y-99486291D01*
X151385270Y-99218750D01*
X151226520Y-99060000D01*
X149377400Y-99060000D01*
X149123400Y-99060000D01*
X149103400Y-99060000D01*
X149103400Y-98806000D01*
X149123400Y-98806000D01*
X149123400Y-98786000D01*
X149377400Y-98786000D01*
X149377400Y-98806000D01*
X151226520Y-98806000D01*
X151385270Y-98647250D01*
X151385270Y-97306821D01*
X151288597Y-97073432D01*
X151109969Y-96894803D01*
X150876580Y-96798130D01*
X150594144Y-96798130D01*
X151059200Y-96333886D01*
X151274597Y-95815150D01*
X173506130Y-95815150D01*
X173506130Y-97155579D01*
X173602803Y-97388968D01*
X173781431Y-97567597D01*
X174014820Y-97664270D01*
X175355250Y-97664270D01*
X175514000Y-97505520D01*
X175514000Y-95656400D01*
X175768000Y-95656400D01*
X175768000Y-97505520D01*
X175926750Y-97664270D01*
X177267180Y-97664270D01*
X177500569Y-97567597D01*
X177679197Y-97388968D01*
X177775870Y-97155579D01*
X177775870Y-95815150D01*
X177617120Y-95656400D01*
X175768000Y-95656400D01*
X175514000Y-95656400D01*
X173664880Y-95656400D01*
X173506130Y-95815150D01*
X151274597Y-95815150D01*
X151384899Y-95549515D01*
X151385640Y-94700211D01*
X151061310Y-93915273D01*
X150822458Y-93676003D01*
X160648482Y-93676003D01*
X160927255Y-94350686D01*
X161442999Y-94867330D01*
X162117195Y-95147281D01*
X162847203Y-95147918D01*
X163521886Y-94869145D01*
X164038530Y-94353401D01*
X164318481Y-93679205D01*
X164319118Y-92949197D01*
X164040345Y-92274514D01*
X163524601Y-91757870D01*
X162978600Y-91531150D01*
X170805900Y-91531150D01*
X170805900Y-91671709D01*
X170902573Y-91905098D01*
X171081201Y-92083727D01*
X171314590Y-92180400D01*
X171394650Y-92180400D01*
X171553400Y-92021650D01*
X171553400Y-91372400D01*
X171778400Y-91372400D01*
X171778400Y-92021650D01*
X171937150Y-92180400D01*
X172017210Y-92180400D01*
X172250599Y-92083727D01*
X172429227Y-91905098D01*
X172525900Y-91671709D01*
X172525900Y-91531150D01*
X172367150Y-91372400D01*
X171778400Y-91372400D01*
X171553400Y-91372400D01*
X170964650Y-91372400D01*
X170805900Y-91531150D01*
X162978600Y-91531150D01*
X162850405Y-91477919D01*
X162120397Y-91477282D01*
X161445714Y-91756055D01*
X160929070Y-92271799D01*
X160649119Y-92945995D01*
X160648482Y-93676003D01*
X150822458Y-93676003D01*
X150461286Y-93314200D01*
X149676915Y-92988501D01*
X148827611Y-92987760D01*
X148042673Y-93312090D01*
X147824700Y-93529683D01*
X147824700Y-92567000D01*
X159004000Y-92567000D01*
X159629687Y-92442543D01*
X160160120Y-92088120D01*
X160514543Y-91557687D01*
X160639000Y-90932000D01*
X160616541Y-90819091D01*
X170805900Y-90819091D01*
X170805900Y-90959650D01*
X170964650Y-91118400D01*
X171553400Y-91118400D01*
X171553400Y-90469150D01*
X171778400Y-90469150D01*
X171778400Y-91118400D01*
X172367150Y-91118400D01*
X172525900Y-90959650D01*
X172525900Y-90819091D01*
X172429227Y-90585702D01*
X172250599Y-90407073D01*
X172017210Y-90310400D01*
X171937150Y-90310400D01*
X171778400Y-90469150D01*
X171553400Y-90469150D01*
X171394650Y-90310400D01*
X171314590Y-90310400D01*
X171081201Y-90407073D01*
X170902573Y-90585702D01*
X170805900Y-90819091D01*
X160616541Y-90819091D01*
X160547438Y-90471689D01*
X160587000Y-90272800D01*
X160587000Y-87895534D01*
X173545433Y-87866928D01*
X173586035Y-87894057D01*
X173833800Y-87943340D01*
X174322484Y-87943340D01*
X174185643Y-88148135D01*
X174136360Y-88395900D01*
X174136360Y-88936502D01*
X173736940Y-88421274D01*
X173698914Y-88388258D01*
X173671492Y-88346022D01*
X173569579Y-88275963D01*
X173476197Y-88194885D01*
X173428432Y-88178934D01*
X173386934Y-88150407D01*
X173265974Y-88124683D01*
X173148667Y-88085509D01*
X173098431Y-88089052D01*
X173049177Y-88078577D01*
X171677578Y-88060477D01*
X171338043Y-88123369D01*
X171048422Y-88311407D01*
X171007061Y-88371575D01*
X170983091Y-88387591D01*
X170842743Y-88597635D01*
X170793460Y-88845400D01*
X170793460Y-88875025D01*
X170780977Y-88933722D01*
X170793460Y-89001114D01*
X170793460Y-89445400D01*
X170842743Y-89693165D01*
X170983091Y-89903209D01*
X171193135Y-90043557D01*
X171440900Y-90092840D01*
X171890900Y-90092840D01*
X172138665Y-90043557D01*
X172348709Y-89903209D01*
X172390914Y-89840045D01*
X172599366Y-89842795D01*
X173582197Y-91110588D01*
X173506501Y-91292885D01*
X173505760Y-92142189D01*
X173830090Y-92927127D01*
X174296677Y-93394530D01*
X174014820Y-93394530D01*
X173781431Y-93491203D01*
X173602803Y-93669832D01*
X173506130Y-93903221D01*
X173506130Y-95243650D01*
X173664880Y-95402400D01*
X175514000Y-95402400D01*
X175514000Y-95382400D01*
X175768000Y-95382400D01*
X175768000Y-95402400D01*
X177617120Y-95402400D01*
X177775870Y-95243650D01*
X177775870Y-93903221D01*
X177679197Y-93669832D01*
X177500569Y-93491203D01*
X177267180Y-93394530D01*
X176984744Y-93394530D01*
X177449800Y-92930286D01*
X177775499Y-92145915D01*
X177776240Y-91296611D01*
X177451910Y-90511673D01*
X176851886Y-89910600D01*
X176135532Y-89613144D01*
X176181957Y-89543665D01*
X176231240Y-89295900D01*
X176231240Y-88395900D01*
X176181957Y-88148135D01*
X176045116Y-87943340D01*
X176533800Y-87943340D01*
X176781565Y-87894057D01*
X176833028Y-87859670D01*
X177318802Y-87858598D01*
X177587827Y-87798138D01*
X177740360Y-87685452D01*
X178868000Y-88813091D01*
M02*
