G04 #@! TF.GenerationSoftware,KiCad,Pcbnew,(2017-11-06 revision 9df4ae65e)-makepkg*
G04 #@! TF.CreationDate,2017-12-06T02:01:24-08:00*
G04 #@! TF.ProjectId,MHz_LED_Modulator,4D487A5F4C45445F4D6F64756C61746F,rev?*
G04 #@! TF.SameCoordinates,Original*
G04 #@! TF.FileFunction,Copper,L2,Bot,Signal*
G04 #@! TF.FilePolarity,Positive*
%FSLAX46Y46*%
G04 Gerber Fmt 4.6, Leading zero omitted, Abs format (unit mm)*
G04 Created by KiCad (PCBNEW (2017-11-06 revision 9df4ae65e)-makepkg) date 12/06/17 02:01:24*
%MOMM*%
%LPD*%
G01*
G04 APERTURE LIST*
%ADD10C,2.999740*%
%ADD11R,2.999740X2.999740*%
%ADD12C,2.400000*%
%ADD13R,2.400000X2.400000*%
%ADD14R,4.000500X4.000500*%
%ADD15C,4.000500*%
%ADD16O,1.727200X2.032000*%
%ADD17C,1.000000*%
%ADD18C,0.800000*%
%ADD19C,0.700000*%
%ADD20C,0.500000*%
%ADD21C,0.350000*%
%ADD22C,0.800000*%
%ADD23C,2.000000*%
%ADD24C,1.000000*%
%ADD25C,0.254000*%
G04 APERTURE END LIST*
D10*
X162636200Y-82613500D03*
D11*
X162636200Y-78803500D03*
D12*
X162483800Y-93312600D03*
D13*
X162483800Y-100812600D03*
D10*
X175641000Y-91719400D03*
D11*
X175641000Y-95529400D03*
D10*
X149250400Y-95123000D03*
D11*
X149250400Y-98933000D03*
D10*
X166446200Y-82600800D03*
D11*
X166446200Y-78790800D03*
D14*
X159029400Y-108966000D03*
D15*
X152755600Y-120370600D03*
D11*
X167894000Y-116332000D03*
D10*
X167894000Y-112522000D03*
X171958000Y-112522000D03*
D11*
X171958000Y-116332000D03*
D10*
X174066200Y-82600800D03*
D11*
X174066200Y-78790800D03*
D10*
X170256200Y-82600800D03*
D11*
X170256200Y-78790800D03*
D10*
X176022000Y-112522000D03*
D11*
X176022000Y-116332000D03*
D16*
X138938000Y-123825000D03*
X141478000Y-123825000D03*
X144018000Y-123825000D03*
X146558000Y-123825000D03*
X149098000Y-123825000D03*
X151638000Y-123825000D03*
X154178000Y-123825000D03*
X156718000Y-123825000D03*
X161798000Y-123825000D03*
X164338000Y-123825000D03*
X166878000Y-123825000D03*
X169418000Y-123825000D03*
X171958000Y-123825000D03*
X174498000Y-123825000D03*
X129794000Y-75565000D03*
X132334000Y-75565000D03*
X134874000Y-75565000D03*
X137414000Y-75565000D03*
X139954000Y-75565000D03*
X142494000Y-75565000D03*
X145034000Y-75565000D03*
X147574000Y-75565000D03*
X150114000Y-75565000D03*
X152654000Y-75565000D03*
X156718000Y-75565000D03*
X159258000Y-75565000D03*
X161798000Y-75565000D03*
X164338000Y-75565000D03*
X166878000Y-75565000D03*
X169418000Y-75565000D03*
X171958000Y-75565000D03*
X174498000Y-75565000D03*
D17*
X115000000Y-80000000D03*
X117000000Y-83000000D03*
X114000000Y-86000000D03*
X117000000Y-89000000D03*
X114000000Y-92000000D03*
X117000000Y-95000000D03*
X114000000Y-98000000D03*
X117000000Y-101000000D03*
X114000000Y-104000000D03*
X117000000Y-107000000D03*
X114000000Y-110000000D03*
X117000000Y-113000000D03*
X114000000Y-116000000D03*
X117000000Y-119000000D03*
X114000000Y-122000000D03*
X117000000Y-125000000D03*
X120000000Y-122000000D03*
X123000000Y-125000000D03*
D18*
X142875000Y-95681800D03*
D19*
X149860000Y-79679800D03*
X149860000Y-79679800D03*
D18*
X153543000Y-81051400D03*
X152693000Y-79097477D03*
X149072600Y-78145030D03*
X146024600Y-79044800D03*
X153085800Y-78130400D03*
D17*
X114960400Y-74523600D03*
X113000000Y-77000000D03*
D18*
X174218600Y-85318600D03*
X151511000Y-116967000D03*
X158343600Y-114947700D03*
X156083000Y-116903500D03*
X144272000Y-95681800D03*
X146151600Y-80441800D03*
X151892000Y-88900000D03*
X142875000Y-94411800D03*
X144272000Y-94411800D03*
X156972000Y-88900000D03*
X154432000Y-88900000D03*
X149352000Y-88900000D03*
X146812000Y-88900000D03*
X149275800Y-114935000D03*
X153771600Y-114947700D03*
X138684000Y-80187800D03*
D20*
X155629400Y-120370600D02*
X156083000Y-119917000D01*
X156083000Y-119917000D02*
X156083000Y-116903500D01*
X152755600Y-120370600D02*
X155629400Y-120370600D01*
X153000000Y-117297420D02*
X152669580Y-116967000D01*
X152669580Y-116967000D02*
X151511000Y-116967000D01*
X152755600Y-120370600D02*
X152755600Y-117541820D01*
X152755600Y-117541820D02*
X153000000Y-117297420D01*
X149370600Y-120370600D02*
X149275800Y-120275800D01*
X149275800Y-120275800D02*
X149275800Y-114935000D01*
X152755600Y-120370600D02*
X149370600Y-120370600D01*
X117000000Y-83000000D02*
X115000000Y-80000000D01*
X114000000Y-86000000D02*
X117000000Y-89000000D01*
X114000000Y-92000000D02*
X117000000Y-95000000D01*
X114000000Y-98000000D02*
X117000000Y-101000000D01*
X114000000Y-104000000D02*
X117000000Y-107000000D01*
X114000000Y-110000000D02*
X117000000Y-113000000D01*
X114000000Y-116000000D02*
X117000000Y-119000000D01*
D21*
X114000000Y-122000000D02*
X117000000Y-125000000D01*
X161283801Y-92094201D02*
X160070800Y-90881200D01*
X160070800Y-90881200D02*
X159131000Y-90881200D01*
X162483800Y-93312600D02*
X161283801Y-92112601D01*
X161283801Y-92112601D02*
X161283801Y-92094201D01*
X173029464Y-103890664D02*
X173029464Y-103858264D01*
X173029464Y-103858264D02*
X162483800Y-93312600D01*
X175927419Y-103890664D02*
X173029464Y-103890664D01*
X149072600Y-78145030D02*
X147690230Y-79527400D01*
D22*
X142875000Y-95681800D02*
X144272000Y-95681800D01*
X142875000Y-94411800D02*
X142875000Y-95681800D01*
X144272000Y-94411800D02*
X142875000Y-94411800D01*
D23*
X149250400Y-95123000D02*
X143438880Y-95031560D01*
D21*
X144272000Y-94411800D02*
X147167600Y-94411800D01*
X147167600Y-94411800D02*
X147370800Y-94411800D01*
D20*
X144272000Y-95681800D02*
X147243800Y-95681800D01*
X147243800Y-95681800D02*
X148691600Y-95681800D01*
D21*
X147167600Y-94411800D02*
X147167600Y-95605600D01*
X147167600Y-95605600D02*
X147243800Y-95681800D01*
D20*
X153543000Y-81051400D02*
X153543000Y-78587600D01*
X153543000Y-78587600D02*
X153085800Y-78130400D01*
D21*
X152293001Y-79497476D02*
X152693000Y-79097477D01*
X151334476Y-80456001D02*
X152293001Y-79497476D01*
X152218203Y-78627671D02*
X152532201Y-78796001D01*
X152310799Y-78574599D02*
X152218203Y-78627671D01*
D20*
X146126200Y-78733115D02*
X146100800Y-78707715D01*
X146100800Y-78707715D02*
X146100800Y-77914500D01*
D21*
X152755600Y-82550000D02*
X152984200Y-82778600D01*
X152755600Y-80797400D02*
X152755600Y-82550000D01*
X152755600Y-79248000D02*
X152755600Y-80797400D01*
X164922200Y-81076800D02*
X164541200Y-81076800D01*
X164541200Y-81076800D02*
X164172900Y-81076800D01*
X164541200Y-81076800D02*
X164541200Y-81280000D01*
X153435410Y-76956010D02*
X153113188Y-76956010D01*
X156165852Y-84414854D02*
X154427998Y-82677000D01*
X154699001Y-78219601D02*
X153435410Y-76956010D01*
X154699001Y-82405997D02*
X154699001Y-78219601D01*
X154427998Y-82677000D02*
X154699001Y-82405997D01*
X159010070Y-84414854D02*
X156165852Y-84414854D01*
X153113188Y-76956010D02*
X152310799Y-77758399D01*
X152310799Y-77758399D02*
X152310799Y-78574599D01*
X152532201Y-78796001D02*
X152857200Y-79121000D01*
X148802183Y-78070031D02*
X149127182Y-77745032D01*
X149127182Y-77745032D02*
X149127182Y-77186818D01*
X149127182Y-77186818D02*
X149148800Y-77165200D01*
X159131000Y-90881200D02*
X156972000Y-88900000D01*
X166446200Y-82600800D02*
X164922200Y-81076800D01*
X164172900Y-81076800D02*
X162636200Y-82613500D01*
X127304800Y-77609802D02*
X127063398Y-77609802D01*
X117192300Y-82867500D02*
X119487624Y-85293200D01*
X119487624Y-85185576D02*
X119487624Y-85293200D01*
X127272999Y-77578001D02*
X127304800Y-77609802D01*
X145650001Y-77578001D02*
X127272999Y-77578001D01*
X146100800Y-77914500D02*
X145650001Y-77578001D01*
X119487624Y-85293200D02*
X134797800Y-101473000D01*
X127063398Y-77609802D02*
X119487624Y-85185576D01*
D20*
X113000000Y-74000000D02*
X114960400Y-74523600D01*
X113000000Y-77000000D02*
X113000000Y-74000000D01*
D21*
X117192300Y-82867500D02*
X116192300Y-79603600D01*
X114858800Y-79603600D02*
X114973100Y-79603600D01*
X114973100Y-79603600D02*
X116192300Y-79603600D01*
D20*
X159010070Y-84414854D02*
X159461200Y-83870800D01*
X160934400Y-83947000D02*
X162636200Y-82613500D01*
X160934400Y-83947000D02*
X159461200Y-83870800D01*
X176022000Y-112522000D02*
X178155600Y-110363000D01*
X178155600Y-110363000D02*
X175927419Y-103890664D01*
X175927419Y-103890664D02*
X175915941Y-103857323D01*
X166166800Y-110794800D02*
X160477200Y-112204500D01*
X167894000Y-112522000D02*
X166166800Y-110794800D01*
X169926000Y-110515400D02*
X167894000Y-112522000D01*
X171958000Y-112522000D02*
X169926000Y-110515400D01*
X173990000Y-110515400D02*
X171958000Y-112522000D01*
X176022000Y-112522000D02*
X173990000Y-110515400D01*
X164655500Y-84645500D02*
X164973000Y-84074000D01*
X164973000Y-84074000D02*
X166446200Y-82600800D01*
X166446200Y-82600800D02*
X168402000Y-84582000D01*
X168402000Y-84582000D02*
X168910000Y-83947000D01*
X168910000Y-83947000D02*
X170256200Y-82600800D01*
X170256200Y-82600800D02*
X172021500Y-84391500D01*
X172783500Y-83883500D02*
X174066200Y-82600800D01*
X172021500Y-84391500D02*
X172783500Y-83883500D01*
X149275800Y-114935000D02*
X148590000Y-114947700D01*
D21*
X134797800Y-101155500D02*
X148590000Y-114947700D01*
D20*
X149275800Y-114935000D02*
X153771600Y-114947700D01*
X153771600Y-114947700D02*
X158343600Y-114947700D01*
X158343600Y-114947700D02*
X160477200Y-112204500D01*
D21*
X146862800Y-77165200D02*
X149148800Y-77165200D01*
X146100800Y-77914500D02*
X146106934Y-77908468D01*
X146106934Y-77908468D02*
X146862800Y-77165200D01*
X146449999Y-77578001D02*
X146571001Y-77456999D01*
X151650700Y-77868302D02*
X149860000Y-79659002D01*
X151650700Y-76568300D02*
X151650700Y-77868302D01*
X142875000Y-95681800D02*
X144272000Y-95681800D01*
D20*
X148691600Y-95681800D02*
X149250400Y-95123000D01*
X144272000Y-94411800D02*
X148539200Y-94411800D01*
X148539200Y-94411800D02*
X149250400Y-95123000D01*
D21*
X142875000Y-94411800D02*
X144272000Y-94411800D01*
D24*
X146151600Y-80441800D02*
X138938000Y-80441800D01*
X138938000Y-80441800D02*
X138684000Y-80187800D01*
D21*
X137414000Y-75717400D02*
X137414000Y-75565000D01*
X146100800Y-77914500D02*
X146449999Y-77578001D01*
X149098000Y-120980200D02*
X125399800Y-120980200D01*
X125399800Y-120980200D02*
X123240800Y-123139200D01*
X156972000Y-86452924D02*
X159010070Y-84414854D01*
X156972000Y-88900000D02*
X156972000Y-86452924D01*
X151650700Y-76568300D02*
X152654000Y-75565000D01*
X152603200Y-75615800D02*
X152654000Y-75565000D01*
D20*
X149161500Y-95086800D02*
X149138000Y-95086800D01*
X149161500Y-95110300D02*
X149161500Y-95086800D01*
D21*
X151892000Y-88900000D02*
X154432000Y-88900000D01*
X146812000Y-88900000D02*
X149352000Y-88900000D01*
D20*
X154559000Y-122566853D02*
X154736800Y-122377200D01*
X154355800Y-122783600D02*
X154559000Y-122566853D01*
D21*
X151638000Y-123825000D02*
X154178000Y-123825000D01*
X149098000Y-121031000D02*
X149098000Y-120980200D01*
D20*
X150850600Y-122224800D02*
X150342600Y-122224800D01*
X150342600Y-122224800D02*
X149098000Y-120980200D01*
X152755600Y-120370600D02*
X152704800Y-120370600D01*
X152704800Y-120370600D02*
X150850600Y-122224800D01*
X150850600Y-123037600D02*
X151638000Y-123825000D01*
X150850600Y-122224800D02*
X150850600Y-123037600D01*
X154178000Y-123825000D02*
X154355800Y-123647200D01*
X154355800Y-123647200D02*
X154355800Y-122783600D01*
X154736800Y-122377200D02*
X154736800Y-122275600D01*
X154736800Y-122275600D02*
X152755600Y-120370600D01*
D21*
X150114000Y-75717400D02*
X150114000Y-75565000D01*
D25*
G36*
X176328000Y-74843091D02*
X176328000Y-85979000D01*
X176382046Y-86250705D01*
X176535954Y-86481046D01*
X178868000Y-88813091D01*
X178868000Y-120990909D01*
X176535954Y-123322954D01*
X176382046Y-123553295D01*
X176328000Y-123825000D01*
X176328000Y-125655000D01*
X111708000Y-125655000D01*
X111708000Y-123640255D01*
X137439400Y-123640255D01*
X137439400Y-124009745D01*
X137553474Y-124583234D01*
X137878330Y-125069415D01*
X138364511Y-125394271D01*
X138938000Y-125508345D01*
X139511489Y-125394271D01*
X139997670Y-125069415D01*
X140208000Y-124754634D01*
X140418330Y-125069415D01*
X140904511Y-125394271D01*
X141478000Y-125508345D01*
X142051489Y-125394271D01*
X142537670Y-125069415D01*
X142748000Y-124754634D01*
X142958330Y-125069415D01*
X143444511Y-125394271D01*
X144018000Y-125508345D01*
X144591489Y-125394271D01*
X145077670Y-125069415D01*
X145288000Y-124754634D01*
X145498330Y-125069415D01*
X145984511Y-125394271D01*
X146558000Y-125508345D01*
X147131489Y-125394271D01*
X147617670Y-125069415D01*
X147828000Y-124754634D01*
X148038330Y-125069415D01*
X148524511Y-125394271D01*
X149098000Y-125508345D01*
X149671489Y-125394271D01*
X150157670Y-125069415D01*
X150364461Y-124759931D01*
X150735964Y-125175732D01*
X151263209Y-125429709D01*
X151278974Y-125432358D01*
X151511000Y-125311217D01*
X151511000Y-123952000D01*
X151765000Y-123952000D01*
X151765000Y-125311217D01*
X151997026Y-125432358D01*
X152012791Y-125429709D01*
X152540036Y-125175732D01*
X152908000Y-124763892D01*
X153275964Y-125175732D01*
X153803209Y-125429709D01*
X153818974Y-125432358D01*
X154051000Y-125311217D01*
X154051000Y-123952000D01*
X151765000Y-123952000D01*
X151511000Y-123952000D01*
X151491000Y-123952000D01*
X151491000Y-123698000D01*
X151511000Y-123698000D01*
X151511000Y-123678000D01*
X151765000Y-123678000D01*
X151765000Y-123698000D01*
X154051000Y-123698000D01*
X154051000Y-123678000D01*
X154305000Y-123678000D01*
X154305000Y-123698000D01*
X154325000Y-123698000D01*
X154325000Y-123952000D01*
X154305000Y-123952000D01*
X154305000Y-125311217D01*
X154537026Y-125432358D01*
X154552791Y-125429709D01*
X155080036Y-125175732D01*
X155451539Y-124759931D01*
X155658330Y-125069415D01*
X156144511Y-125394271D01*
X156718000Y-125508345D01*
X157291489Y-125394271D01*
X157777670Y-125069415D01*
X158102526Y-124583234D01*
X158216600Y-124009745D01*
X158216600Y-123640255D01*
X160299400Y-123640255D01*
X160299400Y-124009745D01*
X160413474Y-124583234D01*
X160738330Y-125069415D01*
X161224511Y-125394271D01*
X161798000Y-125508345D01*
X162371489Y-125394271D01*
X162857670Y-125069415D01*
X163068000Y-124754634D01*
X163278330Y-125069415D01*
X163764511Y-125394271D01*
X164338000Y-125508345D01*
X164911489Y-125394271D01*
X165397670Y-125069415D01*
X165608000Y-124754634D01*
X165818330Y-125069415D01*
X166304511Y-125394271D01*
X166878000Y-125508345D01*
X167451489Y-125394271D01*
X167937670Y-125069415D01*
X168148000Y-124754634D01*
X168358330Y-125069415D01*
X168844511Y-125394271D01*
X169418000Y-125508345D01*
X169991489Y-125394271D01*
X170477670Y-125069415D01*
X170688000Y-124754634D01*
X170898330Y-125069415D01*
X171384511Y-125394271D01*
X171958000Y-125508345D01*
X172531489Y-125394271D01*
X173017670Y-125069415D01*
X173228000Y-124754634D01*
X173438330Y-125069415D01*
X173924511Y-125394271D01*
X174498000Y-125508345D01*
X175071489Y-125394271D01*
X175557670Y-125069415D01*
X175882526Y-124583234D01*
X175996600Y-124009745D01*
X175996600Y-123640255D01*
X175882526Y-123066766D01*
X175557670Y-122580585D01*
X175071489Y-122255729D01*
X174498000Y-122141655D01*
X173924511Y-122255729D01*
X173438330Y-122580585D01*
X173228000Y-122895366D01*
X173017670Y-122580585D01*
X172531489Y-122255729D01*
X171958000Y-122141655D01*
X171384511Y-122255729D01*
X170898330Y-122580585D01*
X170688000Y-122895366D01*
X170477670Y-122580585D01*
X169991489Y-122255729D01*
X169418000Y-122141655D01*
X168844511Y-122255729D01*
X168358330Y-122580585D01*
X168148000Y-122895366D01*
X167937670Y-122580585D01*
X167451489Y-122255729D01*
X166878000Y-122141655D01*
X166304511Y-122255729D01*
X165818330Y-122580585D01*
X165608000Y-122895366D01*
X165397670Y-122580585D01*
X164911489Y-122255729D01*
X164338000Y-122141655D01*
X163764511Y-122255729D01*
X163278330Y-122580585D01*
X163068000Y-122895366D01*
X162857670Y-122580585D01*
X162371489Y-122255729D01*
X161798000Y-122141655D01*
X161224511Y-122255729D01*
X160738330Y-122580585D01*
X160413474Y-123066766D01*
X160299400Y-123640255D01*
X158216600Y-123640255D01*
X158102526Y-123066766D01*
X157777670Y-122580585D01*
X157291489Y-122255729D01*
X156718000Y-122141655D01*
X156144511Y-122255729D01*
X155658330Y-122580585D01*
X155451539Y-122890069D01*
X155080036Y-122474268D01*
X154552791Y-122220291D01*
X154537026Y-122217642D01*
X154436805Y-122269967D01*
X154451197Y-122245802D01*
X152755600Y-120550205D01*
X151060003Y-122245802D01*
X151093497Y-122302042D01*
X150735964Y-122474268D01*
X150364461Y-122890069D01*
X150157670Y-122580585D01*
X149671489Y-122255729D01*
X149098000Y-122141655D01*
X148524511Y-122255729D01*
X148038330Y-122580585D01*
X147828000Y-122895366D01*
X147617670Y-122580585D01*
X147131489Y-122255729D01*
X146558000Y-122141655D01*
X145984511Y-122255729D01*
X145498330Y-122580585D01*
X145288000Y-122895366D01*
X145077670Y-122580585D01*
X144591489Y-122255729D01*
X144018000Y-122141655D01*
X143444511Y-122255729D01*
X142958330Y-122580585D01*
X142748000Y-122895366D01*
X142537670Y-122580585D01*
X142051489Y-122255729D01*
X141478000Y-122141655D01*
X140904511Y-122255729D01*
X140418330Y-122580585D01*
X140208000Y-122895366D01*
X139997670Y-122580585D01*
X139511489Y-122255729D01*
X138938000Y-122141655D01*
X138364511Y-122255729D01*
X137878330Y-122580585D01*
X137553474Y-123066766D01*
X137439400Y-123640255D01*
X111708000Y-123640255D01*
X111708000Y-119867553D01*
X150116233Y-119867553D01*
X150124635Y-120915887D01*
X150509651Y-121845397D01*
X150880398Y-122066197D01*
X152575995Y-120370600D01*
X152935205Y-120370600D01*
X154630802Y-122066197D01*
X155001549Y-121845397D01*
X155394967Y-120873647D01*
X155386565Y-119825313D01*
X155001549Y-118895803D01*
X154630802Y-118675003D01*
X152935205Y-120370600D01*
X152575995Y-120370600D01*
X150880398Y-118675003D01*
X150509651Y-118895803D01*
X150116233Y-119867553D01*
X111708000Y-119867553D01*
X111708000Y-118495398D01*
X151060003Y-118495398D01*
X152755600Y-120190995D01*
X154451197Y-118495398D01*
X154230397Y-118124651D01*
X153258647Y-117731233D01*
X152210313Y-117739635D01*
X151280803Y-118124651D01*
X151060003Y-118495398D01*
X111708000Y-118495398D01*
X111708000Y-114832130D01*
X165746690Y-114832130D01*
X165746690Y-117831870D01*
X165795973Y-118079635D01*
X165936321Y-118289679D01*
X166146365Y-118430027D01*
X166394130Y-118479310D01*
X169393870Y-118479310D01*
X169641635Y-118430027D01*
X169851679Y-118289679D01*
X169926000Y-118178451D01*
X170000321Y-118289679D01*
X170210365Y-118430027D01*
X170458130Y-118479310D01*
X173457870Y-118479310D01*
X173705635Y-118430027D01*
X173915679Y-118289679D01*
X173990000Y-118178451D01*
X174064321Y-118289679D01*
X174274365Y-118430027D01*
X174522130Y-118479310D01*
X177521870Y-118479310D01*
X177769635Y-118430027D01*
X177979679Y-118289679D01*
X178120027Y-118079635D01*
X178169310Y-117831870D01*
X178169310Y-114832130D01*
X178120027Y-114584365D01*
X177979679Y-114374321D01*
X177769635Y-114233973D01*
X177521870Y-114184690D01*
X177281684Y-114184690D01*
X177356272Y-114035877D01*
X176022000Y-112701605D01*
X174687728Y-114035877D01*
X174762316Y-114184690D01*
X174522130Y-114184690D01*
X174274365Y-114233973D01*
X174064321Y-114374321D01*
X173990000Y-114485549D01*
X173915679Y-114374321D01*
X173705635Y-114233973D01*
X173457870Y-114184690D01*
X173217684Y-114184690D01*
X173292272Y-114035877D01*
X171958000Y-112701605D01*
X170623728Y-114035877D01*
X170698316Y-114184690D01*
X170458130Y-114184690D01*
X170210365Y-114233973D01*
X170000321Y-114374321D01*
X169926000Y-114485549D01*
X169851679Y-114374321D01*
X169641635Y-114233973D01*
X169393870Y-114184690D01*
X169153684Y-114184690D01*
X169228272Y-114035877D01*
X167894000Y-112701605D01*
X166559728Y-114035877D01*
X166634316Y-114184690D01*
X166394130Y-114184690D01*
X166146365Y-114233973D01*
X165936321Y-114374321D01*
X165795973Y-114584365D01*
X165746690Y-114832130D01*
X111708000Y-114832130D01*
X111708000Y-112138217D01*
X165751405Y-112138217D01*
X165767633Y-112987366D01*
X166061368Y-113696505D01*
X166380123Y-113856272D01*
X167714395Y-112522000D01*
X168073605Y-112522000D01*
X169407877Y-113856272D01*
X169726632Y-113696505D01*
X169920507Y-113201926D01*
X170125368Y-113696505D01*
X170444123Y-113856272D01*
X171778395Y-112522000D01*
X172137605Y-112522000D01*
X173471877Y-113856272D01*
X173790632Y-113696505D01*
X173984507Y-113201926D01*
X174189368Y-113696505D01*
X174508123Y-113856272D01*
X175842395Y-112522000D01*
X176201605Y-112522000D01*
X177535877Y-113856272D01*
X177854632Y-113696505D01*
X178164595Y-112905783D01*
X178148367Y-112056634D01*
X177854632Y-111347495D01*
X177535877Y-111187728D01*
X176201605Y-112522000D01*
X175842395Y-112522000D01*
X174508123Y-111187728D01*
X174189368Y-111347495D01*
X173995493Y-111842074D01*
X173790632Y-111347495D01*
X173471877Y-111187728D01*
X172137605Y-112522000D01*
X171778395Y-112522000D01*
X170444123Y-111187728D01*
X170125368Y-111347495D01*
X169931493Y-111842074D01*
X169726632Y-111347495D01*
X169407877Y-111187728D01*
X168073605Y-112522000D01*
X167714395Y-112522000D01*
X166380123Y-111187728D01*
X166061368Y-111347495D01*
X165751405Y-112138217D01*
X111708000Y-112138217D01*
X111708000Y-106965750D01*
X156381710Y-106965750D01*
X156381710Y-110966250D01*
X156430993Y-111214015D01*
X156571341Y-111424059D01*
X156781385Y-111564407D01*
X157029150Y-111613690D01*
X161029650Y-111613690D01*
X161277415Y-111564407D01*
X161487459Y-111424059D01*
X161627807Y-111214015D01*
X161668761Y-111008123D01*
X166559728Y-111008123D01*
X167894000Y-112342395D01*
X169228272Y-111008123D01*
X170623728Y-111008123D01*
X171958000Y-112342395D01*
X173292272Y-111008123D01*
X174687728Y-111008123D01*
X176022000Y-112342395D01*
X177356272Y-111008123D01*
X177196505Y-110689368D01*
X176405783Y-110379405D01*
X175556634Y-110395633D01*
X174847495Y-110689368D01*
X174687728Y-111008123D01*
X173292272Y-111008123D01*
X173132505Y-110689368D01*
X172341783Y-110379405D01*
X171492634Y-110395633D01*
X170783495Y-110689368D01*
X170623728Y-111008123D01*
X169228272Y-111008123D01*
X169068505Y-110689368D01*
X168277783Y-110379405D01*
X167428634Y-110395633D01*
X166719495Y-110689368D01*
X166559728Y-111008123D01*
X161668761Y-111008123D01*
X161677090Y-110966250D01*
X161677090Y-106965750D01*
X161627807Y-106717985D01*
X161487459Y-106507941D01*
X161277415Y-106367593D01*
X161029650Y-106318310D01*
X157029150Y-106318310D01*
X156781385Y-106367593D01*
X156571341Y-106507941D01*
X156430993Y-106717985D01*
X156381710Y-106965750D01*
X111708000Y-106965750D01*
X111708000Y-95005838D01*
X141804082Y-95005838D01*
X141840000Y-95202534D01*
X141840000Y-95681470D01*
X141839821Y-95886771D01*
X141997058Y-96267315D01*
X142287954Y-96558719D01*
X142668223Y-96716620D01*
X143079971Y-96716979D01*
X143080404Y-96716800D01*
X144271670Y-96716800D01*
X144476971Y-96716979D01*
X144555966Y-96684339D01*
X147844132Y-96736076D01*
X147893659Y-96785690D01*
X147750530Y-96785690D01*
X147502765Y-96834973D01*
X147292721Y-96975321D01*
X147152373Y-97185365D01*
X147103090Y-97433130D01*
X147103090Y-100432870D01*
X147152373Y-100680635D01*
X147292721Y-100890679D01*
X147502765Y-101031027D01*
X147750530Y-101080310D01*
X150750270Y-101080310D01*
X150998035Y-101031027D01*
X151208079Y-100890679D01*
X151348427Y-100680635D01*
X151397710Y-100432870D01*
X151397710Y-99612600D01*
X160636360Y-99612600D01*
X160636360Y-102012600D01*
X160685643Y-102260365D01*
X160825991Y-102470409D01*
X161036035Y-102610757D01*
X161283800Y-102660040D01*
X163683800Y-102660040D01*
X163931565Y-102610757D01*
X164141609Y-102470409D01*
X164281957Y-102260365D01*
X164331240Y-102012600D01*
X164331240Y-99612600D01*
X164281957Y-99364835D01*
X164141609Y-99154791D01*
X163931565Y-99014443D01*
X163683800Y-98965160D01*
X161283800Y-98965160D01*
X161036035Y-99014443D01*
X160825991Y-99154791D01*
X160685643Y-99364835D01*
X160636360Y-99612600D01*
X151397710Y-99612600D01*
X151397710Y-97433130D01*
X151348427Y-97185365D01*
X151208079Y-96975321D01*
X150998035Y-96834973D01*
X150750270Y-96785690D01*
X150606606Y-96785690D01*
X151059200Y-96333886D01*
X151384899Y-95549515D01*
X151385640Y-94700211D01*
X151348273Y-94609775D01*
X161366230Y-94609775D01*
X161489365Y-94897388D01*
X162171534Y-95157307D01*
X162901243Y-95136386D01*
X163478235Y-94897388D01*
X163601370Y-94609775D01*
X162483800Y-93492205D01*
X161366230Y-94609775D01*
X151348273Y-94609775D01*
X151061310Y-93915273D01*
X150461286Y-93314200D01*
X149705413Y-93000334D01*
X160639093Y-93000334D01*
X160660014Y-93730043D01*
X160899012Y-94307035D01*
X161186625Y-94430170D01*
X162304195Y-93312600D01*
X162663405Y-93312600D01*
X163780975Y-94430170D01*
X164068588Y-94307035D01*
X164174322Y-94029530D01*
X173493690Y-94029530D01*
X173493690Y-97029270D01*
X173542973Y-97277035D01*
X173683321Y-97487079D01*
X173893365Y-97627427D01*
X174141130Y-97676710D01*
X177140870Y-97676710D01*
X177388635Y-97627427D01*
X177598679Y-97487079D01*
X177739027Y-97277035D01*
X177788310Y-97029270D01*
X177788310Y-94029530D01*
X177739027Y-93781765D01*
X177598679Y-93571721D01*
X177388635Y-93431373D01*
X177140870Y-93382090D01*
X176997206Y-93382090D01*
X177449800Y-92930286D01*
X177775499Y-92145915D01*
X177776240Y-91296611D01*
X177451910Y-90511673D01*
X176851886Y-89910600D01*
X176067515Y-89584901D01*
X175218211Y-89584160D01*
X174433273Y-89908490D01*
X173832200Y-90508514D01*
X173506501Y-91292885D01*
X173505760Y-92142189D01*
X173830090Y-92927127D01*
X174284259Y-93382090D01*
X174141130Y-93382090D01*
X173893365Y-93431373D01*
X173683321Y-93571721D01*
X173542973Y-93781765D01*
X173493690Y-94029530D01*
X164174322Y-94029530D01*
X164328507Y-93624866D01*
X164307586Y-92895157D01*
X164068588Y-92318165D01*
X163780975Y-92195030D01*
X162663405Y-93312600D01*
X162304195Y-93312600D01*
X161186625Y-92195030D01*
X160899012Y-92318165D01*
X160639093Y-93000334D01*
X149705413Y-93000334D01*
X149676915Y-92988501D01*
X148827611Y-92987760D01*
X148042673Y-93312090D01*
X147888130Y-93466363D01*
X144568237Y-93414127D01*
X144478777Y-93376980D01*
X144067029Y-93376621D01*
X144066596Y-93376800D01*
X142875330Y-93376800D01*
X142670029Y-93376621D01*
X142289485Y-93533858D01*
X141998081Y-93824754D01*
X141840180Y-94205023D01*
X141839821Y-94616771D01*
X141840000Y-94617204D01*
X141840000Y-94839026D01*
X141804082Y-95005838D01*
X111708000Y-95005838D01*
X111708000Y-92015425D01*
X161366230Y-92015425D01*
X162483800Y-93132995D01*
X163601370Y-92015425D01*
X163478235Y-91727812D01*
X162796066Y-91467893D01*
X162066357Y-91488814D01*
X161489365Y-91727812D01*
X161366230Y-92015425D01*
X111708000Y-92015425D01*
X111708000Y-84127377D01*
X161301928Y-84127377D01*
X161461695Y-84446132D01*
X162252417Y-84756095D01*
X163101566Y-84739867D01*
X163810705Y-84446132D01*
X163970472Y-84127377D01*
X163957772Y-84114677D01*
X165111928Y-84114677D01*
X165271695Y-84433432D01*
X166062417Y-84743395D01*
X166911566Y-84727167D01*
X167620705Y-84433432D01*
X167780472Y-84114677D01*
X168921928Y-84114677D01*
X169081695Y-84433432D01*
X169872417Y-84743395D01*
X170721566Y-84727167D01*
X171430705Y-84433432D01*
X171590472Y-84114677D01*
X172731928Y-84114677D01*
X172891695Y-84433432D01*
X173682417Y-84743395D01*
X174531566Y-84727167D01*
X175240705Y-84433432D01*
X175400472Y-84114677D01*
X174066200Y-82780405D01*
X172731928Y-84114677D01*
X171590472Y-84114677D01*
X170256200Y-82780405D01*
X168921928Y-84114677D01*
X167780472Y-84114677D01*
X166446200Y-82780405D01*
X165111928Y-84114677D01*
X163957772Y-84114677D01*
X162636200Y-82793105D01*
X161301928Y-84127377D01*
X111708000Y-84127377D01*
X111708000Y-82229717D01*
X160493605Y-82229717D01*
X160509833Y-83078866D01*
X160803568Y-83788005D01*
X161122323Y-83947772D01*
X162456595Y-82613500D01*
X162815805Y-82613500D01*
X164150077Y-83947772D01*
X164468832Y-83788005D01*
X164541764Y-83601954D01*
X164613568Y-83775305D01*
X164932323Y-83935072D01*
X166266595Y-82600800D01*
X166625805Y-82600800D01*
X167960077Y-83935072D01*
X168278832Y-83775305D01*
X168349206Y-83595779D01*
X168423568Y-83775305D01*
X168742323Y-83935072D01*
X170076595Y-82600800D01*
X170435805Y-82600800D01*
X171770077Y-83935072D01*
X172088832Y-83775305D01*
X172159206Y-83595779D01*
X172233568Y-83775305D01*
X172552323Y-83935072D01*
X173886595Y-82600800D01*
X174245805Y-82600800D01*
X175580077Y-83935072D01*
X175898832Y-83775305D01*
X176208795Y-82984583D01*
X176192567Y-82135434D01*
X175898832Y-81426295D01*
X175580077Y-81266528D01*
X174245805Y-82600800D01*
X173886595Y-82600800D01*
X172552323Y-81266528D01*
X172233568Y-81426295D01*
X172163194Y-81605821D01*
X172088832Y-81426295D01*
X171770077Y-81266528D01*
X170435805Y-82600800D01*
X170076595Y-82600800D01*
X168742323Y-81266528D01*
X168423568Y-81426295D01*
X168353194Y-81605821D01*
X168278832Y-81426295D01*
X167960077Y-81266528D01*
X166625805Y-82600800D01*
X166266595Y-82600800D01*
X164932323Y-81266528D01*
X164613568Y-81426295D01*
X164540636Y-81612346D01*
X164468832Y-81438995D01*
X164150077Y-81279228D01*
X162815805Y-82613500D01*
X162456595Y-82613500D01*
X161122323Y-81279228D01*
X160803568Y-81438995D01*
X160493605Y-82229717D01*
X111708000Y-82229717D01*
X111708000Y-80187800D01*
X137549000Y-80187800D01*
X137635397Y-80622145D01*
X137881434Y-80990366D01*
X138135434Y-81244366D01*
X138503654Y-81490403D01*
X138938000Y-81576800D01*
X146151600Y-81576800D01*
X146585946Y-81490403D01*
X146954166Y-81244366D01*
X147200203Y-80876146D01*
X147286600Y-80441800D01*
X147200203Y-80007454D01*
X146954166Y-79639234D01*
X146585946Y-79393197D01*
X146151600Y-79306800D01*
X139369181Y-79306800D01*
X139118345Y-79139197D01*
X138684000Y-79052800D01*
X138249655Y-79139197D01*
X137881434Y-79385234D01*
X137635397Y-79753455D01*
X137549000Y-80187800D01*
X111708000Y-80187800D01*
X111708000Y-75380255D01*
X128295400Y-75380255D01*
X128295400Y-75749745D01*
X128409474Y-76323234D01*
X128734330Y-76809415D01*
X129220511Y-77134271D01*
X129794000Y-77248345D01*
X130367489Y-77134271D01*
X130853670Y-76809415D01*
X131064000Y-76494634D01*
X131274330Y-76809415D01*
X131760511Y-77134271D01*
X132334000Y-77248345D01*
X132907489Y-77134271D01*
X133393670Y-76809415D01*
X133604000Y-76494634D01*
X133814330Y-76809415D01*
X134300511Y-77134271D01*
X134874000Y-77248345D01*
X135447489Y-77134271D01*
X135933670Y-76809415D01*
X136144000Y-76494634D01*
X136354330Y-76809415D01*
X136840511Y-77134271D01*
X137414000Y-77248345D01*
X137987489Y-77134271D01*
X138473670Y-76809415D01*
X138684000Y-76494634D01*
X138894330Y-76809415D01*
X139380511Y-77134271D01*
X139954000Y-77248345D01*
X140527489Y-77134271D01*
X141013670Y-76809415D01*
X141224000Y-76494634D01*
X141434330Y-76809415D01*
X141920511Y-77134271D01*
X142494000Y-77248345D01*
X143067489Y-77134271D01*
X143553670Y-76809415D01*
X143764000Y-76494634D01*
X143974330Y-76809415D01*
X144460511Y-77134271D01*
X145034000Y-77248345D01*
X145607489Y-77134271D01*
X146093670Y-76809415D01*
X146304000Y-76494634D01*
X146514330Y-76809415D01*
X147000511Y-77134271D01*
X147574000Y-77248345D01*
X148147489Y-77134271D01*
X148633670Y-76809415D01*
X148844000Y-76494634D01*
X149054330Y-76809415D01*
X149540511Y-77134271D01*
X150114000Y-77248345D01*
X150687489Y-77134271D01*
X150840700Y-77031899D01*
X150840700Y-77532789D01*
X149678848Y-78694642D01*
X149664931Y-78694630D01*
X149302771Y-78844271D01*
X149025445Y-79121114D01*
X148875172Y-79483012D01*
X148874830Y-79874869D01*
X149024471Y-80237029D01*
X149301314Y-80514355D01*
X149663212Y-80664628D01*
X150055069Y-80664970D01*
X150417229Y-80515329D01*
X150694555Y-80238486D01*
X150844828Y-79876588D01*
X150844878Y-79819637D01*
X152132056Y-78532459D01*
X152207858Y-78715915D01*
X152498754Y-79007319D01*
X152658000Y-79073444D01*
X152658000Y-80483815D01*
X152508180Y-80844623D01*
X152507821Y-81256371D01*
X152665058Y-81636915D01*
X152955954Y-81928319D01*
X153336223Y-82086220D01*
X153747971Y-82086579D01*
X154128515Y-81929342D01*
X154419919Y-81638446D01*
X154577820Y-81258177D01*
X154578179Y-80846429D01*
X154428000Y-80482967D01*
X154428000Y-78587600D01*
X154360633Y-78248925D01*
X154168790Y-77961810D01*
X154168787Y-77961808D01*
X154112931Y-77905952D01*
X153963742Y-77544885D01*
X153672846Y-77253481D01*
X153292577Y-77095580D01*
X153285403Y-77095574D01*
X153713670Y-76809415D01*
X154038526Y-76323234D01*
X154152600Y-75749745D01*
X154152600Y-75380255D01*
X155219400Y-75380255D01*
X155219400Y-75749745D01*
X155333474Y-76323234D01*
X155658330Y-76809415D01*
X156144511Y-77134271D01*
X156718000Y-77248345D01*
X157291489Y-77134271D01*
X157777670Y-76809415D01*
X157988000Y-76494634D01*
X158198330Y-76809415D01*
X158684511Y-77134271D01*
X159258000Y-77248345D01*
X159831489Y-77134271D01*
X160317670Y-76809415D01*
X160528000Y-76494634D01*
X160736687Y-76806956D01*
X160678521Y-76845821D01*
X160538173Y-77055865D01*
X160488890Y-77303630D01*
X160488890Y-80303370D01*
X160538173Y-80551135D01*
X160678521Y-80761179D01*
X160888565Y-80901527D01*
X161136330Y-80950810D01*
X161376516Y-80950810D01*
X161301928Y-81099623D01*
X162636200Y-82433895D01*
X163970472Y-81099623D01*
X163895884Y-80950810D01*
X164136070Y-80950810D01*
X164383835Y-80901527D01*
X164550703Y-80790028D01*
X164698565Y-80888827D01*
X164946330Y-80938110D01*
X165186516Y-80938110D01*
X165111928Y-81086923D01*
X166446200Y-82421195D01*
X167780472Y-81086923D01*
X167705884Y-80938110D01*
X167946070Y-80938110D01*
X168193835Y-80888827D01*
X168351200Y-80783678D01*
X168508565Y-80888827D01*
X168756330Y-80938110D01*
X168996516Y-80938110D01*
X168921928Y-81086923D01*
X170256200Y-82421195D01*
X171590472Y-81086923D01*
X171515884Y-80938110D01*
X171756070Y-80938110D01*
X172003835Y-80888827D01*
X172161200Y-80783678D01*
X172318565Y-80888827D01*
X172566330Y-80938110D01*
X172806516Y-80938110D01*
X172731928Y-81086923D01*
X174066200Y-82421195D01*
X175400472Y-81086923D01*
X175325884Y-80938110D01*
X175566070Y-80938110D01*
X175813835Y-80888827D01*
X176023879Y-80748479D01*
X176164227Y-80538435D01*
X176213510Y-80290670D01*
X176213510Y-77290930D01*
X176164227Y-77043165D01*
X176023879Y-76833121D01*
X175813835Y-76692773D01*
X175656517Y-76661481D01*
X175882526Y-76323234D01*
X175996600Y-75749745D01*
X175996600Y-75380255D01*
X175882526Y-74806766D01*
X175557670Y-74320585D01*
X175071489Y-73995729D01*
X174498000Y-73881655D01*
X173924511Y-73995729D01*
X173438330Y-74320585D01*
X173228000Y-74635366D01*
X173017670Y-74320585D01*
X172531489Y-73995729D01*
X171958000Y-73881655D01*
X171384511Y-73995729D01*
X170898330Y-74320585D01*
X170688000Y-74635366D01*
X170477670Y-74320585D01*
X169991489Y-73995729D01*
X169418000Y-73881655D01*
X168844511Y-73995729D01*
X168358330Y-74320585D01*
X168148000Y-74635366D01*
X167937670Y-74320585D01*
X167451489Y-73995729D01*
X166878000Y-73881655D01*
X166304511Y-73995729D01*
X165818330Y-74320585D01*
X165608000Y-74635366D01*
X165397670Y-74320585D01*
X164911489Y-73995729D01*
X164338000Y-73881655D01*
X163764511Y-73995729D01*
X163278330Y-74320585D01*
X163068000Y-74635366D01*
X162857670Y-74320585D01*
X162371489Y-73995729D01*
X161798000Y-73881655D01*
X161224511Y-73995729D01*
X160738330Y-74320585D01*
X160528000Y-74635366D01*
X160317670Y-74320585D01*
X159831489Y-73995729D01*
X159258000Y-73881655D01*
X158684511Y-73995729D01*
X158198330Y-74320585D01*
X157988000Y-74635366D01*
X157777670Y-74320585D01*
X157291489Y-73995729D01*
X156718000Y-73881655D01*
X156144511Y-73995729D01*
X155658330Y-74320585D01*
X155333474Y-74806766D01*
X155219400Y-75380255D01*
X154152600Y-75380255D01*
X154038526Y-74806766D01*
X153713670Y-74320585D01*
X153227489Y-73995729D01*
X152654000Y-73881655D01*
X152080511Y-73995729D01*
X151594330Y-74320585D01*
X151384000Y-74635366D01*
X151173670Y-74320585D01*
X150687489Y-73995729D01*
X150114000Y-73881655D01*
X149540511Y-73995729D01*
X149054330Y-74320585D01*
X148844000Y-74635366D01*
X148633670Y-74320585D01*
X148147489Y-73995729D01*
X147574000Y-73881655D01*
X147000511Y-73995729D01*
X146514330Y-74320585D01*
X146304000Y-74635366D01*
X146093670Y-74320585D01*
X145607489Y-73995729D01*
X145034000Y-73881655D01*
X144460511Y-73995729D01*
X143974330Y-74320585D01*
X143764000Y-74635366D01*
X143553670Y-74320585D01*
X143067489Y-73995729D01*
X142494000Y-73881655D01*
X141920511Y-73995729D01*
X141434330Y-74320585D01*
X141224000Y-74635366D01*
X141013670Y-74320585D01*
X140527489Y-73995729D01*
X139954000Y-73881655D01*
X139380511Y-73995729D01*
X138894330Y-74320585D01*
X138684000Y-74635366D01*
X138473670Y-74320585D01*
X137987489Y-73995729D01*
X137414000Y-73881655D01*
X136840511Y-73995729D01*
X136354330Y-74320585D01*
X136144000Y-74635366D01*
X135933670Y-74320585D01*
X135447489Y-73995729D01*
X134874000Y-73881655D01*
X134300511Y-73995729D01*
X133814330Y-74320585D01*
X133604000Y-74635366D01*
X133393670Y-74320585D01*
X132907489Y-73995729D01*
X132334000Y-73881655D01*
X131760511Y-73995729D01*
X131274330Y-74320585D01*
X131064000Y-74635366D01*
X130853670Y-74320585D01*
X130367489Y-73995729D01*
X129794000Y-73881655D01*
X129220511Y-73995729D01*
X128734330Y-74320585D01*
X128409474Y-74806766D01*
X128295400Y-75380255D01*
X111708000Y-75380255D01*
X111708000Y-73735000D01*
X175219908Y-73735000D01*
X176328000Y-74843091D01*
X176328000Y-74843091D01*
G37*
X176328000Y-74843091D02*
X176328000Y-85979000D01*
X176382046Y-86250705D01*
X176535954Y-86481046D01*
X178868000Y-88813091D01*
X178868000Y-120990909D01*
X176535954Y-123322954D01*
X176382046Y-123553295D01*
X176328000Y-123825000D01*
X176328000Y-125655000D01*
X111708000Y-125655000D01*
X111708000Y-123640255D01*
X137439400Y-123640255D01*
X137439400Y-124009745D01*
X137553474Y-124583234D01*
X137878330Y-125069415D01*
X138364511Y-125394271D01*
X138938000Y-125508345D01*
X139511489Y-125394271D01*
X139997670Y-125069415D01*
X140208000Y-124754634D01*
X140418330Y-125069415D01*
X140904511Y-125394271D01*
X141478000Y-125508345D01*
X142051489Y-125394271D01*
X142537670Y-125069415D01*
X142748000Y-124754634D01*
X142958330Y-125069415D01*
X143444511Y-125394271D01*
X144018000Y-125508345D01*
X144591489Y-125394271D01*
X145077670Y-125069415D01*
X145288000Y-124754634D01*
X145498330Y-125069415D01*
X145984511Y-125394271D01*
X146558000Y-125508345D01*
X147131489Y-125394271D01*
X147617670Y-125069415D01*
X147828000Y-124754634D01*
X148038330Y-125069415D01*
X148524511Y-125394271D01*
X149098000Y-125508345D01*
X149671489Y-125394271D01*
X150157670Y-125069415D01*
X150364461Y-124759931D01*
X150735964Y-125175732D01*
X151263209Y-125429709D01*
X151278974Y-125432358D01*
X151511000Y-125311217D01*
X151511000Y-123952000D01*
X151765000Y-123952000D01*
X151765000Y-125311217D01*
X151997026Y-125432358D01*
X152012791Y-125429709D01*
X152540036Y-125175732D01*
X152908000Y-124763892D01*
X153275964Y-125175732D01*
X153803209Y-125429709D01*
X153818974Y-125432358D01*
X154051000Y-125311217D01*
X154051000Y-123952000D01*
X151765000Y-123952000D01*
X151511000Y-123952000D01*
X151491000Y-123952000D01*
X151491000Y-123698000D01*
X151511000Y-123698000D01*
X151511000Y-123678000D01*
X151765000Y-123678000D01*
X151765000Y-123698000D01*
X154051000Y-123698000D01*
X154051000Y-123678000D01*
X154305000Y-123678000D01*
X154305000Y-123698000D01*
X154325000Y-123698000D01*
X154325000Y-123952000D01*
X154305000Y-123952000D01*
X154305000Y-125311217D01*
X154537026Y-125432358D01*
X154552791Y-125429709D01*
X155080036Y-125175732D01*
X155451539Y-124759931D01*
X155658330Y-125069415D01*
X156144511Y-125394271D01*
X156718000Y-125508345D01*
X157291489Y-125394271D01*
X157777670Y-125069415D01*
X158102526Y-124583234D01*
X158216600Y-124009745D01*
X158216600Y-123640255D01*
X160299400Y-123640255D01*
X160299400Y-124009745D01*
X160413474Y-124583234D01*
X160738330Y-125069415D01*
X161224511Y-125394271D01*
X161798000Y-125508345D01*
X162371489Y-125394271D01*
X162857670Y-125069415D01*
X163068000Y-124754634D01*
X163278330Y-125069415D01*
X163764511Y-125394271D01*
X164338000Y-125508345D01*
X164911489Y-125394271D01*
X165397670Y-125069415D01*
X165608000Y-124754634D01*
X165818330Y-125069415D01*
X166304511Y-125394271D01*
X166878000Y-125508345D01*
X167451489Y-125394271D01*
X167937670Y-125069415D01*
X168148000Y-124754634D01*
X168358330Y-125069415D01*
X168844511Y-125394271D01*
X169418000Y-125508345D01*
X169991489Y-125394271D01*
X170477670Y-125069415D01*
X170688000Y-124754634D01*
X170898330Y-125069415D01*
X171384511Y-125394271D01*
X171958000Y-125508345D01*
X172531489Y-125394271D01*
X173017670Y-125069415D01*
X173228000Y-124754634D01*
X173438330Y-125069415D01*
X173924511Y-125394271D01*
X174498000Y-125508345D01*
X175071489Y-125394271D01*
X175557670Y-125069415D01*
X175882526Y-124583234D01*
X175996600Y-124009745D01*
X175996600Y-123640255D01*
X175882526Y-123066766D01*
X175557670Y-122580585D01*
X175071489Y-122255729D01*
X174498000Y-122141655D01*
X173924511Y-122255729D01*
X173438330Y-122580585D01*
X173228000Y-122895366D01*
X173017670Y-122580585D01*
X172531489Y-122255729D01*
X171958000Y-122141655D01*
X171384511Y-122255729D01*
X170898330Y-122580585D01*
X170688000Y-122895366D01*
X170477670Y-122580585D01*
X169991489Y-122255729D01*
X169418000Y-122141655D01*
X168844511Y-122255729D01*
X168358330Y-122580585D01*
X168148000Y-122895366D01*
X167937670Y-122580585D01*
X167451489Y-122255729D01*
X166878000Y-122141655D01*
X166304511Y-122255729D01*
X165818330Y-122580585D01*
X165608000Y-122895366D01*
X165397670Y-122580585D01*
X164911489Y-122255729D01*
X164338000Y-122141655D01*
X163764511Y-122255729D01*
X163278330Y-122580585D01*
X163068000Y-122895366D01*
X162857670Y-122580585D01*
X162371489Y-122255729D01*
X161798000Y-122141655D01*
X161224511Y-122255729D01*
X160738330Y-122580585D01*
X160413474Y-123066766D01*
X160299400Y-123640255D01*
X158216600Y-123640255D01*
X158102526Y-123066766D01*
X157777670Y-122580585D01*
X157291489Y-122255729D01*
X156718000Y-122141655D01*
X156144511Y-122255729D01*
X155658330Y-122580585D01*
X155451539Y-122890069D01*
X155080036Y-122474268D01*
X154552791Y-122220291D01*
X154537026Y-122217642D01*
X154436805Y-122269967D01*
X154451197Y-122245802D01*
X152755600Y-120550205D01*
X151060003Y-122245802D01*
X151093497Y-122302042D01*
X150735964Y-122474268D01*
X150364461Y-122890069D01*
X150157670Y-122580585D01*
X149671489Y-122255729D01*
X149098000Y-122141655D01*
X148524511Y-122255729D01*
X148038330Y-122580585D01*
X147828000Y-122895366D01*
X147617670Y-122580585D01*
X147131489Y-122255729D01*
X146558000Y-122141655D01*
X145984511Y-122255729D01*
X145498330Y-122580585D01*
X145288000Y-122895366D01*
X145077670Y-122580585D01*
X144591489Y-122255729D01*
X144018000Y-122141655D01*
X143444511Y-122255729D01*
X142958330Y-122580585D01*
X142748000Y-122895366D01*
X142537670Y-122580585D01*
X142051489Y-122255729D01*
X141478000Y-122141655D01*
X140904511Y-122255729D01*
X140418330Y-122580585D01*
X140208000Y-122895366D01*
X139997670Y-122580585D01*
X139511489Y-122255729D01*
X138938000Y-122141655D01*
X138364511Y-122255729D01*
X137878330Y-122580585D01*
X137553474Y-123066766D01*
X137439400Y-123640255D01*
X111708000Y-123640255D01*
X111708000Y-119867553D01*
X150116233Y-119867553D01*
X150124635Y-120915887D01*
X150509651Y-121845397D01*
X150880398Y-122066197D01*
X152575995Y-120370600D01*
X152935205Y-120370600D01*
X154630802Y-122066197D01*
X155001549Y-121845397D01*
X155394967Y-120873647D01*
X155386565Y-119825313D01*
X155001549Y-118895803D01*
X154630802Y-118675003D01*
X152935205Y-120370600D01*
X152575995Y-120370600D01*
X150880398Y-118675003D01*
X150509651Y-118895803D01*
X150116233Y-119867553D01*
X111708000Y-119867553D01*
X111708000Y-118495398D01*
X151060003Y-118495398D01*
X152755600Y-120190995D01*
X154451197Y-118495398D01*
X154230397Y-118124651D01*
X153258647Y-117731233D01*
X152210313Y-117739635D01*
X151280803Y-118124651D01*
X151060003Y-118495398D01*
X111708000Y-118495398D01*
X111708000Y-114832130D01*
X165746690Y-114832130D01*
X165746690Y-117831870D01*
X165795973Y-118079635D01*
X165936321Y-118289679D01*
X166146365Y-118430027D01*
X166394130Y-118479310D01*
X169393870Y-118479310D01*
X169641635Y-118430027D01*
X169851679Y-118289679D01*
X169926000Y-118178451D01*
X170000321Y-118289679D01*
X170210365Y-118430027D01*
X170458130Y-118479310D01*
X173457870Y-118479310D01*
X173705635Y-118430027D01*
X173915679Y-118289679D01*
X173990000Y-118178451D01*
X174064321Y-118289679D01*
X174274365Y-118430027D01*
X174522130Y-118479310D01*
X177521870Y-118479310D01*
X177769635Y-118430027D01*
X177979679Y-118289679D01*
X178120027Y-118079635D01*
X178169310Y-117831870D01*
X178169310Y-114832130D01*
X178120027Y-114584365D01*
X177979679Y-114374321D01*
X177769635Y-114233973D01*
X177521870Y-114184690D01*
X177281684Y-114184690D01*
X177356272Y-114035877D01*
X176022000Y-112701605D01*
X174687728Y-114035877D01*
X174762316Y-114184690D01*
X174522130Y-114184690D01*
X174274365Y-114233973D01*
X174064321Y-114374321D01*
X173990000Y-114485549D01*
X173915679Y-114374321D01*
X173705635Y-114233973D01*
X173457870Y-114184690D01*
X173217684Y-114184690D01*
X173292272Y-114035877D01*
X171958000Y-112701605D01*
X170623728Y-114035877D01*
X170698316Y-114184690D01*
X170458130Y-114184690D01*
X170210365Y-114233973D01*
X170000321Y-114374321D01*
X169926000Y-114485549D01*
X169851679Y-114374321D01*
X169641635Y-114233973D01*
X169393870Y-114184690D01*
X169153684Y-114184690D01*
X169228272Y-114035877D01*
X167894000Y-112701605D01*
X166559728Y-114035877D01*
X166634316Y-114184690D01*
X166394130Y-114184690D01*
X166146365Y-114233973D01*
X165936321Y-114374321D01*
X165795973Y-114584365D01*
X165746690Y-114832130D01*
X111708000Y-114832130D01*
X111708000Y-112138217D01*
X165751405Y-112138217D01*
X165767633Y-112987366D01*
X166061368Y-113696505D01*
X166380123Y-113856272D01*
X167714395Y-112522000D01*
X168073605Y-112522000D01*
X169407877Y-113856272D01*
X169726632Y-113696505D01*
X169920507Y-113201926D01*
X170125368Y-113696505D01*
X170444123Y-113856272D01*
X171778395Y-112522000D01*
X172137605Y-112522000D01*
X173471877Y-113856272D01*
X173790632Y-113696505D01*
X173984507Y-113201926D01*
X174189368Y-113696505D01*
X174508123Y-113856272D01*
X175842395Y-112522000D01*
X176201605Y-112522000D01*
X177535877Y-113856272D01*
X177854632Y-113696505D01*
X178164595Y-112905783D01*
X178148367Y-112056634D01*
X177854632Y-111347495D01*
X177535877Y-111187728D01*
X176201605Y-112522000D01*
X175842395Y-112522000D01*
X174508123Y-111187728D01*
X174189368Y-111347495D01*
X173995493Y-111842074D01*
X173790632Y-111347495D01*
X173471877Y-111187728D01*
X172137605Y-112522000D01*
X171778395Y-112522000D01*
X170444123Y-111187728D01*
X170125368Y-111347495D01*
X169931493Y-111842074D01*
X169726632Y-111347495D01*
X169407877Y-111187728D01*
X168073605Y-112522000D01*
X167714395Y-112522000D01*
X166380123Y-111187728D01*
X166061368Y-111347495D01*
X165751405Y-112138217D01*
X111708000Y-112138217D01*
X111708000Y-106965750D01*
X156381710Y-106965750D01*
X156381710Y-110966250D01*
X156430993Y-111214015D01*
X156571341Y-111424059D01*
X156781385Y-111564407D01*
X157029150Y-111613690D01*
X161029650Y-111613690D01*
X161277415Y-111564407D01*
X161487459Y-111424059D01*
X161627807Y-111214015D01*
X161668761Y-111008123D01*
X166559728Y-111008123D01*
X167894000Y-112342395D01*
X169228272Y-111008123D01*
X170623728Y-111008123D01*
X171958000Y-112342395D01*
X173292272Y-111008123D01*
X174687728Y-111008123D01*
X176022000Y-112342395D01*
X177356272Y-111008123D01*
X177196505Y-110689368D01*
X176405783Y-110379405D01*
X175556634Y-110395633D01*
X174847495Y-110689368D01*
X174687728Y-111008123D01*
X173292272Y-111008123D01*
X173132505Y-110689368D01*
X172341783Y-110379405D01*
X171492634Y-110395633D01*
X170783495Y-110689368D01*
X170623728Y-111008123D01*
X169228272Y-111008123D01*
X169068505Y-110689368D01*
X168277783Y-110379405D01*
X167428634Y-110395633D01*
X166719495Y-110689368D01*
X166559728Y-111008123D01*
X161668761Y-111008123D01*
X161677090Y-110966250D01*
X161677090Y-106965750D01*
X161627807Y-106717985D01*
X161487459Y-106507941D01*
X161277415Y-106367593D01*
X161029650Y-106318310D01*
X157029150Y-106318310D01*
X156781385Y-106367593D01*
X156571341Y-106507941D01*
X156430993Y-106717985D01*
X156381710Y-106965750D01*
X111708000Y-106965750D01*
X111708000Y-95005838D01*
X141804082Y-95005838D01*
X141840000Y-95202534D01*
X141840000Y-95681470D01*
X141839821Y-95886771D01*
X141997058Y-96267315D01*
X142287954Y-96558719D01*
X142668223Y-96716620D01*
X143079971Y-96716979D01*
X143080404Y-96716800D01*
X144271670Y-96716800D01*
X144476971Y-96716979D01*
X144555966Y-96684339D01*
X147844132Y-96736076D01*
X147893659Y-96785690D01*
X147750530Y-96785690D01*
X147502765Y-96834973D01*
X147292721Y-96975321D01*
X147152373Y-97185365D01*
X147103090Y-97433130D01*
X147103090Y-100432870D01*
X147152373Y-100680635D01*
X147292721Y-100890679D01*
X147502765Y-101031027D01*
X147750530Y-101080310D01*
X150750270Y-101080310D01*
X150998035Y-101031027D01*
X151208079Y-100890679D01*
X151348427Y-100680635D01*
X151397710Y-100432870D01*
X151397710Y-99612600D01*
X160636360Y-99612600D01*
X160636360Y-102012600D01*
X160685643Y-102260365D01*
X160825991Y-102470409D01*
X161036035Y-102610757D01*
X161283800Y-102660040D01*
X163683800Y-102660040D01*
X163931565Y-102610757D01*
X164141609Y-102470409D01*
X164281957Y-102260365D01*
X164331240Y-102012600D01*
X164331240Y-99612600D01*
X164281957Y-99364835D01*
X164141609Y-99154791D01*
X163931565Y-99014443D01*
X163683800Y-98965160D01*
X161283800Y-98965160D01*
X161036035Y-99014443D01*
X160825991Y-99154791D01*
X160685643Y-99364835D01*
X160636360Y-99612600D01*
X151397710Y-99612600D01*
X151397710Y-97433130D01*
X151348427Y-97185365D01*
X151208079Y-96975321D01*
X150998035Y-96834973D01*
X150750270Y-96785690D01*
X150606606Y-96785690D01*
X151059200Y-96333886D01*
X151384899Y-95549515D01*
X151385640Y-94700211D01*
X151348273Y-94609775D01*
X161366230Y-94609775D01*
X161489365Y-94897388D01*
X162171534Y-95157307D01*
X162901243Y-95136386D01*
X163478235Y-94897388D01*
X163601370Y-94609775D01*
X162483800Y-93492205D01*
X161366230Y-94609775D01*
X151348273Y-94609775D01*
X151061310Y-93915273D01*
X150461286Y-93314200D01*
X149705413Y-93000334D01*
X160639093Y-93000334D01*
X160660014Y-93730043D01*
X160899012Y-94307035D01*
X161186625Y-94430170D01*
X162304195Y-93312600D01*
X162663405Y-93312600D01*
X163780975Y-94430170D01*
X164068588Y-94307035D01*
X164174322Y-94029530D01*
X173493690Y-94029530D01*
X173493690Y-97029270D01*
X173542973Y-97277035D01*
X173683321Y-97487079D01*
X173893365Y-97627427D01*
X174141130Y-97676710D01*
X177140870Y-97676710D01*
X177388635Y-97627427D01*
X177598679Y-97487079D01*
X177739027Y-97277035D01*
X177788310Y-97029270D01*
X177788310Y-94029530D01*
X177739027Y-93781765D01*
X177598679Y-93571721D01*
X177388635Y-93431373D01*
X177140870Y-93382090D01*
X176997206Y-93382090D01*
X177449800Y-92930286D01*
X177775499Y-92145915D01*
X177776240Y-91296611D01*
X177451910Y-90511673D01*
X176851886Y-89910600D01*
X176067515Y-89584901D01*
X175218211Y-89584160D01*
X174433273Y-89908490D01*
X173832200Y-90508514D01*
X173506501Y-91292885D01*
X173505760Y-92142189D01*
X173830090Y-92927127D01*
X174284259Y-93382090D01*
X174141130Y-93382090D01*
X173893365Y-93431373D01*
X173683321Y-93571721D01*
X173542973Y-93781765D01*
X173493690Y-94029530D01*
X164174322Y-94029530D01*
X164328507Y-93624866D01*
X164307586Y-92895157D01*
X164068588Y-92318165D01*
X163780975Y-92195030D01*
X162663405Y-93312600D01*
X162304195Y-93312600D01*
X161186625Y-92195030D01*
X160899012Y-92318165D01*
X160639093Y-93000334D01*
X149705413Y-93000334D01*
X149676915Y-92988501D01*
X148827611Y-92987760D01*
X148042673Y-93312090D01*
X147888130Y-93466363D01*
X144568237Y-93414127D01*
X144478777Y-93376980D01*
X144067029Y-93376621D01*
X144066596Y-93376800D01*
X142875330Y-93376800D01*
X142670029Y-93376621D01*
X142289485Y-93533858D01*
X141998081Y-93824754D01*
X141840180Y-94205023D01*
X141839821Y-94616771D01*
X141840000Y-94617204D01*
X141840000Y-94839026D01*
X141804082Y-95005838D01*
X111708000Y-95005838D01*
X111708000Y-92015425D01*
X161366230Y-92015425D01*
X162483800Y-93132995D01*
X163601370Y-92015425D01*
X163478235Y-91727812D01*
X162796066Y-91467893D01*
X162066357Y-91488814D01*
X161489365Y-91727812D01*
X161366230Y-92015425D01*
X111708000Y-92015425D01*
X111708000Y-84127377D01*
X161301928Y-84127377D01*
X161461695Y-84446132D01*
X162252417Y-84756095D01*
X163101566Y-84739867D01*
X163810705Y-84446132D01*
X163970472Y-84127377D01*
X163957772Y-84114677D01*
X165111928Y-84114677D01*
X165271695Y-84433432D01*
X166062417Y-84743395D01*
X166911566Y-84727167D01*
X167620705Y-84433432D01*
X167780472Y-84114677D01*
X168921928Y-84114677D01*
X169081695Y-84433432D01*
X169872417Y-84743395D01*
X170721566Y-84727167D01*
X171430705Y-84433432D01*
X171590472Y-84114677D01*
X172731928Y-84114677D01*
X172891695Y-84433432D01*
X173682417Y-84743395D01*
X174531566Y-84727167D01*
X175240705Y-84433432D01*
X175400472Y-84114677D01*
X174066200Y-82780405D01*
X172731928Y-84114677D01*
X171590472Y-84114677D01*
X170256200Y-82780405D01*
X168921928Y-84114677D01*
X167780472Y-84114677D01*
X166446200Y-82780405D01*
X165111928Y-84114677D01*
X163957772Y-84114677D01*
X162636200Y-82793105D01*
X161301928Y-84127377D01*
X111708000Y-84127377D01*
X111708000Y-82229717D01*
X160493605Y-82229717D01*
X160509833Y-83078866D01*
X160803568Y-83788005D01*
X161122323Y-83947772D01*
X162456595Y-82613500D01*
X162815805Y-82613500D01*
X164150077Y-83947772D01*
X164468832Y-83788005D01*
X164541764Y-83601954D01*
X164613568Y-83775305D01*
X164932323Y-83935072D01*
X166266595Y-82600800D01*
X166625805Y-82600800D01*
X167960077Y-83935072D01*
X168278832Y-83775305D01*
X168349206Y-83595779D01*
X168423568Y-83775305D01*
X168742323Y-83935072D01*
X170076595Y-82600800D01*
X170435805Y-82600800D01*
X171770077Y-83935072D01*
X172088832Y-83775305D01*
X172159206Y-83595779D01*
X172233568Y-83775305D01*
X172552323Y-83935072D01*
X173886595Y-82600800D01*
X174245805Y-82600800D01*
X175580077Y-83935072D01*
X175898832Y-83775305D01*
X176208795Y-82984583D01*
X176192567Y-82135434D01*
X175898832Y-81426295D01*
X175580077Y-81266528D01*
X174245805Y-82600800D01*
X173886595Y-82600800D01*
X172552323Y-81266528D01*
X172233568Y-81426295D01*
X172163194Y-81605821D01*
X172088832Y-81426295D01*
X171770077Y-81266528D01*
X170435805Y-82600800D01*
X170076595Y-82600800D01*
X168742323Y-81266528D01*
X168423568Y-81426295D01*
X168353194Y-81605821D01*
X168278832Y-81426295D01*
X167960077Y-81266528D01*
X166625805Y-82600800D01*
X166266595Y-82600800D01*
X164932323Y-81266528D01*
X164613568Y-81426295D01*
X164540636Y-81612346D01*
X164468832Y-81438995D01*
X164150077Y-81279228D01*
X162815805Y-82613500D01*
X162456595Y-82613500D01*
X161122323Y-81279228D01*
X160803568Y-81438995D01*
X160493605Y-82229717D01*
X111708000Y-82229717D01*
X111708000Y-80187800D01*
X137549000Y-80187800D01*
X137635397Y-80622145D01*
X137881434Y-80990366D01*
X138135434Y-81244366D01*
X138503654Y-81490403D01*
X138938000Y-81576800D01*
X146151600Y-81576800D01*
X146585946Y-81490403D01*
X146954166Y-81244366D01*
X147200203Y-80876146D01*
X147286600Y-80441800D01*
X147200203Y-80007454D01*
X146954166Y-79639234D01*
X146585946Y-79393197D01*
X146151600Y-79306800D01*
X139369181Y-79306800D01*
X139118345Y-79139197D01*
X138684000Y-79052800D01*
X138249655Y-79139197D01*
X137881434Y-79385234D01*
X137635397Y-79753455D01*
X137549000Y-80187800D01*
X111708000Y-80187800D01*
X111708000Y-75380255D01*
X128295400Y-75380255D01*
X128295400Y-75749745D01*
X128409474Y-76323234D01*
X128734330Y-76809415D01*
X129220511Y-77134271D01*
X129794000Y-77248345D01*
X130367489Y-77134271D01*
X130853670Y-76809415D01*
X131064000Y-76494634D01*
X131274330Y-76809415D01*
X131760511Y-77134271D01*
X132334000Y-77248345D01*
X132907489Y-77134271D01*
X133393670Y-76809415D01*
X133604000Y-76494634D01*
X133814330Y-76809415D01*
X134300511Y-77134271D01*
X134874000Y-77248345D01*
X135447489Y-77134271D01*
X135933670Y-76809415D01*
X136144000Y-76494634D01*
X136354330Y-76809415D01*
X136840511Y-77134271D01*
X137414000Y-77248345D01*
X137987489Y-77134271D01*
X138473670Y-76809415D01*
X138684000Y-76494634D01*
X138894330Y-76809415D01*
X139380511Y-77134271D01*
X139954000Y-77248345D01*
X140527489Y-77134271D01*
X141013670Y-76809415D01*
X141224000Y-76494634D01*
X141434330Y-76809415D01*
X141920511Y-77134271D01*
X142494000Y-77248345D01*
X143067489Y-77134271D01*
X143553670Y-76809415D01*
X143764000Y-76494634D01*
X143974330Y-76809415D01*
X144460511Y-77134271D01*
X145034000Y-77248345D01*
X145607489Y-77134271D01*
X146093670Y-76809415D01*
X146304000Y-76494634D01*
X146514330Y-76809415D01*
X147000511Y-77134271D01*
X147574000Y-77248345D01*
X148147489Y-77134271D01*
X148633670Y-76809415D01*
X148844000Y-76494634D01*
X149054330Y-76809415D01*
X149540511Y-77134271D01*
X150114000Y-77248345D01*
X150687489Y-77134271D01*
X150840700Y-77031899D01*
X150840700Y-77532789D01*
X149678848Y-78694642D01*
X149664931Y-78694630D01*
X149302771Y-78844271D01*
X149025445Y-79121114D01*
X148875172Y-79483012D01*
X148874830Y-79874869D01*
X149024471Y-80237029D01*
X149301314Y-80514355D01*
X149663212Y-80664628D01*
X150055069Y-80664970D01*
X150417229Y-80515329D01*
X150694555Y-80238486D01*
X150844828Y-79876588D01*
X150844878Y-79819637D01*
X152132056Y-78532459D01*
X152207858Y-78715915D01*
X152498754Y-79007319D01*
X152658000Y-79073444D01*
X152658000Y-80483815D01*
X152508180Y-80844623D01*
X152507821Y-81256371D01*
X152665058Y-81636915D01*
X152955954Y-81928319D01*
X153336223Y-82086220D01*
X153747971Y-82086579D01*
X154128515Y-81929342D01*
X154419919Y-81638446D01*
X154577820Y-81258177D01*
X154578179Y-80846429D01*
X154428000Y-80482967D01*
X154428000Y-78587600D01*
X154360633Y-78248925D01*
X154168790Y-77961810D01*
X154168787Y-77961808D01*
X154112931Y-77905952D01*
X153963742Y-77544885D01*
X153672846Y-77253481D01*
X153292577Y-77095580D01*
X153285403Y-77095574D01*
X153713670Y-76809415D01*
X154038526Y-76323234D01*
X154152600Y-75749745D01*
X154152600Y-75380255D01*
X155219400Y-75380255D01*
X155219400Y-75749745D01*
X155333474Y-76323234D01*
X155658330Y-76809415D01*
X156144511Y-77134271D01*
X156718000Y-77248345D01*
X157291489Y-77134271D01*
X157777670Y-76809415D01*
X157988000Y-76494634D01*
X158198330Y-76809415D01*
X158684511Y-77134271D01*
X159258000Y-77248345D01*
X159831489Y-77134271D01*
X160317670Y-76809415D01*
X160528000Y-76494634D01*
X160736687Y-76806956D01*
X160678521Y-76845821D01*
X160538173Y-77055865D01*
X160488890Y-77303630D01*
X160488890Y-80303370D01*
X160538173Y-80551135D01*
X160678521Y-80761179D01*
X160888565Y-80901527D01*
X161136330Y-80950810D01*
X161376516Y-80950810D01*
X161301928Y-81099623D01*
X162636200Y-82433895D01*
X163970472Y-81099623D01*
X163895884Y-80950810D01*
X164136070Y-80950810D01*
X164383835Y-80901527D01*
X164550703Y-80790028D01*
X164698565Y-80888827D01*
X164946330Y-80938110D01*
X165186516Y-80938110D01*
X165111928Y-81086923D01*
X166446200Y-82421195D01*
X167780472Y-81086923D01*
X167705884Y-80938110D01*
X167946070Y-80938110D01*
X168193835Y-80888827D01*
X168351200Y-80783678D01*
X168508565Y-80888827D01*
X168756330Y-80938110D01*
X168996516Y-80938110D01*
X168921928Y-81086923D01*
X170256200Y-82421195D01*
X171590472Y-81086923D01*
X171515884Y-80938110D01*
X171756070Y-80938110D01*
X172003835Y-80888827D01*
X172161200Y-80783678D01*
X172318565Y-80888827D01*
X172566330Y-80938110D01*
X172806516Y-80938110D01*
X172731928Y-81086923D01*
X174066200Y-82421195D01*
X175400472Y-81086923D01*
X175325884Y-80938110D01*
X175566070Y-80938110D01*
X175813835Y-80888827D01*
X176023879Y-80748479D01*
X176164227Y-80538435D01*
X176213510Y-80290670D01*
X176213510Y-77290930D01*
X176164227Y-77043165D01*
X176023879Y-76833121D01*
X175813835Y-76692773D01*
X175656517Y-76661481D01*
X175882526Y-76323234D01*
X175996600Y-75749745D01*
X175996600Y-75380255D01*
X175882526Y-74806766D01*
X175557670Y-74320585D01*
X175071489Y-73995729D01*
X174498000Y-73881655D01*
X173924511Y-73995729D01*
X173438330Y-74320585D01*
X173228000Y-74635366D01*
X173017670Y-74320585D01*
X172531489Y-73995729D01*
X171958000Y-73881655D01*
X171384511Y-73995729D01*
X170898330Y-74320585D01*
X170688000Y-74635366D01*
X170477670Y-74320585D01*
X169991489Y-73995729D01*
X169418000Y-73881655D01*
X168844511Y-73995729D01*
X168358330Y-74320585D01*
X168148000Y-74635366D01*
X167937670Y-74320585D01*
X167451489Y-73995729D01*
X166878000Y-73881655D01*
X166304511Y-73995729D01*
X165818330Y-74320585D01*
X165608000Y-74635366D01*
X165397670Y-74320585D01*
X164911489Y-73995729D01*
X164338000Y-73881655D01*
X163764511Y-73995729D01*
X163278330Y-74320585D01*
X163068000Y-74635366D01*
X162857670Y-74320585D01*
X162371489Y-73995729D01*
X161798000Y-73881655D01*
X161224511Y-73995729D01*
X160738330Y-74320585D01*
X160528000Y-74635366D01*
X160317670Y-74320585D01*
X159831489Y-73995729D01*
X159258000Y-73881655D01*
X158684511Y-73995729D01*
X158198330Y-74320585D01*
X157988000Y-74635366D01*
X157777670Y-74320585D01*
X157291489Y-73995729D01*
X156718000Y-73881655D01*
X156144511Y-73995729D01*
X155658330Y-74320585D01*
X155333474Y-74806766D01*
X155219400Y-75380255D01*
X154152600Y-75380255D01*
X154038526Y-74806766D01*
X153713670Y-74320585D01*
X153227489Y-73995729D01*
X152654000Y-73881655D01*
X152080511Y-73995729D01*
X151594330Y-74320585D01*
X151384000Y-74635366D01*
X151173670Y-74320585D01*
X150687489Y-73995729D01*
X150114000Y-73881655D01*
X149540511Y-73995729D01*
X149054330Y-74320585D01*
X148844000Y-74635366D01*
X148633670Y-74320585D01*
X148147489Y-73995729D01*
X147574000Y-73881655D01*
X147000511Y-73995729D01*
X146514330Y-74320585D01*
X146304000Y-74635366D01*
X146093670Y-74320585D01*
X145607489Y-73995729D01*
X145034000Y-73881655D01*
X144460511Y-73995729D01*
X143974330Y-74320585D01*
X143764000Y-74635366D01*
X143553670Y-74320585D01*
X143067489Y-73995729D01*
X142494000Y-73881655D01*
X141920511Y-73995729D01*
X141434330Y-74320585D01*
X141224000Y-74635366D01*
X141013670Y-74320585D01*
X140527489Y-73995729D01*
X139954000Y-73881655D01*
X139380511Y-73995729D01*
X138894330Y-74320585D01*
X138684000Y-74635366D01*
X138473670Y-74320585D01*
X137987489Y-73995729D01*
X137414000Y-73881655D01*
X136840511Y-73995729D01*
X136354330Y-74320585D01*
X136144000Y-74635366D01*
X135933670Y-74320585D01*
X135447489Y-73995729D01*
X134874000Y-73881655D01*
X134300511Y-73995729D01*
X133814330Y-74320585D01*
X133604000Y-74635366D01*
X133393670Y-74320585D01*
X132907489Y-73995729D01*
X132334000Y-73881655D01*
X131760511Y-73995729D01*
X131274330Y-74320585D01*
X131064000Y-74635366D01*
X130853670Y-74320585D01*
X130367489Y-73995729D01*
X129794000Y-73881655D01*
X129220511Y-73995729D01*
X128734330Y-74320585D01*
X128409474Y-74806766D01*
X128295400Y-75380255D01*
X111708000Y-75380255D01*
X111708000Y-73735000D01*
X175219908Y-73735000D01*
X176328000Y-74843091D01*
M02*
