G04 #@! TF.GenerationSoftware,KiCad,Pcbnew,(2017-11-06 revision 9df4ae65e)-makepkg*
G04 #@! TF.CreationDate,2017-12-06T02:01:24-08:00*
G04 #@! TF.ProjectId,MHz_LED_Modulator,4D487A5F4C45445F4D6F64756C61746F,rev?*
G04 #@! TF.SameCoordinates,Original*
G04 #@! TF.FileFunction,Legend,Top*
G04 #@! TF.FilePolarity,Positive*
%FSLAX46Y46*%
G04 Gerber Fmt 4.6, Leading zero omitted, Abs format (unit mm)*
G04 Created by KiCad (PCBNEW (2017-11-06 revision 9df4ae65e)-makepkg) date 12/06/17 02:01:24*
%MOMM*%
%LPD*%
G01*
G04 APERTURE LIST*
%ADD10C,0.150000*%
%ADD11C,0.200000*%
%ADD12C,0.300000*%
%ADD13C,0.250000*%
%ADD14C,0.120000*%
%ADD15C,0.400000*%
%ADD16C,0.152400*%
G04 APERTURE END LIST*
D10*
X157525980Y-80162400D02*
X156764076Y-80162400D01*
X156954552Y-80352876D02*
X156764076Y-80162400D01*
X156954552Y-79971923D01*
D11*
X148272857Y-104193314D02*
X148272857Y-104859980D01*
X148034761Y-103812361D02*
X147796666Y-104526647D01*
X148415714Y-104526647D01*
X148796666Y-104764742D02*
X148844285Y-104812361D01*
X148796666Y-104859980D01*
X148749047Y-104812361D01*
X148796666Y-104764742D01*
X148796666Y-104859980D01*
X149225238Y-103955219D02*
X149272857Y-103907600D01*
X149368095Y-103859980D01*
X149606190Y-103859980D01*
X149701428Y-103907600D01*
X149749047Y-103955219D01*
X149796666Y-104050457D01*
X149796666Y-104145695D01*
X149749047Y-104288552D01*
X149177619Y-104859980D01*
X149796666Y-104859980D01*
X150082380Y-103859980D02*
X150415714Y-104859980D01*
X150749047Y-103859980D01*
X151844285Y-104859980D02*
X151844285Y-104193314D01*
X151844285Y-104288552D02*
X151891904Y-104240933D01*
X151987142Y-104193314D01*
X152130000Y-104193314D01*
X152225238Y-104240933D01*
X152272857Y-104336171D01*
X152272857Y-104859980D01*
X152272857Y-104336171D02*
X152320476Y-104240933D01*
X152415714Y-104193314D01*
X152558571Y-104193314D01*
X152653809Y-104240933D01*
X152701428Y-104336171D01*
X152701428Y-104859980D01*
X153606190Y-104859980D02*
X153606190Y-104336171D01*
X153558571Y-104240933D01*
X153463333Y-104193314D01*
X153272857Y-104193314D01*
X153177619Y-104240933D01*
X153606190Y-104812361D02*
X153510952Y-104859980D01*
X153272857Y-104859980D01*
X153177619Y-104812361D01*
X153130000Y-104717123D01*
X153130000Y-104621885D01*
X153177619Y-104526647D01*
X153272857Y-104479028D01*
X153510952Y-104479028D01*
X153606190Y-104431409D01*
X153987142Y-104859980D02*
X154510952Y-104193314D01*
X153987142Y-104193314D02*
X154510952Y-104859980D01*
X147082380Y-105988552D02*
X146987142Y-105940933D01*
X146939523Y-105893314D01*
X146891904Y-105798076D01*
X146891904Y-105750457D01*
X146939523Y-105655219D01*
X146987142Y-105607600D01*
X147082380Y-105559980D01*
X147272857Y-105559980D01*
X147368095Y-105607600D01*
X147415714Y-105655219D01*
X147463333Y-105750457D01*
X147463333Y-105798076D01*
X147415714Y-105893314D01*
X147368095Y-105940933D01*
X147272857Y-105988552D01*
X147082380Y-105988552D01*
X146987142Y-106036171D01*
X146939523Y-106083790D01*
X146891904Y-106179028D01*
X146891904Y-106369504D01*
X146939523Y-106464742D01*
X146987142Y-106512361D01*
X147082380Y-106559980D01*
X147272857Y-106559980D01*
X147368095Y-106512361D01*
X147415714Y-106464742D01*
X147463333Y-106369504D01*
X147463333Y-106179028D01*
X147415714Y-106083790D01*
X147368095Y-106036171D01*
X147272857Y-105988552D01*
X148082380Y-105559980D02*
X148177619Y-105559980D01*
X148272857Y-105607600D01*
X148320476Y-105655219D01*
X148368095Y-105750457D01*
X148415714Y-105940933D01*
X148415714Y-106179028D01*
X148368095Y-106369504D01*
X148320476Y-106464742D01*
X148272857Y-106512361D01*
X148177619Y-106559980D01*
X148082380Y-106559980D01*
X147987142Y-106512361D01*
X147939523Y-106464742D01*
X147891904Y-106369504D01*
X147844285Y-106179028D01*
X147844285Y-105940933D01*
X147891904Y-105750457D01*
X147939523Y-105655219D01*
X147987142Y-105607600D01*
X148082380Y-105559980D01*
X149034761Y-105559980D02*
X149130000Y-105559980D01*
X149225238Y-105607600D01*
X149272857Y-105655219D01*
X149320476Y-105750457D01*
X149368095Y-105940933D01*
X149368095Y-106179028D01*
X149320476Y-106369504D01*
X149272857Y-106464742D01*
X149225238Y-106512361D01*
X149130000Y-106559980D01*
X149034761Y-106559980D01*
X148939523Y-106512361D01*
X148891904Y-106464742D01*
X148844285Y-106369504D01*
X148796666Y-106179028D01*
X148796666Y-105940933D01*
X148844285Y-105750457D01*
X148891904Y-105655219D01*
X148939523Y-105607600D01*
X149034761Y-105559980D01*
X149796666Y-106559980D02*
X149796666Y-105893314D01*
X149796666Y-105988552D02*
X149844285Y-105940933D01*
X149939523Y-105893314D01*
X150082380Y-105893314D01*
X150177619Y-105940933D01*
X150225238Y-106036171D01*
X150225238Y-106559980D01*
X150225238Y-106036171D02*
X150272857Y-105940933D01*
X150368095Y-105893314D01*
X150510952Y-105893314D01*
X150606190Y-105940933D01*
X150653809Y-106036171D01*
X150653809Y-106559980D01*
X151082380Y-106274266D02*
X151558571Y-106274266D01*
X150987142Y-106559980D02*
X151320476Y-105559980D01*
X151653809Y-106559980D01*
X152749047Y-106559980D02*
X152749047Y-105893314D01*
X152749047Y-105988552D02*
X152796666Y-105940933D01*
X152891904Y-105893314D01*
X153034761Y-105893314D01*
X153130000Y-105940933D01*
X153177619Y-106036171D01*
X153177619Y-106559980D01*
X153177619Y-106036171D02*
X153225238Y-105940933D01*
X153320476Y-105893314D01*
X153463333Y-105893314D01*
X153558571Y-105940933D01*
X153606190Y-106036171D01*
X153606190Y-106559980D01*
X154510952Y-106559980D02*
X154510952Y-106036171D01*
X154463333Y-105940933D01*
X154368095Y-105893314D01*
X154177619Y-105893314D01*
X154082380Y-105940933D01*
X154510952Y-106512361D02*
X154415714Y-106559980D01*
X154177619Y-106559980D01*
X154082380Y-106512361D01*
X154034761Y-106417123D01*
X154034761Y-106321885D01*
X154082380Y-106226647D01*
X154177619Y-106179028D01*
X154415714Y-106179028D01*
X154510952Y-106131409D01*
X154891904Y-106559980D02*
X155415714Y-105893314D01*
X154891904Y-105893314D02*
X155415714Y-106559980D01*
X172761590Y-101874580D02*
X172190161Y-101874580D01*
X172475876Y-101874580D02*
X172475876Y-100874580D01*
X172380638Y-101017438D01*
X172285400Y-101112676D01*
X172190161Y-101160295D01*
X173142542Y-100969819D02*
X173190161Y-100922200D01*
X173285400Y-100874580D01*
X173523495Y-100874580D01*
X173618733Y-100922200D01*
X173666352Y-100969819D01*
X173713971Y-101065057D01*
X173713971Y-101160295D01*
X173666352Y-101303152D01*
X173094923Y-101874580D01*
X173713971Y-101874580D01*
X173999685Y-100874580D02*
X174333019Y-101874580D01*
X174666352Y-100874580D01*
X176523495Y-101207914D02*
X175761590Y-101493628D01*
X176523495Y-101779342D01*
X177523495Y-101874580D02*
X176952066Y-101874580D01*
X177237780Y-101874580D02*
X177237780Y-100874580D01*
X177142542Y-101017438D01*
X177047304Y-101112676D01*
X176952066Y-101160295D01*
X177904447Y-101588866D02*
X178380638Y-101588866D01*
X177809209Y-101874580D02*
X178142542Y-100874580D01*
X178475876Y-101874580D01*
X163608666Y-107647714D02*
X163608666Y-108457238D01*
X163561047Y-108552476D01*
X163513428Y-108600095D01*
X163418190Y-108647714D01*
X163275333Y-108647714D01*
X163180095Y-108600095D01*
X163608666Y-108266761D02*
X163513428Y-108314380D01*
X163322952Y-108314380D01*
X163227714Y-108266761D01*
X163180095Y-108219142D01*
X163132476Y-108123904D01*
X163132476Y-107838190D01*
X163180095Y-107742952D01*
X163227714Y-107695333D01*
X163322952Y-107647714D01*
X163513428Y-107647714D01*
X163608666Y-107695333D01*
X164084857Y-108314380D02*
X164084857Y-107647714D01*
X164084857Y-107314380D02*
X164037238Y-107362000D01*
X164084857Y-107409619D01*
X164132476Y-107362000D01*
X164084857Y-107314380D01*
X164084857Y-107409619D01*
X164418190Y-107647714D02*
X164799142Y-107647714D01*
X164561047Y-107314380D02*
X164561047Y-108171523D01*
X164608666Y-108266761D01*
X164703904Y-108314380D01*
X164799142Y-108314380D01*
X165132476Y-108314380D02*
X165132476Y-107314380D01*
X165561047Y-108314380D02*
X165561047Y-107790571D01*
X165513428Y-107695333D01*
X165418190Y-107647714D01*
X165275333Y-107647714D01*
X165180095Y-107695333D01*
X165132476Y-107742952D01*
X166465809Y-107647714D02*
X166465809Y-108314380D01*
X166037238Y-107647714D02*
X166037238Y-108171523D01*
X166084857Y-108266761D01*
X166180095Y-108314380D01*
X166322952Y-108314380D01*
X166418190Y-108266761D01*
X166465809Y-108219142D01*
X166942000Y-108314380D02*
X166942000Y-107314380D01*
X166942000Y-107695333D02*
X167037238Y-107647714D01*
X167227714Y-107647714D01*
X167322952Y-107695333D01*
X167370571Y-107742952D01*
X167418190Y-107838190D01*
X167418190Y-108123904D01*
X167370571Y-108219142D01*
X167322952Y-108266761D01*
X167227714Y-108314380D01*
X167037238Y-108314380D01*
X166942000Y-108266761D01*
X167846761Y-108219142D02*
X167894380Y-108266761D01*
X167846761Y-108314380D01*
X167799142Y-108266761D01*
X167846761Y-108219142D01*
X167846761Y-108314380D01*
X168751523Y-108266761D02*
X168656285Y-108314380D01*
X168465809Y-108314380D01*
X168370571Y-108266761D01*
X168322952Y-108219142D01*
X168275333Y-108123904D01*
X168275333Y-107838190D01*
X168322952Y-107742952D01*
X168370571Y-107695333D01*
X168465809Y-107647714D01*
X168656285Y-107647714D01*
X168751523Y-107695333D01*
X169322952Y-108314380D02*
X169227714Y-108266761D01*
X169180095Y-108219142D01*
X169132476Y-108123904D01*
X169132476Y-107838190D01*
X169180095Y-107742952D01*
X169227714Y-107695333D01*
X169322952Y-107647714D01*
X169465809Y-107647714D01*
X169561047Y-107695333D01*
X169608666Y-107742952D01*
X169656285Y-107838190D01*
X169656285Y-108123904D01*
X169608666Y-108219142D01*
X169561047Y-108266761D01*
X169465809Y-108314380D01*
X169322952Y-108314380D01*
X170084857Y-108314380D02*
X170084857Y-107647714D01*
X170084857Y-107742952D02*
X170132476Y-107695333D01*
X170227714Y-107647714D01*
X170370571Y-107647714D01*
X170465809Y-107695333D01*
X170513428Y-107790571D01*
X170513428Y-108314380D01*
X170513428Y-107790571D02*
X170561047Y-107695333D01*
X170656285Y-107647714D01*
X170799142Y-107647714D01*
X170894380Y-107695333D01*
X170942000Y-107790571D01*
X170942000Y-108314380D01*
X172132476Y-107266761D02*
X171275333Y-108552476D01*
X172608666Y-108314380D02*
X172513428Y-108266761D01*
X172465809Y-108171523D01*
X172465809Y-107314380D01*
X173132476Y-108314380D02*
X173037238Y-108266761D01*
X172989619Y-108171523D01*
X172989619Y-107314380D01*
X173942000Y-108314380D02*
X173942000Y-107790571D01*
X173894380Y-107695333D01*
X173799142Y-107647714D01*
X173608666Y-107647714D01*
X173513428Y-107695333D01*
X173942000Y-108266761D02*
X173846761Y-108314380D01*
X173608666Y-108314380D01*
X173513428Y-108266761D01*
X173465809Y-108171523D01*
X173465809Y-108076285D01*
X173513428Y-107981047D01*
X173608666Y-107933428D01*
X173846761Y-107933428D01*
X173942000Y-107885809D01*
X174418190Y-108314380D02*
X174418190Y-107647714D01*
X174418190Y-107742952D02*
X174465809Y-107695333D01*
X174561047Y-107647714D01*
X174703904Y-107647714D01*
X174799142Y-107695333D01*
X174846761Y-107790571D01*
X174846761Y-108314380D01*
X174846761Y-107790571D02*
X174894380Y-107695333D01*
X174989619Y-107647714D01*
X175132476Y-107647714D01*
X175227714Y-107695333D01*
X175275333Y-107790571D01*
X175275333Y-108314380D01*
X176132476Y-108266761D02*
X176037238Y-108314380D01*
X175846761Y-108314380D01*
X175751523Y-108266761D01*
X175703904Y-108171523D01*
X175703904Y-107790571D01*
X175751523Y-107695333D01*
X175846761Y-107647714D01*
X176037238Y-107647714D01*
X176132476Y-107695333D01*
X176180095Y-107790571D01*
X176180095Y-107885809D01*
X175703904Y-107981047D01*
X176608666Y-108314380D02*
X176608666Y-107647714D01*
X176608666Y-107838190D02*
X176656285Y-107742952D01*
X176703904Y-107695333D01*
X176799142Y-107647714D01*
X176894380Y-107647714D01*
X177370571Y-108314380D02*
X177275333Y-108266761D01*
X177227714Y-108219142D01*
X177180095Y-108123904D01*
X177180095Y-107838190D01*
X177227714Y-107742952D01*
X177275333Y-107695333D01*
X177370571Y-107647714D01*
X177513428Y-107647714D01*
X177608666Y-107695333D01*
X177656285Y-107742952D01*
X177703904Y-107838190D01*
X177703904Y-108123904D01*
X177656285Y-108219142D01*
X177608666Y-108266761D01*
X177513428Y-108314380D01*
X177370571Y-108314380D01*
X178846761Y-107266761D02*
X177989619Y-108552476D01*
X163870571Y-110014380D02*
X163870571Y-109014380D01*
X164203904Y-109728666D01*
X164537238Y-109014380D01*
X164537238Y-110014380D01*
X165013428Y-110014380D02*
X165013428Y-109014380D01*
X165013428Y-109490571D02*
X165584857Y-109490571D01*
X165584857Y-110014380D02*
X165584857Y-109014380D01*
X165965809Y-109347714D02*
X166489619Y-109347714D01*
X165965809Y-110014380D01*
X166489619Y-110014380D01*
X166632476Y-110109619D02*
X167394380Y-110109619D01*
X168108666Y-110014380D02*
X167632476Y-110014380D01*
X167632476Y-109014380D01*
X168442000Y-109490571D02*
X168775333Y-109490571D01*
X168918190Y-110014380D02*
X168442000Y-110014380D01*
X168442000Y-109014380D01*
X168918190Y-109014380D01*
X169346761Y-110014380D02*
X169346761Y-109014380D01*
X169584857Y-109014380D01*
X169727714Y-109062000D01*
X169822952Y-109157238D01*
X169870571Y-109252476D01*
X169918190Y-109442952D01*
X169918190Y-109585809D01*
X169870571Y-109776285D01*
X169822952Y-109871523D01*
X169727714Y-109966761D01*
X169584857Y-110014380D01*
X169346761Y-110014380D01*
X170108666Y-110109619D02*
X170870571Y-110109619D01*
X171108666Y-110014380D02*
X171108666Y-109014380D01*
X171442000Y-109728666D01*
X171775333Y-109014380D01*
X171775333Y-110014380D01*
X172394380Y-110014380D02*
X172299142Y-109966761D01*
X172251523Y-109919142D01*
X172203904Y-109823904D01*
X172203904Y-109538190D01*
X172251523Y-109442952D01*
X172299142Y-109395333D01*
X172394380Y-109347714D01*
X172537238Y-109347714D01*
X172632476Y-109395333D01*
X172680095Y-109442952D01*
X172727714Y-109538190D01*
X172727714Y-109823904D01*
X172680095Y-109919142D01*
X172632476Y-109966761D01*
X172537238Y-110014380D01*
X172394380Y-110014380D01*
X173584857Y-110014380D02*
X173584857Y-109014380D01*
X173584857Y-109966761D02*
X173489619Y-110014380D01*
X173299142Y-110014380D01*
X173203904Y-109966761D01*
X173156285Y-109919142D01*
X173108666Y-109823904D01*
X173108666Y-109538190D01*
X173156285Y-109442952D01*
X173203904Y-109395333D01*
X173299142Y-109347714D01*
X173489619Y-109347714D01*
X173584857Y-109395333D01*
X174489619Y-109347714D02*
X174489619Y-110014380D01*
X174061047Y-109347714D02*
X174061047Y-109871523D01*
X174108666Y-109966761D01*
X174203904Y-110014380D01*
X174346761Y-110014380D01*
X174442000Y-109966761D01*
X174489619Y-109919142D01*
X175108666Y-110014380D02*
X175013428Y-109966761D01*
X174965809Y-109871523D01*
X174965809Y-109014380D01*
X175918190Y-110014380D02*
X175918190Y-109490571D01*
X175870571Y-109395333D01*
X175775333Y-109347714D01*
X175584857Y-109347714D01*
X175489619Y-109395333D01*
X175918190Y-109966761D02*
X175822952Y-110014380D01*
X175584857Y-110014380D01*
X175489619Y-109966761D01*
X175442000Y-109871523D01*
X175442000Y-109776285D01*
X175489619Y-109681047D01*
X175584857Y-109633428D01*
X175822952Y-109633428D01*
X175918190Y-109585809D01*
X176251523Y-109347714D02*
X176632476Y-109347714D01*
X176394380Y-109014380D02*
X176394380Y-109871523D01*
X176442000Y-109966761D01*
X176537238Y-110014380D01*
X176632476Y-110014380D01*
X177108666Y-110014380D02*
X177013428Y-109966761D01*
X176965809Y-109919142D01*
X176918190Y-109823904D01*
X176918190Y-109538190D01*
X176965809Y-109442952D01*
X177013428Y-109395333D01*
X177108666Y-109347714D01*
X177251523Y-109347714D01*
X177346761Y-109395333D01*
X177394380Y-109442952D01*
X177442000Y-109538190D01*
X177442000Y-109823904D01*
X177394380Y-109919142D01*
X177346761Y-109966761D01*
X177251523Y-110014380D01*
X177108666Y-110014380D01*
X177870571Y-110014380D02*
X177870571Y-109347714D01*
X177870571Y-109538190D02*
X177918190Y-109442952D01*
X177965809Y-109395333D01*
X178061047Y-109347714D01*
X178156285Y-109347714D01*
D12*
X174426714Y-99029057D02*
X173926714Y-99029057D01*
X173926714Y-99814771D02*
X173926714Y-98314771D01*
X174641000Y-98314771D01*
X175141000Y-99386200D02*
X175855285Y-99386200D01*
X174998142Y-99814771D02*
X175498142Y-98314771D01*
X175998142Y-99814771D01*
X176498142Y-99814771D02*
X176498142Y-98314771D01*
X177355285Y-99814771D01*
X177355285Y-98314771D01*
X148667114Y-102938971D02*
X147952828Y-102938971D01*
X147952828Y-101438971D01*
X149167114Y-102153257D02*
X149667114Y-102153257D01*
X149881400Y-102938971D02*
X149167114Y-102938971D01*
X149167114Y-101438971D01*
X149881400Y-101438971D01*
X150524257Y-102938971D02*
X150524257Y-101438971D01*
X150881400Y-101438971D01*
X151095685Y-101510400D01*
X151238542Y-101653257D01*
X151309971Y-101796114D01*
X151381400Y-102081828D01*
X151381400Y-102296114D01*
X151309971Y-102581828D01*
X151238542Y-102724685D01*
X151095685Y-102867542D01*
X150881400Y-102938971D01*
X150524257Y-102938971D01*
D11*
X130921238Y-79510000D02*
X130826000Y-79462380D01*
X130683142Y-79462380D01*
X130540285Y-79510000D01*
X130445047Y-79605238D01*
X130397428Y-79700476D01*
X130349809Y-79890952D01*
X130349809Y-80033809D01*
X130397428Y-80224285D01*
X130445047Y-80319523D01*
X130540285Y-80414761D01*
X130683142Y-80462380D01*
X130778380Y-80462380D01*
X130921238Y-80414761D01*
X130968857Y-80367142D01*
X130968857Y-80033809D01*
X130778380Y-80033809D01*
X131826000Y-80462380D02*
X131826000Y-79938571D01*
X131778380Y-79843333D01*
X131683142Y-79795714D01*
X131492666Y-79795714D01*
X131397428Y-79843333D01*
X131826000Y-80414761D02*
X131730761Y-80462380D01*
X131492666Y-80462380D01*
X131397428Y-80414761D01*
X131349809Y-80319523D01*
X131349809Y-80224285D01*
X131397428Y-80129047D01*
X131492666Y-80081428D01*
X131730761Y-80081428D01*
X131826000Y-80033809D01*
X132159333Y-79795714D02*
X132540285Y-79795714D01*
X132302190Y-79462380D02*
X132302190Y-80319523D01*
X132349809Y-80414761D01*
X132445047Y-80462380D01*
X132540285Y-80462380D01*
X133254571Y-80414761D02*
X133159333Y-80462380D01*
X132968857Y-80462380D01*
X132873619Y-80414761D01*
X132826000Y-80319523D01*
X132826000Y-79938571D01*
X132873619Y-79843333D01*
X132968857Y-79795714D01*
X133159333Y-79795714D01*
X133254571Y-79843333D01*
X133302190Y-79938571D01*
X133302190Y-80033809D01*
X132826000Y-80129047D01*
X113879904Y-122896380D02*
X114451333Y-122896380D01*
X114165619Y-123896380D02*
X114165619Y-122896380D01*
X115165619Y-123848761D02*
X115070380Y-123896380D01*
X114879904Y-123896380D01*
X114784666Y-123848761D01*
X114737047Y-123753523D01*
X114737047Y-123372571D01*
X114784666Y-123277333D01*
X114879904Y-123229714D01*
X115070380Y-123229714D01*
X115165619Y-123277333D01*
X115213238Y-123372571D01*
X115213238Y-123467809D01*
X114737047Y-123563047D01*
X115641809Y-123896380D02*
X115641809Y-123229714D01*
X115641809Y-123324952D02*
X115689428Y-123277333D01*
X115784666Y-123229714D01*
X115927523Y-123229714D01*
X116022761Y-123277333D01*
X116070380Y-123372571D01*
X116070380Y-123896380D01*
X116070380Y-123372571D02*
X116118000Y-123277333D01*
X116213238Y-123229714D01*
X116356095Y-123229714D01*
X116451333Y-123277333D01*
X116498952Y-123372571D01*
X116498952Y-123896380D01*
X116975142Y-123229714D02*
X116975142Y-124229714D01*
X116975142Y-123277333D02*
X117070380Y-123229714D01*
X117260857Y-123229714D01*
X117356095Y-123277333D01*
X117403714Y-123324952D01*
X117451333Y-123420190D01*
X117451333Y-123705904D01*
X117403714Y-123801142D01*
X117356095Y-123848761D01*
X117260857Y-123896380D01*
X117070380Y-123896380D01*
X116975142Y-123848761D01*
X118594190Y-123848761D02*
X118737047Y-123896380D01*
X118975142Y-123896380D01*
X119070380Y-123848761D01*
X119118000Y-123801142D01*
X119165619Y-123705904D01*
X119165619Y-123610666D01*
X119118000Y-123515428D01*
X119070380Y-123467809D01*
X118975142Y-123420190D01*
X118784666Y-123372571D01*
X118689428Y-123324952D01*
X118641809Y-123277333D01*
X118594190Y-123182095D01*
X118594190Y-123086857D01*
X118641809Y-122991619D01*
X118689428Y-122944000D01*
X118784666Y-122896380D01*
X119022761Y-122896380D01*
X119165619Y-122944000D01*
X119975142Y-123848761D02*
X119879904Y-123896380D01*
X119689428Y-123896380D01*
X119594190Y-123848761D01*
X119546571Y-123753523D01*
X119546571Y-123372571D01*
X119594190Y-123277333D01*
X119689428Y-123229714D01*
X119879904Y-123229714D01*
X119975142Y-123277333D01*
X120022761Y-123372571D01*
X120022761Y-123467809D01*
X119546571Y-123563047D01*
X120451333Y-123229714D02*
X120451333Y-123896380D01*
X120451333Y-123324952D02*
X120498952Y-123277333D01*
X120594190Y-123229714D01*
X120737047Y-123229714D01*
X120832285Y-123277333D01*
X120879904Y-123372571D01*
X120879904Y-123896380D01*
X121308476Y-123848761D02*
X121403714Y-123896380D01*
X121594190Y-123896380D01*
X121689428Y-123848761D01*
X121737047Y-123753523D01*
X121737047Y-123705904D01*
X121689428Y-123610666D01*
X121594190Y-123563047D01*
X121451333Y-123563047D01*
X121356095Y-123515428D01*
X121308476Y-123420190D01*
X121308476Y-123372571D01*
X121356095Y-123277333D01*
X121451333Y-123229714D01*
X121594190Y-123229714D01*
X121689428Y-123277333D01*
X122308476Y-123896380D02*
X122213238Y-123848761D01*
X122165619Y-123801142D01*
X122118000Y-123705904D01*
X122118000Y-123420190D01*
X122165619Y-123324952D01*
X122213238Y-123277333D01*
X122308476Y-123229714D01*
X122451333Y-123229714D01*
X122546571Y-123277333D01*
X122594190Y-123324952D01*
X122641809Y-123420190D01*
X122641809Y-123705904D01*
X122594190Y-123801142D01*
X122546571Y-123848761D01*
X122451333Y-123896380D01*
X122308476Y-123896380D01*
X123070380Y-123896380D02*
X123070380Y-123229714D01*
X123070380Y-123420190D02*
X123118000Y-123324952D01*
X123165619Y-123277333D01*
X123260857Y-123229714D01*
X123356095Y-123229714D01*
D10*
X145288000Y-84988400D02*
X145288000Y-117932200D01*
D12*
X156083142Y-118630000D02*
X155940285Y-118558571D01*
X155726000Y-118558571D01*
X155511714Y-118630000D01*
X155368857Y-118772857D01*
X155297428Y-118915714D01*
X155226000Y-119201428D01*
X155226000Y-119415714D01*
X155297428Y-119701428D01*
X155368857Y-119844285D01*
X155511714Y-119987142D01*
X155726000Y-120058571D01*
X155868857Y-120058571D01*
X156083142Y-119987142D01*
X156154571Y-119915714D01*
X156154571Y-119415714D01*
X155868857Y-119415714D01*
X156797428Y-120058571D02*
X156797428Y-118558571D01*
X157654571Y-120058571D01*
X157654571Y-118558571D01*
X158368857Y-120058571D02*
X158368857Y-118558571D01*
X158726000Y-118558571D01*
X158940285Y-118630000D01*
X159083142Y-118772857D01*
X159154571Y-118915714D01*
X159226000Y-119201428D01*
X159226000Y-119415714D01*
X159154571Y-119701428D01*
X159083142Y-119844285D01*
X158940285Y-119987142D01*
X158726000Y-120058571D01*
X158368857Y-120058571D01*
X125222000Y-80975200D02*
X112268000Y-80975200D01*
X125222000Y-121970800D02*
X112268000Y-121970800D01*
D10*
X156143960Y-108021120D02*
X148269960Y-108021120D01*
X156143960Y-111069120D02*
X156143960Y-108021120D01*
X148269960Y-111069120D02*
X156143960Y-111069120D01*
X148269960Y-108021120D02*
X148269960Y-111069120D01*
D13*
X148881579Y-108997500D02*
X149214912Y-109997500D01*
X149548245Y-108997500D01*
X149881579Y-109997500D02*
X149881579Y-109330834D01*
X149881579Y-108997500D02*
X149833960Y-109045120D01*
X149881579Y-109092739D01*
X149929198Y-109045120D01*
X149881579Y-108997500D01*
X149881579Y-109092739D01*
X150357769Y-109330834D02*
X150357769Y-109997500D01*
X150357769Y-109426072D02*
X150405388Y-109378453D01*
X150500626Y-109330834D01*
X150643483Y-109330834D01*
X150738721Y-109378453D01*
X150786340Y-109473691D01*
X150786340Y-109997500D01*
X152310150Y-110378453D02*
X152262531Y-110330834D01*
X152167293Y-110187977D01*
X152119674Y-110092739D01*
X152072055Y-109949881D01*
X152024436Y-109711786D01*
X152024436Y-109521310D01*
X152072055Y-109283215D01*
X152119674Y-109140358D01*
X152167293Y-109045120D01*
X152262531Y-108902262D01*
X152310150Y-108854643D01*
X153214912Y-109997500D02*
X152643483Y-109997500D01*
X152929198Y-109997500D02*
X152929198Y-108997500D01*
X152833960Y-109140358D01*
X152738721Y-109235596D01*
X152643483Y-109283215D01*
X153595864Y-109092739D02*
X153643483Y-109045120D01*
X153738721Y-108997500D01*
X153976817Y-108997500D01*
X154072055Y-109045120D01*
X154119674Y-109092739D01*
X154167293Y-109187977D01*
X154167293Y-109283215D01*
X154119674Y-109426072D01*
X153548245Y-109997500D01*
X154167293Y-109997500D01*
X154453007Y-108997500D02*
X154786340Y-109997500D01*
X155119674Y-108997500D01*
X155357769Y-110378453D02*
X155405388Y-110330834D01*
X155500626Y-110187977D01*
X155548245Y-110092739D01*
X155595864Y-109949881D01*
X155643483Y-109711786D01*
X155643483Y-109521310D01*
X155595864Y-109283215D01*
X155548245Y-109140358D01*
X155500626Y-109045120D01*
X155405388Y-108902262D01*
X155357769Y-108854643D01*
D10*
X144851380Y-121507285D02*
X144851380Y-122078714D01*
X144851380Y-121793000D02*
X143851380Y-121793000D01*
X143994238Y-121888238D01*
X144089476Y-121983476D01*
X144137095Y-122078714D01*
D14*
X155741600Y-78342000D02*
X154341600Y-78342000D01*
X154341600Y-80662000D02*
X156241600Y-80662000D01*
D15*
X173736000Y-104702000D02*
X173736000Y-104952000D01*
D12*
X174736000Y-104902000D02*
G75*
G03X174736000Y-104902000I-1000000J0D01*
G01*
X177530000Y-104902000D02*
G75*
G03X177530000Y-104902000I-1000000J0D01*
G01*
X170688000Y-106172000D02*
G75*
G03X170688000Y-106172000I0J1270000D01*
G01*
D14*
X149335000Y-78954400D02*
X149335000Y-80354400D01*
X151655000Y-80354400D02*
X151655000Y-78454400D01*
D12*
X141341000Y-80973000D02*
X124841000Y-80973000D01*
X145341000Y-84973000D02*
G75*
G03X141341000Y-80973000I-4000000J0D01*
G01*
X141341000Y-121973000D02*
G75*
G03X145341000Y-117973000I0J4000000D01*
G01*
X141341000Y-121973000D02*
X124841000Y-121973000D01*
D14*
X135086600Y-124234600D02*
X133086600Y-124234600D01*
X133086600Y-122094600D02*
X135086600Y-122094600D01*
X126203200Y-122069200D02*
X128203200Y-122069200D01*
X128203200Y-124209200D02*
X126203200Y-124209200D01*
X151107800Y-84039200D02*
X151107800Y-86039200D01*
X148967800Y-86039200D02*
X148967800Y-84039200D01*
X154413400Y-86039200D02*
X154413400Y-84039200D01*
X151453400Y-84039200D02*
X151453400Y-86039200D01*
X148609500Y-86026500D02*
X148609500Y-84026500D01*
X145649500Y-84026500D02*
X145649500Y-86026500D01*
X150743100Y-115947700D02*
X150743100Y-113947700D01*
X147783100Y-113947700D02*
X147783100Y-115947700D01*
X156863600Y-113884200D02*
X156863600Y-115884200D01*
X159823600Y-115884200D02*
X159823600Y-113884200D01*
X155251600Y-115884200D02*
X155251600Y-113884200D01*
X152291600Y-113884200D02*
X152291600Y-115884200D01*
X154704600Y-84039200D02*
X154704600Y-86039200D01*
X157664600Y-86039200D02*
X157664600Y-84039200D01*
X175172000Y-121769000D02*
X176872000Y-121769000D01*
X176872000Y-121769000D02*
X176872000Y-119219000D01*
X175172000Y-121769000D02*
X175172000Y-119219000D01*
X171108000Y-121769000D02*
X171108000Y-119219000D01*
X172808000Y-121769000D02*
X172808000Y-119219000D01*
X171108000Y-121769000D02*
X172808000Y-121769000D01*
X167044000Y-121769000D02*
X168744000Y-121769000D01*
X168744000Y-121769000D02*
X168744000Y-119219000D01*
X167044000Y-121769000D02*
X167044000Y-119219000D01*
X170815900Y-91695400D02*
X170815900Y-89145400D01*
X172515900Y-91695400D02*
X172515900Y-89145400D01*
X170815900Y-91695400D02*
X172515900Y-91695400D01*
X121980000Y-79036000D02*
X116780000Y-79036000D01*
X116780000Y-75396000D02*
X121980000Y-75396000D01*
X161583800Y-103112600D02*
X163383800Y-103112600D01*
X162483800Y-104012600D02*
X162483800Y-102212600D01*
X162096800Y-87982600D02*
X162870800Y-87982600D01*
X161570800Y-88022600D02*
X163396800Y-88022600D01*
X161247800Y-88062600D02*
X163719800Y-88062600D01*
X160991800Y-88102600D02*
X163975800Y-88102600D01*
X160773800Y-88142600D02*
X164193800Y-88142600D01*
X160580800Y-88182600D02*
X164386800Y-88182600D01*
X160405800Y-88222600D02*
X164561800Y-88222600D01*
X160245800Y-88262600D02*
X164721800Y-88262600D01*
X160095800Y-88302600D02*
X164871800Y-88302600D01*
X159955800Y-88342600D02*
X165011800Y-88342600D01*
X159823800Y-88382600D02*
X165143800Y-88382600D01*
X159698800Y-88422600D02*
X165268800Y-88422600D01*
X159578800Y-88462600D02*
X165388800Y-88462600D01*
X159464800Y-88502600D02*
X165502800Y-88502600D01*
X159354800Y-88542600D02*
X165612800Y-88542600D01*
X159249800Y-88582600D02*
X165717800Y-88582600D01*
X159147800Y-88622600D02*
X165819800Y-88622600D01*
X159049800Y-88662600D02*
X165917800Y-88662600D01*
X158953800Y-88702600D02*
X166013800Y-88702600D01*
X158861800Y-88742600D02*
X166105800Y-88742600D01*
X158772800Y-88782600D02*
X166194800Y-88782600D01*
X158684800Y-88822600D02*
X166282800Y-88822600D01*
X158600800Y-88862600D02*
X166366800Y-88862600D01*
X158517800Y-88901600D02*
X166449800Y-88901600D01*
X158437800Y-88941600D02*
X166529800Y-88941600D01*
X158358800Y-88981600D02*
X166608800Y-88981600D01*
X158281800Y-89021600D02*
X166685800Y-89021600D01*
X158206800Y-89061600D02*
X166760800Y-89061600D01*
X158133800Y-89101600D02*
X166833800Y-89101600D01*
X158061800Y-89141600D02*
X166905800Y-89141600D01*
X157991800Y-89181600D02*
X166975800Y-89181600D01*
X157922800Y-89221600D02*
X167044800Y-89221600D01*
X157855800Y-89261600D02*
X167111800Y-89261600D01*
X157789800Y-89301600D02*
X167177800Y-89301600D01*
X157724800Y-89341600D02*
X167242800Y-89341600D01*
X157660800Y-89381600D02*
X167306800Y-89381600D01*
X157597800Y-89421600D02*
X167369800Y-89421600D01*
X157536800Y-89461600D02*
X167430800Y-89461600D01*
X157475800Y-89501600D02*
X167491800Y-89501600D01*
X157416800Y-89541600D02*
X167550800Y-89541600D01*
X157357800Y-89581600D02*
X167609800Y-89581600D01*
X157300800Y-89621600D02*
X167666800Y-89621600D01*
X157243800Y-89661600D02*
X167723800Y-89661600D01*
X157188800Y-89701600D02*
X167778800Y-89701600D01*
X157133800Y-89741600D02*
X167833800Y-89741600D01*
X157079800Y-89781600D02*
X167887800Y-89781600D01*
X157026800Y-89821600D02*
X167940800Y-89821600D01*
X156974800Y-89861600D02*
X167992800Y-89861600D01*
X156922800Y-89901600D02*
X168044800Y-89901600D01*
X156872800Y-89941600D02*
X168094800Y-89941600D01*
X156821800Y-89981600D02*
X168145800Y-89981600D01*
X156772800Y-90021600D02*
X168194800Y-90021600D01*
X156724800Y-90061600D02*
X168242800Y-90061600D01*
X156676800Y-90101600D02*
X168290800Y-90101600D01*
X156628800Y-90141600D02*
X168338800Y-90141600D01*
X156582800Y-90181600D02*
X168384800Y-90181600D01*
X156536800Y-90221600D02*
X168430800Y-90221600D01*
X156490800Y-90261600D02*
X168476800Y-90261600D01*
X156445800Y-90301600D02*
X168521800Y-90301600D01*
X156401800Y-90341600D02*
X168565800Y-90341600D01*
X156358800Y-90381600D02*
X168608800Y-90381600D01*
X156315800Y-90421600D02*
X168651800Y-90421600D01*
X156272800Y-90461600D02*
X168694800Y-90461600D01*
X156230800Y-90501600D02*
X168736800Y-90501600D01*
X156189800Y-90541600D02*
X168777800Y-90541600D01*
X156148800Y-90581600D02*
X168818800Y-90581600D01*
X156107800Y-90621600D02*
X168859800Y-90621600D01*
X156067800Y-90661600D02*
X168899800Y-90661600D01*
X156028800Y-90701600D02*
X168938800Y-90701600D01*
X155989800Y-90741600D02*
X168977800Y-90741600D01*
X155951800Y-90781600D02*
X169015800Y-90781600D01*
X155913800Y-90821600D02*
X169053800Y-90821600D01*
X155875800Y-90861600D02*
X169091800Y-90861600D01*
X155838800Y-90901600D02*
X169128800Y-90901600D01*
X155801800Y-90941600D02*
X169165800Y-90941600D01*
X155765800Y-90981600D02*
X169201800Y-90981600D01*
X155729800Y-91021600D02*
X169237800Y-91021600D01*
X155694800Y-91061600D02*
X169272800Y-91061600D01*
X155659800Y-91101600D02*
X169307800Y-91101600D01*
X155625800Y-91141600D02*
X169341800Y-91141600D01*
X155590800Y-91181600D02*
X169376800Y-91181600D01*
X155557800Y-91221600D02*
X169409800Y-91221600D01*
X155523800Y-91261600D02*
X169443800Y-91261600D01*
X155490800Y-91301600D02*
X169476800Y-91301600D01*
X155458800Y-91341600D02*
X169508800Y-91341600D01*
X155426800Y-91381600D02*
X169540800Y-91381600D01*
X155394800Y-91421600D02*
X169572800Y-91421600D01*
X155362800Y-91461600D02*
X169604800Y-91461600D01*
X155331800Y-91501600D02*
X169635800Y-91501600D01*
X155300800Y-91541600D02*
X169666800Y-91541600D01*
X155270800Y-91581600D02*
X169696800Y-91581600D01*
X155240800Y-91621600D02*
X169726800Y-91621600D01*
X155210800Y-91661600D02*
X169756800Y-91661600D01*
X155181800Y-91701600D02*
X169785800Y-91701600D01*
X155152800Y-91741600D02*
X169814800Y-91741600D01*
X155123800Y-91781600D02*
X169843800Y-91781600D01*
X155095800Y-91821600D02*
X169871800Y-91821600D01*
X155067800Y-91861600D02*
X169899800Y-91861600D01*
X155039800Y-91901600D02*
X169927800Y-91901600D01*
X163863800Y-91941600D02*
X169954800Y-91941600D01*
X155012800Y-91941600D02*
X161103800Y-91941600D01*
X163863800Y-91981600D02*
X169982800Y-91981600D01*
X154984800Y-91981600D02*
X161103800Y-91981600D01*
X163863800Y-92021600D02*
X170008800Y-92021600D01*
X154958800Y-92021600D02*
X161103800Y-92021600D01*
X163863800Y-92061600D02*
X170035800Y-92061600D01*
X154931800Y-92061600D02*
X161103800Y-92061600D01*
X163863800Y-92101600D02*
X170061800Y-92101600D01*
X154905800Y-92101600D02*
X161103800Y-92101600D01*
X163863800Y-92141600D02*
X170087800Y-92141600D01*
X154879800Y-92141600D02*
X161103800Y-92141600D01*
X163863800Y-92181600D02*
X170113800Y-92181600D01*
X154853800Y-92181600D02*
X161103800Y-92181600D01*
X163863800Y-92221600D02*
X170138800Y-92221600D01*
X154828800Y-92221600D02*
X161103800Y-92221600D01*
X163863800Y-92261600D02*
X170163800Y-92261600D01*
X154803800Y-92261600D02*
X161103800Y-92261600D01*
X163863800Y-92301600D02*
X170188800Y-92301600D01*
X154778800Y-92301600D02*
X161103800Y-92301600D01*
X163863800Y-92341600D02*
X170212800Y-92341600D01*
X154754800Y-92341600D02*
X161103800Y-92341600D01*
X163863800Y-92381600D02*
X170236800Y-92381600D01*
X154730800Y-92381600D02*
X161103800Y-92381600D01*
X163863800Y-92421600D02*
X170260800Y-92421600D01*
X154706800Y-92421600D02*
X161103800Y-92421600D01*
X163863800Y-92461600D02*
X170284800Y-92461600D01*
X154682800Y-92461600D02*
X161103800Y-92461600D01*
X163863800Y-92501600D02*
X170307800Y-92501600D01*
X154659800Y-92501600D02*
X161103800Y-92501600D01*
X163863800Y-92541600D02*
X170330800Y-92541600D01*
X154636800Y-92541600D02*
X161103800Y-92541600D01*
X163863800Y-92581600D02*
X170353800Y-92581600D01*
X154613800Y-92581600D02*
X161103800Y-92581600D01*
X163863800Y-92621600D02*
X170375800Y-92621600D01*
X154591800Y-92621600D02*
X161103800Y-92621600D01*
X163863800Y-92661600D02*
X170398800Y-92661600D01*
X154568800Y-92661600D02*
X161103800Y-92661600D01*
X163863800Y-92701600D02*
X170420800Y-92701600D01*
X154546800Y-92701600D02*
X161103800Y-92701600D01*
X163863800Y-92741600D02*
X170441800Y-92741600D01*
X154525800Y-92741600D02*
X161103800Y-92741600D01*
X163863800Y-92781600D02*
X170463800Y-92781600D01*
X154503800Y-92781600D02*
X161103800Y-92781600D01*
X163863800Y-92821600D02*
X170484800Y-92821600D01*
X154482800Y-92821600D02*
X161103800Y-92821600D01*
X163863800Y-92861600D02*
X170505800Y-92861600D01*
X154461800Y-92861600D02*
X161103800Y-92861600D01*
X163863800Y-92901600D02*
X170526800Y-92901600D01*
X154440800Y-92901600D02*
X161103800Y-92901600D01*
X163863800Y-92941600D02*
X170546800Y-92941600D01*
X154420800Y-92941600D02*
X161103800Y-92941600D01*
X163863800Y-92981600D02*
X170566800Y-92981600D01*
X154400800Y-92981600D02*
X161103800Y-92981600D01*
X163863800Y-93021600D02*
X170586800Y-93021600D01*
X154380800Y-93021600D02*
X161103800Y-93021600D01*
X163863800Y-93061600D02*
X170606800Y-93061600D01*
X154360800Y-93061600D02*
X161103800Y-93061600D01*
X163863800Y-93101600D02*
X170626800Y-93101600D01*
X154340800Y-93101600D02*
X161103800Y-93101600D01*
X163863800Y-93141600D02*
X170645800Y-93141600D01*
X154321800Y-93141600D02*
X161103800Y-93141600D01*
X163863800Y-93181600D02*
X170664800Y-93181600D01*
X154302800Y-93181600D02*
X161103800Y-93181600D01*
X163863800Y-93221600D02*
X170683800Y-93221600D01*
X154283800Y-93221600D02*
X161103800Y-93221600D01*
X163863800Y-93261600D02*
X170701800Y-93261600D01*
X154265800Y-93261600D02*
X161103800Y-93261600D01*
X163863800Y-93301600D02*
X170719800Y-93301600D01*
X154247800Y-93301600D02*
X161103800Y-93301600D01*
X163863800Y-93341600D02*
X170737800Y-93341600D01*
X154229800Y-93341600D02*
X161103800Y-93341600D01*
X163863800Y-93381600D02*
X170755800Y-93381600D01*
X154211800Y-93381600D02*
X161103800Y-93381600D01*
X163863800Y-93421600D02*
X170773800Y-93421600D01*
X154193800Y-93421600D02*
X161103800Y-93421600D01*
X163863800Y-93461600D02*
X170790800Y-93461600D01*
X154176800Y-93461600D02*
X161103800Y-93461600D01*
X163863800Y-93501600D02*
X170807800Y-93501600D01*
X154159800Y-93501600D02*
X161103800Y-93501600D01*
X163863800Y-93541600D02*
X170824800Y-93541600D01*
X154142800Y-93541600D02*
X161103800Y-93541600D01*
X163863800Y-93581600D02*
X170841800Y-93581600D01*
X154125800Y-93581600D02*
X161103800Y-93581600D01*
X163863800Y-93621600D02*
X170857800Y-93621600D01*
X154109800Y-93621600D02*
X161103800Y-93621600D01*
X163863800Y-93661600D02*
X170874800Y-93661600D01*
X154092800Y-93661600D02*
X161103800Y-93661600D01*
X163863800Y-93701600D02*
X170890800Y-93701600D01*
X154076800Y-93701600D02*
X161103800Y-93701600D01*
X163863800Y-93741600D02*
X170906800Y-93741600D01*
X154060800Y-93741600D02*
X161103800Y-93741600D01*
X163863800Y-93781600D02*
X170921800Y-93781600D01*
X154045800Y-93781600D02*
X161103800Y-93781600D01*
X163863800Y-93821600D02*
X170936800Y-93821600D01*
X154030800Y-93821600D02*
X161103800Y-93821600D01*
X163863800Y-93861600D02*
X170952800Y-93861600D01*
X154014800Y-93861600D02*
X161103800Y-93861600D01*
X163863800Y-93901600D02*
X170967800Y-93901600D01*
X153999800Y-93901600D02*
X161103800Y-93901600D01*
X163863800Y-93941600D02*
X170981800Y-93941600D01*
X153985800Y-93941600D02*
X161103800Y-93941600D01*
X163863800Y-93981600D02*
X170996800Y-93981600D01*
X153970800Y-93981600D02*
X161103800Y-93981600D01*
X163863800Y-94021600D02*
X171010800Y-94021600D01*
X153956800Y-94021600D02*
X161103800Y-94021600D01*
X163863800Y-94061600D02*
X171024800Y-94061600D01*
X153942800Y-94061600D02*
X161103800Y-94061600D01*
X163863800Y-94101600D02*
X171038800Y-94101600D01*
X153928800Y-94101600D02*
X161103800Y-94101600D01*
X163863800Y-94141600D02*
X171052800Y-94141600D01*
X153914800Y-94141600D02*
X161103800Y-94141600D01*
X163863800Y-94181600D02*
X171065800Y-94181600D01*
X153901800Y-94181600D02*
X161103800Y-94181600D01*
X163863800Y-94221600D02*
X171078800Y-94221600D01*
X153888800Y-94221600D02*
X161103800Y-94221600D01*
X163863800Y-94261600D02*
X171092800Y-94261600D01*
X153874800Y-94261600D02*
X161103800Y-94261600D01*
X163863800Y-94301600D02*
X171104800Y-94301600D01*
X153862800Y-94301600D02*
X161103800Y-94301600D01*
X163863800Y-94341600D02*
X171117800Y-94341600D01*
X153849800Y-94341600D02*
X161103800Y-94341600D01*
X163863800Y-94381600D02*
X171129800Y-94381600D01*
X153837800Y-94381600D02*
X161103800Y-94381600D01*
X163863800Y-94421600D02*
X171142800Y-94421600D01*
X153824800Y-94421600D02*
X161103800Y-94421600D01*
X163863800Y-94461600D02*
X171154800Y-94461600D01*
X153812800Y-94461600D02*
X161103800Y-94461600D01*
X163863800Y-94501600D02*
X171166800Y-94501600D01*
X153800800Y-94501600D02*
X161103800Y-94501600D01*
X163863800Y-94541600D02*
X171177800Y-94541600D01*
X153789800Y-94541600D02*
X161103800Y-94541600D01*
X163863800Y-94581600D02*
X171189800Y-94581600D01*
X153777800Y-94581600D02*
X161103800Y-94581600D01*
X163863800Y-94621600D02*
X171200800Y-94621600D01*
X153766800Y-94621600D02*
X161103800Y-94621600D01*
X163863800Y-94661600D02*
X171211800Y-94661600D01*
X153755800Y-94661600D02*
X161103800Y-94661600D01*
X153744800Y-94701600D02*
X171222800Y-94701600D01*
X153734800Y-94741600D02*
X171232800Y-94741600D01*
X153723800Y-94781600D02*
X171243800Y-94781600D01*
X153713800Y-94821600D02*
X171253800Y-94821600D01*
X153703800Y-94861600D02*
X171263800Y-94861600D01*
X153693800Y-94901600D02*
X171273800Y-94901600D01*
X153683800Y-94941600D02*
X171283800Y-94941600D01*
X153674800Y-94981600D02*
X171292800Y-94981600D01*
X153664800Y-95021600D02*
X171302800Y-95021600D01*
X153655800Y-95061600D02*
X171311800Y-95061600D01*
X153646800Y-95101600D02*
X171320800Y-95101600D01*
X153638800Y-95141600D02*
X171328800Y-95141600D01*
X153629800Y-95181600D02*
X171337800Y-95181600D01*
X153621800Y-95221600D02*
X171345800Y-95221600D01*
X153613800Y-95261600D02*
X171353800Y-95261600D01*
X153605800Y-95301600D02*
X171361800Y-95301600D01*
X153597800Y-95341600D02*
X171369800Y-95341600D01*
X153589800Y-95381600D02*
X171377800Y-95381600D01*
X153582800Y-95421600D02*
X171384800Y-95421600D01*
X153574800Y-95461600D02*
X171392800Y-95461600D01*
X153567800Y-95501600D02*
X171399800Y-95501600D01*
X153560800Y-95541600D02*
X171406800Y-95541600D01*
X153554800Y-95581600D02*
X171412800Y-95581600D01*
X153547800Y-95621600D02*
X171419800Y-95621600D01*
X153541800Y-95661600D02*
X171425800Y-95661600D01*
X153535800Y-95701600D02*
X171431800Y-95701600D01*
X153529800Y-95741600D02*
X171437800Y-95741600D01*
X153523800Y-95781600D02*
X171443800Y-95781600D01*
X153517800Y-95821600D02*
X171449800Y-95821600D01*
X153512800Y-95861600D02*
X171454800Y-95861600D01*
X153507800Y-95901600D02*
X171459800Y-95901600D01*
X153502800Y-95941600D02*
X171464800Y-95941600D01*
X153497800Y-95981600D02*
X171469800Y-95981600D01*
X153492800Y-96021600D02*
X171474800Y-96021600D01*
X153488800Y-96061600D02*
X171478800Y-96061600D01*
X153483800Y-96101600D02*
X171483800Y-96101600D01*
X153479800Y-96141600D02*
X171487800Y-96141600D01*
X153475800Y-96181600D02*
X171491800Y-96181600D01*
X153471800Y-96221600D02*
X171495800Y-96221600D01*
X153468800Y-96261600D02*
X171498800Y-96261600D01*
X153464800Y-96301600D02*
X171502800Y-96301600D01*
X153461800Y-96341600D02*
X171505800Y-96341600D01*
X153458800Y-96382600D02*
X171508800Y-96382600D01*
X153455800Y-96422600D02*
X171511800Y-96422600D01*
X153452800Y-96462600D02*
X171514800Y-96462600D01*
X153450800Y-96502600D02*
X171516800Y-96502600D01*
X153447800Y-96542600D02*
X171519800Y-96542600D01*
X153445800Y-96582600D02*
X171521800Y-96582600D01*
X153443800Y-96622600D02*
X171523800Y-96622600D01*
X153441800Y-96662600D02*
X171525800Y-96662600D01*
X153440800Y-96702600D02*
X171526800Y-96702600D01*
X153438800Y-96742600D02*
X171528800Y-96742600D01*
X153437800Y-96782600D02*
X171529800Y-96782600D01*
X153436800Y-96822600D02*
X171530800Y-96822600D01*
X153435800Y-96862600D02*
X171531800Y-96862600D01*
X153434800Y-96902600D02*
X171532800Y-96902600D01*
X153433800Y-96942600D02*
X171533800Y-96942600D01*
X153433800Y-96982600D02*
X171533800Y-96982600D01*
X153433800Y-97022600D02*
X171533800Y-97022600D01*
X153433800Y-97062600D02*
X171533800Y-97062600D01*
X171573800Y-97062600D02*
G75*
G03X171573800Y-97062600I-9090000J0D01*
G01*
D16*
X147027900Y-77927200D02*
X145021300Y-77927200D01*
X145021300Y-81076800D02*
X147027900Y-81076800D01*
D14*
X173603800Y-88605900D02*
X173603800Y-87145900D01*
X176763800Y-88605900D02*
X176763800Y-86445900D01*
X176763800Y-88605900D02*
X175833800Y-88605900D01*
X173603800Y-88605900D02*
X174533800Y-88605900D01*
D10*
X139624800Y-80897200D02*
X142924800Y-80897200D01*
X139624800Y-77497200D02*
X142924800Y-77497200D01*
X140208000Y-125095000D02*
X157988000Y-125095000D01*
X157988000Y-125095000D02*
X157988000Y-122555000D01*
X157988000Y-122555000D02*
X140208000Y-122555000D01*
X137388000Y-125375000D02*
X138938000Y-125375000D01*
X140208000Y-125095000D02*
X140208000Y-122555000D01*
X138938000Y-122275000D02*
X137388000Y-122275000D01*
X137388000Y-122275000D02*
X137388000Y-125375000D01*
X163068000Y-125095000D02*
X175768000Y-125095000D01*
X175768000Y-125095000D02*
X175768000Y-122555000D01*
X175768000Y-122555000D02*
X163068000Y-122555000D01*
X160248000Y-125375000D02*
X161798000Y-125375000D01*
X163068000Y-125095000D02*
X163068000Y-122555000D01*
X161798000Y-122275000D02*
X160248000Y-122275000D01*
X160248000Y-122275000D02*
X160248000Y-125375000D01*
X131064000Y-76835000D02*
X153924000Y-76835000D01*
X153924000Y-76835000D02*
X153924000Y-74295000D01*
X153924000Y-74295000D02*
X131064000Y-74295000D01*
X128244000Y-77115000D02*
X129794000Y-77115000D01*
X131064000Y-76835000D02*
X131064000Y-74295000D01*
X129794000Y-74015000D02*
X128244000Y-74015000D01*
X128244000Y-74015000D02*
X128244000Y-77115000D01*
X157988000Y-76835000D02*
X175768000Y-76835000D01*
X175768000Y-76835000D02*
X175768000Y-74295000D01*
X175768000Y-74295000D02*
X157988000Y-74295000D01*
X155168000Y-77115000D02*
X156718000Y-77115000D01*
X157988000Y-76835000D02*
X157988000Y-74295000D01*
X156718000Y-74015000D02*
X155168000Y-74015000D01*
X155168000Y-74015000D02*
X155168000Y-77115000D01*
X153527333Y-82494380D02*
X153527333Y-81494380D01*
X153765428Y-81494380D01*
X153908285Y-81542000D01*
X154003523Y-81637238D01*
X154051142Y-81732476D01*
X154098761Y-81922952D01*
X154098761Y-82065809D01*
X154051142Y-82256285D01*
X154003523Y-82351523D01*
X153908285Y-82446761D01*
X153765428Y-82494380D01*
X153527333Y-82494380D01*
X154479714Y-82208666D02*
X154955904Y-82208666D01*
X154384476Y-82494380D02*
X154717809Y-81494380D01*
X155051142Y-82494380D01*
X155955904Y-82399142D02*
X155908285Y-82446761D01*
X155765428Y-82494380D01*
X155670190Y-82494380D01*
X155527333Y-82446761D01*
X155432095Y-82351523D01*
X155384476Y-82256285D01*
X155336857Y-82065809D01*
X155336857Y-81922952D01*
X155384476Y-81732476D01*
X155432095Y-81637238D01*
X155527333Y-81542000D01*
X155670190Y-81494380D01*
X155765428Y-81494380D01*
X155908285Y-81542000D01*
X155955904Y-81589619D01*
X156908285Y-82494380D02*
X156336857Y-82494380D01*
X156622571Y-82494380D02*
X156622571Y-81494380D01*
X156527333Y-81637238D01*
X156432095Y-81732476D01*
X156336857Y-81780095D01*
X173736000Y-105354380D02*
X173736000Y-104687714D01*
X173736000Y-104354380D02*
X173688380Y-104402000D01*
X173736000Y-104449619D01*
X173783619Y-104402000D01*
X173736000Y-104354380D01*
X173736000Y-104449619D01*
X176220476Y-104449619D02*
X176268095Y-104402000D01*
X176410952Y-104354380D01*
X176506190Y-104354380D01*
X176649047Y-104402000D01*
X176744285Y-104497238D01*
X176791904Y-104592476D01*
X176839523Y-104782952D01*
X176839523Y-104925809D01*
X176791904Y-105116285D01*
X176744285Y-105211523D01*
X176649047Y-105306761D01*
X176506190Y-105354380D01*
X176410952Y-105354380D01*
X176268095Y-105306761D01*
X176220476Y-105259142D01*
X170497523Y-105259142D02*
X170449904Y-105306761D01*
X170307047Y-105354380D01*
X170211809Y-105354380D01*
X170068952Y-105306761D01*
X169973714Y-105211523D01*
X169926095Y-105116285D01*
X169878476Y-104925809D01*
X169878476Y-104782952D01*
X169926095Y-104592476D01*
X169973714Y-104497238D01*
X170068952Y-104402000D01*
X170211809Y-104354380D01*
X170307047Y-104354380D01*
X170449904Y-104402000D01*
X170497523Y-104449619D01*
X171497523Y-105259142D02*
X171449904Y-105306761D01*
X171307047Y-105354380D01*
X171211809Y-105354380D01*
X171068952Y-105306761D01*
X170973714Y-105211523D01*
X170926095Y-105116285D01*
X170878476Y-104925809D01*
X170878476Y-104782952D01*
X170926095Y-104592476D01*
X170973714Y-104497238D01*
X171068952Y-104402000D01*
X171211809Y-104354380D01*
X171307047Y-104354380D01*
X171449904Y-104402000D01*
X171497523Y-104449619D01*
X149034666Y-82446761D02*
X149177523Y-82494380D01*
X149415619Y-82494380D01*
X149510857Y-82446761D01*
X149558476Y-82399142D01*
X149606095Y-82303904D01*
X149606095Y-82208666D01*
X149558476Y-82113428D01*
X149510857Y-82065809D01*
X149415619Y-82018190D01*
X149225142Y-81970571D01*
X149129904Y-81922952D01*
X149082285Y-81875333D01*
X149034666Y-81780095D01*
X149034666Y-81684857D01*
X149082285Y-81589619D01*
X149129904Y-81542000D01*
X149225142Y-81494380D01*
X149463238Y-81494380D01*
X149606095Y-81542000D01*
X149939428Y-81494380D02*
X150177523Y-82494380D01*
X150368000Y-81780095D01*
X150558476Y-82494380D01*
X150796571Y-81494380D01*
X151701333Y-82494380D02*
X151129904Y-82494380D01*
X151415619Y-82494380D02*
X151415619Y-81494380D01*
X151320380Y-81637238D01*
X151225142Y-81732476D01*
X151129904Y-81780095D01*
X133945333Y-125674380D02*
X133612000Y-125198190D01*
X133373904Y-125674380D02*
X133373904Y-124674380D01*
X133754857Y-124674380D01*
X133850095Y-124722000D01*
X133897714Y-124769619D01*
X133945333Y-124864857D01*
X133945333Y-125007714D01*
X133897714Y-125102952D01*
X133850095Y-125150571D01*
X133754857Y-125198190D01*
X133373904Y-125198190D01*
X134278666Y-124674380D02*
X134897714Y-124674380D01*
X134564380Y-125055333D01*
X134707238Y-125055333D01*
X134802476Y-125102952D01*
X134850095Y-125150571D01*
X134897714Y-125245809D01*
X134897714Y-125483904D01*
X134850095Y-125579142D01*
X134802476Y-125626761D01*
X134707238Y-125674380D01*
X134421523Y-125674380D01*
X134326285Y-125626761D01*
X134278666Y-125579142D01*
X125968285Y-124674380D02*
X126539714Y-124674380D01*
X126254000Y-125674380D02*
X126254000Y-124674380D01*
X126873047Y-125674380D02*
X126873047Y-124674380D01*
X126873047Y-125150571D02*
X127444476Y-125150571D01*
X127444476Y-125674380D02*
X127444476Y-124674380D01*
X128444476Y-125674380D02*
X127873047Y-125674380D01*
X128158761Y-125674380D02*
X128158761Y-124674380D01*
X128063523Y-124817238D01*
X127968285Y-124912476D01*
X127873047Y-124960095D01*
X149947333Y-88590380D02*
X149614000Y-88114190D01*
X149375904Y-88590380D02*
X149375904Y-87590380D01*
X149756857Y-87590380D01*
X149852095Y-87638000D01*
X149899714Y-87685619D01*
X149947333Y-87780857D01*
X149947333Y-87923714D01*
X149899714Y-88018952D01*
X149852095Y-88066571D01*
X149756857Y-88114190D01*
X149375904Y-88114190D01*
X150328285Y-87685619D02*
X150375904Y-87638000D01*
X150471142Y-87590380D01*
X150709238Y-87590380D01*
X150804476Y-87638000D01*
X150852095Y-87685619D01*
X150899714Y-87780857D01*
X150899714Y-87876095D01*
X150852095Y-88018952D01*
X150280666Y-88590380D01*
X150899714Y-88590380D01*
X152741333Y-88495142D02*
X152693714Y-88542761D01*
X152550857Y-88590380D01*
X152455619Y-88590380D01*
X152312761Y-88542761D01*
X152217523Y-88447523D01*
X152169904Y-88352285D01*
X152122285Y-88161809D01*
X152122285Y-88018952D01*
X152169904Y-87828476D01*
X152217523Y-87733238D01*
X152312761Y-87638000D01*
X152455619Y-87590380D01*
X152550857Y-87590380D01*
X152693714Y-87638000D01*
X152741333Y-87685619D01*
X153646095Y-87590380D02*
X153169904Y-87590380D01*
X153122285Y-88066571D01*
X153169904Y-88018952D01*
X153265142Y-87971333D01*
X153503238Y-87971333D01*
X153598476Y-88018952D01*
X153646095Y-88066571D01*
X153693714Y-88161809D01*
X153693714Y-88399904D01*
X153646095Y-88495142D01*
X153598476Y-88542761D01*
X153503238Y-88590380D01*
X153265142Y-88590380D01*
X153169904Y-88542761D01*
X153122285Y-88495142D01*
X146899333Y-88495142D02*
X146851714Y-88542761D01*
X146708857Y-88590380D01*
X146613619Y-88590380D01*
X146470761Y-88542761D01*
X146375523Y-88447523D01*
X146327904Y-88352285D01*
X146280285Y-88161809D01*
X146280285Y-88018952D01*
X146327904Y-87828476D01*
X146375523Y-87733238D01*
X146470761Y-87638000D01*
X146613619Y-87590380D01*
X146708857Y-87590380D01*
X146851714Y-87638000D01*
X146899333Y-87685619D01*
X147756476Y-87923714D02*
X147756476Y-88590380D01*
X147518380Y-87542761D02*
X147280285Y-88257047D01*
X147899333Y-88257047D01*
X151870242Y-115114366D02*
X151917861Y-115161985D01*
X151965480Y-115304842D01*
X151965480Y-115400080D01*
X151917861Y-115542938D01*
X151822623Y-115638176D01*
X151727385Y-115685795D01*
X151536909Y-115733414D01*
X151394052Y-115733414D01*
X151203576Y-115685795D01*
X151108338Y-115638176D01*
X151013100Y-115542938D01*
X150965480Y-115400080D01*
X150965480Y-115304842D01*
X151013100Y-115161985D01*
X151060719Y-115114366D01*
X150965480Y-114781033D02*
X150965480Y-114161985D01*
X151346433Y-114495319D01*
X151346433Y-114352461D01*
X151394052Y-114257223D01*
X151441671Y-114209604D01*
X151536909Y-114161985D01*
X151775004Y-114161985D01*
X151870242Y-114209604D01*
X151917861Y-114257223D01*
X151965480Y-114352461D01*
X151965480Y-114638176D01*
X151917861Y-114733414D01*
X151870242Y-114781033D01*
X160950742Y-115050866D02*
X160998361Y-115098485D01*
X161045980Y-115241342D01*
X161045980Y-115336580D01*
X160998361Y-115479438D01*
X160903123Y-115574676D01*
X160807885Y-115622295D01*
X160617409Y-115669914D01*
X160474552Y-115669914D01*
X160284076Y-115622295D01*
X160188838Y-115574676D01*
X160093600Y-115479438D01*
X160045980Y-115336580D01*
X160045980Y-115241342D01*
X160093600Y-115098485D01*
X160141219Y-115050866D01*
X161045980Y-114098485D02*
X161045980Y-114669914D01*
X161045980Y-114384200D02*
X160045980Y-114384200D01*
X160188838Y-114479438D01*
X160284076Y-114574676D01*
X160331695Y-114669914D01*
X156378742Y-115050866D02*
X156426361Y-115098485D01*
X156473980Y-115241342D01*
X156473980Y-115336580D01*
X156426361Y-115479438D01*
X156331123Y-115574676D01*
X156235885Y-115622295D01*
X156045409Y-115669914D01*
X155902552Y-115669914D01*
X155712076Y-115622295D01*
X155616838Y-115574676D01*
X155521600Y-115479438D01*
X155473980Y-115336580D01*
X155473980Y-115241342D01*
X155521600Y-115098485D01*
X155569219Y-115050866D01*
X155569219Y-114669914D02*
X155521600Y-114622295D01*
X155473980Y-114527057D01*
X155473980Y-114288961D01*
X155521600Y-114193723D01*
X155569219Y-114146104D01*
X155664457Y-114098485D01*
X155759695Y-114098485D01*
X155902552Y-114146104D01*
X156473980Y-114717533D01*
X156473980Y-114098485D01*
X156043333Y-88495142D02*
X155995714Y-88542761D01*
X155852857Y-88590380D01*
X155757619Y-88590380D01*
X155614761Y-88542761D01*
X155519523Y-88447523D01*
X155471904Y-88352285D01*
X155424285Y-88161809D01*
X155424285Y-88018952D01*
X155471904Y-87828476D01*
X155519523Y-87733238D01*
X155614761Y-87638000D01*
X155757619Y-87590380D01*
X155852857Y-87590380D01*
X155995714Y-87638000D01*
X156043333Y-87685619D01*
X156900476Y-87590380D02*
X156710000Y-87590380D01*
X156614761Y-87638000D01*
X156567142Y-87685619D01*
X156471904Y-87828476D01*
X156424285Y-88018952D01*
X156424285Y-88399904D01*
X156471904Y-88495142D01*
X156519523Y-88542761D01*
X156614761Y-88590380D01*
X156805238Y-88590380D01*
X156900476Y-88542761D01*
X156948095Y-88495142D01*
X156995714Y-88399904D01*
X156995714Y-88161809D01*
X156948095Y-88066571D01*
X156900476Y-88018952D01*
X156805238Y-87971333D01*
X156614761Y-87971333D01*
X156519523Y-88018952D01*
X156471904Y-88066571D01*
X156424285Y-88161809D01*
X174624380Y-121007095D02*
X173624380Y-121007095D01*
X173624380Y-120769000D01*
X173672000Y-120626142D01*
X173767238Y-120530904D01*
X173862476Y-120483285D01*
X174052952Y-120435666D01*
X174195809Y-120435666D01*
X174386285Y-120483285D01*
X174481523Y-120530904D01*
X174576761Y-120626142D01*
X174624380Y-120769000D01*
X174624380Y-121007095D01*
X173624380Y-120102333D02*
X173624380Y-119483285D01*
X174005333Y-119816619D01*
X174005333Y-119673761D01*
X174052952Y-119578523D01*
X174100571Y-119530904D01*
X174195809Y-119483285D01*
X174433904Y-119483285D01*
X174529142Y-119530904D01*
X174576761Y-119578523D01*
X174624380Y-119673761D01*
X174624380Y-119959476D01*
X174576761Y-120054714D01*
X174529142Y-120102333D01*
X170560380Y-121007095D02*
X169560380Y-121007095D01*
X169560380Y-120769000D01*
X169608000Y-120626142D01*
X169703238Y-120530904D01*
X169798476Y-120483285D01*
X169988952Y-120435666D01*
X170131809Y-120435666D01*
X170322285Y-120483285D01*
X170417523Y-120530904D01*
X170512761Y-120626142D01*
X170560380Y-120769000D01*
X170560380Y-121007095D01*
X169655619Y-120054714D02*
X169608000Y-120007095D01*
X169560380Y-119911857D01*
X169560380Y-119673761D01*
X169608000Y-119578523D01*
X169655619Y-119530904D01*
X169750857Y-119483285D01*
X169846095Y-119483285D01*
X169988952Y-119530904D01*
X170560380Y-120102333D01*
X170560380Y-119483285D01*
X166496380Y-121007095D02*
X165496380Y-121007095D01*
X165496380Y-120769000D01*
X165544000Y-120626142D01*
X165639238Y-120530904D01*
X165734476Y-120483285D01*
X165924952Y-120435666D01*
X166067809Y-120435666D01*
X166258285Y-120483285D01*
X166353523Y-120530904D01*
X166448761Y-120626142D01*
X166496380Y-120769000D01*
X166496380Y-121007095D01*
X166496380Y-119483285D02*
X166496380Y-120054714D01*
X166496380Y-119769000D02*
X165496380Y-119769000D01*
X165639238Y-119864238D01*
X165734476Y-119959476D01*
X165782095Y-120054714D01*
X170268280Y-90933495D02*
X169268280Y-90933495D01*
X169268280Y-90695400D01*
X169315900Y-90552542D01*
X169411138Y-90457304D01*
X169506376Y-90409685D01*
X169696852Y-90362066D01*
X169839709Y-90362066D01*
X170030185Y-90409685D01*
X170125423Y-90457304D01*
X170220661Y-90552542D01*
X170268280Y-90695400D01*
X170268280Y-90933495D01*
X169601614Y-89504923D02*
X170268280Y-89504923D01*
X169220661Y-89743019D02*
X169934947Y-89981114D01*
X169934947Y-89362066D01*
X119213333Y-80268380D02*
X118880000Y-79792190D01*
X118641904Y-80268380D02*
X118641904Y-79268380D01*
X119022857Y-79268380D01*
X119118095Y-79316000D01*
X119165714Y-79363619D01*
X119213333Y-79458857D01*
X119213333Y-79601714D01*
X119165714Y-79696952D01*
X119118095Y-79744571D01*
X119022857Y-79792190D01*
X118641904Y-79792190D01*
X120165714Y-80268380D02*
X119594285Y-80268380D01*
X119880000Y-80268380D02*
X119880000Y-79268380D01*
X119784761Y-79411238D01*
X119689523Y-79506476D01*
X119594285Y-79554095D01*
X159715485Y-85516980D02*
X159715485Y-84516980D01*
X159953580Y-84516980D01*
X160096438Y-84564600D01*
X160191676Y-84659838D01*
X160239295Y-84755076D01*
X160286914Y-84945552D01*
X160286914Y-85088409D01*
X160239295Y-85278885D01*
X160191676Y-85374123D01*
X160096438Y-85469361D01*
X159953580Y-85516980D01*
X159715485Y-85516980D01*
X160667866Y-85231266D02*
X161144057Y-85231266D01*
X160572628Y-85516980D02*
X160905961Y-84516980D01*
X161239295Y-85516980D01*
X162144057Y-85421742D02*
X162096438Y-85469361D01*
X161953580Y-85516980D01*
X161858342Y-85516980D01*
X161715485Y-85469361D01*
X161620247Y-85374123D01*
X161572628Y-85278885D01*
X161525009Y-85088409D01*
X161525009Y-84945552D01*
X161572628Y-84755076D01*
X161620247Y-84659838D01*
X161715485Y-84564600D01*
X161858342Y-84516980D01*
X161953580Y-84516980D01*
X162096438Y-84564600D01*
X162144057Y-84612219D01*
X162572628Y-85136028D02*
X163334533Y-85136028D01*
X164001200Y-84516980D02*
X164096438Y-84516980D01*
X164191676Y-84564600D01*
X164239295Y-84612219D01*
X164286914Y-84707457D01*
X164334533Y-84897933D01*
X164334533Y-85136028D01*
X164286914Y-85326504D01*
X164239295Y-85421742D01*
X164191676Y-85469361D01*
X164096438Y-85516980D01*
X164001200Y-85516980D01*
X163905961Y-85469361D01*
X163858342Y-85421742D01*
X163810723Y-85326504D01*
X163763104Y-85136028D01*
X163763104Y-84897933D01*
X163810723Y-84707457D01*
X163858342Y-84612219D01*
X163905961Y-84564600D01*
X164001200Y-84516980D01*
X161715533Y-87580742D02*
X161667914Y-87628361D01*
X161525057Y-87675980D01*
X161429819Y-87675980D01*
X161286961Y-87628361D01*
X161191723Y-87533123D01*
X161144104Y-87437885D01*
X161096485Y-87247409D01*
X161096485Y-87104552D01*
X161144104Y-86914076D01*
X161191723Y-86818838D01*
X161286961Y-86723600D01*
X161429819Y-86675980D01*
X161525057Y-86675980D01*
X161667914Y-86723600D01*
X161715533Y-86771219D01*
X162144104Y-87675980D02*
X162144104Y-86675980D01*
X162525057Y-86675980D01*
X162620295Y-86723600D01*
X162667914Y-86771219D01*
X162715533Y-86866457D01*
X162715533Y-87009314D01*
X162667914Y-87104552D01*
X162620295Y-87152171D01*
X162525057Y-87199790D01*
X162144104Y-87199790D01*
X163667914Y-87675980D02*
X163096485Y-87675980D01*
X163382200Y-87675980D02*
X163382200Y-86675980D01*
X163286961Y-86818838D01*
X163191723Y-86914076D01*
X163096485Y-86961695D01*
X145050000Y-81494380D02*
X145240476Y-81494380D01*
X145335714Y-81542000D01*
X145430952Y-81637238D01*
X145478571Y-81827714D01*
X145478571Y-82161047D01*
X145430952Y-82351523D01*
X145335714Y-82446761D01*
X145240476Y-82494380D01*
X145050000Y-82494380D01*
X144954761Y-82446761D01*
X144859523Y-82351523D01*
X144811904Y-82161047D01*
X144811904Y-81827714D01*
X144859523Y-81637238D01*
X144954761Y-81542000D01*
X145050000Y-81494380D01*
X145859523Y-82208666D02*
X146335714Y-82208666D01*
X145764285Y-82494380D02*
X146097619Y-81494380D01*
X146430952Y-82494380D01*
X147288095Y-82494380D02*
X146716666Y-82494380D01*
X147002380Y-82494380D02*
X147002380Y-81494380D01*
X146907142Y-81637238D01*
X146811904Y-81732476D01*
X146716666Y-81780095D01*
X149016980Y-80518000D02*
X148255076Y-80518000D01*
X148445552Y-80708476D02*
X148255076Y-80518000D01*
X148445552Y-80327523D01*
X172578780Y-93957733D02*
X173293066Y-93957733D01*
X173435923Y-94005352D01*
X173531161Y-94100590D01*
X173578780Y-94243447D01*
X173578780Y-94338685D01*
X172674019Y-93529161D02*
X172626400Y-93481542D01*
X172578780Y-93386304D01*
X172578780Y-93148209D01*
X172626400Y-93052971D01*
X172674019Y-93005352D01*
X172769257Y-92957733D01*
X172864495Y-92957733D01*
X173007352Y-93005352D01*
X173578780Y-93576780D01*
X173578780Y-92957733D01*
X145934180Y-97081933D02*
X146648466Y-97081933D01*
X146791323Y-97129552D01*
X146886561Y-97224790D01*
X146934180Y-97367647D01*
X146934180Y-97462885D01*
X146934180Y-96081933D02*
X146934180Y-96653361D01*
X146934180Y-96367647D02*
X145934180Y-96367647D01*
X146077038Y-96462885D01*
X146172276Y-96558123D01*
X146219895Y-96653361D01*
X178125380Y-90207933D02*
X177125380Y-90207933D01*
X177839666Y-89874600D01*
X177125380Y-89541266D01*
X178125380Y-89541266D01*
X178125380Y-89065076D02*
X177125380Y-89065076D01*
X178125380Y-88493647D01*
X177125380Y-88493647D01*
X177220619Y-88065076D02*
X177173000Y-88017457D01*
X177125380Y-87922219D01*
X177125380Y-87684123D01*
X177173000Y-87588885D01*
X177220619Y-87541266D01*
X177315857Y-87493647D01*
X177411095Y-87493647D01*
X177553952Y-87541266D01*
X178125380Y-88112695D01*
X178125380Y-87493647D01*
X135598066Y-78011280D02*
X135598066Y-77011280D01*
X135931400Y-77725566D01*
X136264733Y-77011280D01*
X136264733Y-78011280D01*
X136740923Y-78011280D02*
X136740923Y-77011280D01*
X137312352Y-78011280D01*
X137312352Y-77011280D01*
X138312352Y-78011280D02*
X137740923Y-78011280D01*
X138026638Y-78011280D02*
X138026638Y-77011280D01*
X137931400Y-77154138D01*
X137836161Y-77249376D01*
X137740923Y-77296995D01*
X138121276Y-78272200D02*
X138883180Y-78272200D01*
X138692704Y-78081723D02*
X138883180Y-78272200D01*
X138692704Y-78462676D01*
X166084309Y-85434442D02*
X166131928Y-85482061D01*
X166084309Y-85529680D01*
X166036690Y-85482061D01*
X166084309Y-85434442D01*
X166084309Y-85529680D01*
X166989071Y-84863014D02*
X166989071Y-85529680D01*
X166750976Y-84482061D02*
X166512880Y-85196347D01*
X167131928Y-85196347D01*
X161598076Y-110602780D02*
X161931409Y-111602780D01*
X162264742Y-110602780D01*
X163121885Y-111602780D02*
X162550457Y-111602780D01*
X162836171Y-111602780D02*
X162836171Y-110602780D01*
X162740933Y-110745638D01*
X162645695Y-110840876D01*
X162550457Y-110888495D01*
X134366095Y-79462380D02*
X134937523Y-79462380D01*
X134651809Y-80462380D02*
X134651809Y-79462380D01*
X135794666Y-80462380D02*
X135223238Y-80462380D01*
X135508952Y-80462380D02*
X135508952Y-79462380D01*
X135413714Y-79605238D01*
X135318476Y-79700476D01*
X135223238Y-79748095D01*
X149391714Y-120912000D02*
X149296476Y-120864380D01*
X149153619Y-120864380D01*
X149010761Y-120912000D01*
X148915523Y-121007238D01*
X148867904Y-121102476D01*
X148820285Y-121292952D01*
X148820285Y-121435809D01*
X148867904Y-121626285D01*
X148915523Y-121721523D01*
X149010761Y-121816761D01*
X149153619Y-121864380D01*
X149248857Y-121864380D01*
X149391714Y-121816761D01*
X149439333Y-121769142D01*
X149439333Y-121435809D01*
X149248857Y-121435809D01*
X150391714Y-121864380D02*
X149820285Y-121864380D01*
X150106000Y-121864380D02*
X150106000Y-120864380D01*
X150010761Y-121007238D01*
X149915523Y-121102476D01*
X149820285Y-121150095D01*
X165927066Y-114531685D02*
X165927066Y-114055495D01*
X166212780Y-114626923D02*
X165212780Y-114293590D01*
X166212780Y-113960257D01*
X165212780Y-113722161D02*
X165212780Y-113103114D01*
X165593733Y-113436447D01*
X165593733Y-113293590D01*
X165641352Y-113198352D01*
X165688971Y-113150733D01*
X165784209Y-113103114D01*
X166022304Y-113103114D01*
X166117542Y-113150733D01*
X166165161Y-113198352D01*
X166212780Y-113293590D01*
X166212780Y-113579304D01*
X166165161Y-113674542D01*
X166117542Y-113722161D01*
X170041866Y-114633285D02*
X170041866Y-114157095D01*
X170327580Y-114728523D02*
X169327580Y-114395190D01*
X170327580Y-114061857D01*
X169660914Y-113299952D02*
X170327580Y-113299952D01*
X169279961Y-113538047D02*
X169994247Y-113776142D01*
X169994247Y-113157095D01*
X173551909Y-85383642D02*
X173599528Y-85431261D01*
X173551909Y-85478880D01*
X173504290Y-85431261D01*
X173551909Y-85383642D01*
X173551909Y-85478880D01*
X173980480Y-84574119D02*
X174028100Y-84526500D01*
X174123338Y-84478880D01*
X174361433Y-84478880D01*
X174456671Y-84526500D01*
X174504290Y-84574119D01*
X174551909Y-84669357D01*
X174551909Y-84764595D01*
X174504290Y-84907452D01*
X173932861Y-85478880D01*
X174551909Y-85478880D01*
X169792709Y-85383642D02*
X169840328Y-85431261D01*
X169792709Y-85478880D01*
X169745090Y-85431261D01*
X169792709Y-85383642D01*
X169792709Y-85478880D01*
X170173661Y-84478880D02*
X170792709Y-84478880D01*
X170459376Y-84859833D01*
X170602233Y-84859833D01*
X170697471Y-84907452D01*
X170745090Y-84955071D01*
X170792709Y-85050309D01*
X170792709Y-85288404D01*
X170745090Y-85383642D01*
X170697471Y-85431261D01*
X170602233Y-85478880D01*
X170316519Y-85478880D01*
X170221280Y-85431261D01*
X170173661Y-85383642D01*
X174105866Y-114531685D02*
X174105866Y-114055495D01*
X174391580Y-114626923D02*
X173391580Y-114293590D01*
X174391580Y-113960257D01*
X173391580Y-113150733D02*
X173391580Y-113626923D01*
X173867771Y-113674542D01*
X173820152Y-113626923D01*
X173772533Y-113531685D01*
X173772533Y-113293590D01*
X173820152Y-113198352D01*
X173867771Y-113150733D01*
X173963009Y-113103114D01*
X174201104Y-113103114D01*
X174296342Y-113150733D01*
X174343961Y-113198352D01*
X174391580Y-113293590D01*
X174391580Y-113531685D01*
X174343961Y-113626923D01*
X174296342Y-113674542D01*
X145565904Y-121864380D02*
X145565904Y-120864380D01*
X145946857Y-120864380D01*
X146042095Y-120912000D01*
X146089714Y-120959619D01*
X146137333Y-121054857D01*
X146137333Y-121197714D01*
X146089714Y-121292952D01*
X146042095Y-121340571D01*
X145946857Y-121388190D01*
X145565904Y-121388190D01*
X147089714Y-121864380D02*
X146518285Y-121864380D01*
X146804000Y-121864380D02*
X146804000Y-120864380D01*
X146708761Y-121007238D01*
X146613523Y-121102476D01*
X146518285Y-121150095D01*
X163345904Y-122245380D02*
X163345904Y-121245380D01*
X163726857Y-121245380D01*
X163822095Y-121293000D01*
X163869714Y-121340619D01*
X163917333Y-121435857D01*
X163917333Y-121578714D01*
X163869714Y-121673952D01*
X163822095Y-121721571D01*
X163726857Y-121769190D01*
X163345904Y-121769190D01*
X164298285Y-121340619D02*
X164345904Y-121293000D01*
X164441142Y-121245380D01*
X164679238Y-121245380D01*
X164774476Y-121293000D01*
X164822095Y-121340619D01*
X164869714Y-121435857D01*
X164869714Y-121531095D01*
X164822095Y-121673952D01*
X164250666Y-122245380D01*
X164869714Y-122245380D01*
X132675404Y-78366880D02*
X132675404Y-77366880D01*
X133056357Y-77366880D01*
X133151595Y-77414500D01*
X133199214Y-77462119D01*
X133246833Y-77557357D01*
X133246833Y-77700214D01*
X133199214Y-77795452D01*
X133151595Y-77843071D01*
X133056357Y-77890690D01*
X132675404Y-77890690D01*
X133580166Y-77366880D02*
X134199214Y-77366880D01*
X133865880Y-77747833D01*
X134008738Y-77747833D01*
X134103976Y-77795452D01*
X134151595Y-77843071D01*
X134199214Y-77938309D01*
X134199214Y-78176404D01*
X134151595Y-78271642D01*
X134103976Y-78319261D01*
X134008738Y-78366880D01*
X133723023Y-78366880D01*
X133627785Y-78319261D01*
X133580166Y-78271642D01*
X158342104Y-78531980D02*
X158342104Y-77531980D01*
X158723057Y-77531980D01*
X158818295Y-77579600D01*
X158865914Y-77627219D01*
X158913533Y-77722457D01*
X158913533Y-77865314D01*
X158865914Y-77960552D01*
X158818295Y-78008171D01*
X158723057Y-78055790D01*
X158342104Y-78055790D01*
X159770676Y-77865314D02*
X159770676Y-78531980D01*
X159532580Y-77484361D02*
X159294485Y-78198647D01*
X159913533Y-78198647D01*
M02*
