M48
INCH,TZ
T1C0.016
T2C0.040
T3C0.047
T4C0.047
T5C0.059
%
G90
G05
T1
X44488Y-30315
X44882Y-33858
X44882Y-36220
X44882Y-38583
X44882Y-40945
X44882Y-43307
X44882Y-45669
X44882Y-48031
X45260Y-29340
X45276Y-31496
X46063Y-32677
X46063Y-35039
X46063Y-37402
X46063Y-39764
X46063Y-42126
X46063Y-44488
X46063Y-46850
X46063Y-49213
X47244Y-48031
X48425Y-49213
X54600Y-31570
X56250Y-37170
X56250Y-37670
X56800Y-37170
X56800Y-37670
X57490Y-31120
X57540Y-31670
X57800Y-35000
X58690Y-30766
X58770Y-45250
X58800Y-35000
X59000Y-31370
X59000Y-31370
X59650Y-46050
X59800Y-35000
X60115Y-31141
X60270Y-30760
X60450Y-31910
X60540Y-45255
X60800Y-35000
X61450Y-46025
X61800Y-35000
X62340Y-45255
X68590Y-33590
T2
X51100Y-29750
X52100Y-29750
X53100Y-29750
X54100Y-29750
X55100Y-29750
X56100Y-29750
X57100Y-29750
X58100Y-29750
X59100Y-29750
X60100Y-29750
X54700Y-48750
X55700Y-48750
X56700Y-48750
X57700Y-48750
X58700Y-48750
X59700Y-48750
X60700Y-48750
X61700Y-48750
X61700Y-29750
X62700Y-29750
X63700Y-29750
X64700Y-29750
X65700Y-29750
X66700Y-29750
X67700Y-29750
X68700Y-29750
X63700Y-48750
X64700Y-48750
X65700Y-48750
X66700Y-48750
X67700Y-48750
X68700Y-48750
T3
X69150Y-36110
X69150Y-37610
X69300Y-44300
X69300Y-45800
X64030Y-31025
X64030Y-32525
X66100Y-44300
X66100Y-45800
X67700Y-44300
X67700Y-45800
X58760Y-37450
X58760Y-38950
X65530Y-31020
X65530Y-32520
X67030Y-31020
X67030Y-32520
X68530Y-31020
X68530Y-32520
T4
X63970Y-36737
X63970Y-39690
T5
X60140Y-47390
X62610Y-42900
T0
M30
